<svg preserveAspectRatio="xMidYMid meet" data-bbox="21.537 48.948 156.975 102.027" viewBox="21.537 48.948 156.975 102.027" height="200" width="200" xmlns="http://www.w3.org/2000/svg" data-type="color" role="presentation" aria-hidden="true" aria-label="">
    <defs>
        <style>
            /* CSS rule for future use, can be left if needed */
            [data-color="1"] { fill: #BDE8FF; }
        </style>
    </defs>
    <g transform="rotate(90 100 100)"> <!-- Rotate around the center -->
        <path d="M176.1 118.4c-1.5 7.1-9.3 10.6-15.8 9-7-1.6-9.6-9.2-9-15.9.4-4.3.8-6.8 1.6-11.5-14.2 18.6-39.8 34.2-57 40.9-26.1 10.2-61.1 12.3-68.6 7.9-5.5-3.2-10.1-15.7 1.2-15.5 16.6.3 38.5-3.8 53.8-9.5 12.8-4.8 39-21.5 49.8-38-1.2.6-11.7 7.1-14.8 8.7-4.2 2.1-12.8.2-16.1-5.5-3.7-6.3.9-15.1 3.6-17.4 7.4-6.5 17.2-9.5 26.2-13.4 8.2-3.4 16.5-6.6 25-8.8 7.2-1.9 13.4 2.4 15.8 9 6.8 19.5 8.8 39.6 4.3 60z" fill="#BDE8FF" data-color="1"></path>
    </g>
</svg>
