<svg preserveAspectRatio="xMidYMid meet" data-bbox="0.037 0.001 109.655 108.857" viewBox="0.037 0.001 109.655 108.857" xmlns="http://www.w3.org/2000/svg" data-type="color" role="presentation" aria-hidden="true">
    <g>
        <path d="M63.52 10.66c.17-1.44 2.35-3.4.72-6.39S59.3-1.4 54.62.82s-7.21 8.39-5 10.21 2.53 3.7 5.67 3.62 8-2.17 8.21-4" fill="#251f21" data-color="1"></path>
        <path d="M77 36.13c.2-4 4.33-4.57 2.92-8.15s-2.23-6.79-8-6.08-11.09.75-12 4.83-5 4.83-2.87 9.15 3.12 7.35 7.5 7.1 12.3-4.83 12.45-6.85" fill="#251f21" data-color="1"></path>
        <path d="M48.17 28.52c-.08-3.43.23-4.75-1.75-7.3s-9.75-2.63-11.25-1.8-5.41 8.09-3.65 10.42 4.86 7.31 12.32 5.56 4.33-6.88 4.33-6.88" fill="#251f21" data-color="1"></path>
        <path d="M89.45 59.41s17.18.22 18.6-2.22S114.51 50 95 50s-54.74.64-73.29.31-24 6.87-20.82 8.6S49 60.18 59.4 60.06s30.05-.65 30.05-.65" fill="#ff402b" data-color="2"></path>
        <path d="M47.26 98.19c-.18 1.44-2.36 3.41-.72 6.4s4.94 5.67 9.61 3.45 7.21-8.39 5-10.21-2.54-3.7-5.67-3.62-8 2.17-8.21 4" fill="#91d9ff" data-color="3"></path>
        <path d="M33.83 72.72c-.21 4-4.33 4.58-2.92 8.15s2.23 6.79 8 6.09S50 86.21 51 82.13s5-4.83 2.85-9.13-3.12-7.34-7.5-7.09-12.42 4.83-12.52 6.84" fill="#91d9ff" data-color="3"></path>
        <path d="M62.61 80.34c.08 3.43-.23 4.75 1.75 7.3s9.75 2.63 11.25 1.8S81 81.35 79.26 79s-4.86-7.31-12.32-5.56-4.33 6.88-4.33 6.88" fill="#91d9ff" data-color="3"></path>
    </g>
</svg>