<!-- <svg preserveAspectRatio="xMidYMid meet" data-bbox="0 -0.017 115.277 72.973" viewBox="0 -0.017 115.277 72.973" xmlns="http://www.w3.org/2000/svg" data-type="color" role="presentation" aria-hidden="true">
    <g>
        <path d="M.9 71.8c.1.09-.2.85-.07.93a4.74 4.74 0 0 0 5.55-2.14 16.82 16.82 0 0 0 1.54-4 117.29 117.29 0 0 1 10.87-21.24c4.27-6.43 9.42-12.25 15.44-15.48 14.24-6.94 28-16.13 42.65-17.53 2.35-.21 4.77-.64 7.4-1a65.77 65.77 0 0 1 8.42-.54 45.43 45.43 0 0 1 17.94 3.79l.3.12a7.85 7.85 0 0 1-2.16.62 15 15 0 0 1-3.21.14 17.68 17.68 0 0 1-6.11-1.41h-.08a6 6 0 0 0-1.86 1.55c-.35.33-1 .46-.55.53 2.18.43 4.59 2 7.37 2.24a20.15 20.15 0 0 0 4 0 20.44 20.44 0 0 0 2.22-.31 8.67 8.67 0 0 0 2.76-1 6.61 6.61 0 0 0 .6-.44 5.76 5.76 0 0 0 .59-.62 3.94 3.94 0 0 0 .73-1.75 4.1 4.1 0 0 0-.1-1.6 7.52 7.52 0 0 0-.28-.84 12.76 12.76 0 0 0-1.32-2.54 24.34 24.34 0 0 0-3.67-4.18 32.19 32.19 0 0 0-3.18-2.77A9.84 9.84 0 0 0 102.8.49c-.7-.13-.8.1-1.43 0-1.94 0-1.07-1.27-1.44.21-.1.46.21.44.3.52.74.67 1.84 2.31 2.23 2.64 1.33 1 2 1 2.65 2.17a21.69 21.69 0 0 0 3.78 4.33 18.35 18.35 0 0 1 2 2.27 23.11 23.11 0 0 0-11.26-6.14 50.3 50.3 0 0 0-13.18-1A76.18 76.18 0 0 0 64 9.68a99.16 99.16 0 0 0-19.64 9.17q-3.93 2.38-7.85 4.51a74.93 74.93 0 0 0-7.7 4.26 52.35 52.35 0 0 0-12.23 12.06 151.17 151.17 0 0 0-10 14.82A53 53 0 0 0 0 71.31c0 .33.67.29.89.48m110.78-58zm.06.13a.3.3 0 0 1 0-.1v.11z" fill="#afa1a1" data-color="1"></path>
    </g>
</svg> -->

<!-- <svg 
  preserveAspectRatio="xMidYMid meet" 
  data-bbox="0 -0.017 115.277 72.973" 
  viewBox="0 -0.017 115.277 72.973" 
  xmlns="http://www.w3.org/2000/svg" 
  data-type="color" 
  role="presentation" 
  aria-hidden="true" 
  style="transform: scale(1, -1);"
>
  <g>
    <path d="M.9 71.8c.1.09-.2.85-.07.93a4.74 4.74 0 0 0 5.55-2.14 16.82 16.82 0 0 0 1.54-4 117.29 117.29 0 0 1 10.87-21.24c4.27-6.43 9.42-12.25 15.44-15.48 14.24-6.94 28-16.13 42.65-17.53 2.35-.21 4.77-.64 7.4-1a65.77 65.77 0 0 1 8.42-.54 45.43 45.43 0 0 1 17.94 3.79l.3.12a7.85 7.85 0 0 1-2.16.62 15 15 0 0 1-3.21.14 17.68 17.68 0 0 1-6.11-1.41h-.08a6 6 0 0 0-1.86 1.55c-.35.33-1 .46-.55.53 2.18.43 4.59 2 7.37 2.24a20.15 20.15 0 0 0 4 0 20.44 20.44 0 0 0 2.22-.31 8.67 8.67 0 0 0 2.76-1 6.61 6.61 0 0 0 .6-.44 5.76 5.76 0 0 0 .59-.62 3.94 3.94 0 0 0 .73-1.75 4.1 4.1 0 0 0-.1-1.6 7.52 7.52 0 0 0-.28-.84 12.76 12.76 0 0 0-1.32-2.54 24.34 24.34 0 0 0-3.67-4.18 32.19 32.19 0 0 0-3.18-2.77A9.84 9.84 0 0 0 102.8.49c-.7-.13-.8.1-1.43 0-1.94 0-1.07-1.27-1.44.21-.1.46.21.44.3.52.74.67 1.84 2.31 2.23 2.64 1.33 1 2 1 2.65 2.17a21.69 21.69 0 0 0 3.78 4.33 18.35 18.35 0 0 1 2 2.27 23.11 23.11 0 0 0-11.26-6.14 50.3 50.3 0 0 0-13.18-1A76.18 76.18 0 0 0 64 9.68a99.16 99.16 0 0 0-19.64 9.17q-3.93 2.38-7.85 4.51a74.93 74.93 0 0 0-7.7 4.26 52.35 52.35 0 0 0-12.23 12.06 151.17 151.17 0 0 0-10 14.82A53 53 0 0 0 0 71.31c0 .33.67.29.89.48m110.78-58zm.06.13a.3.3 0 0 1 0-.1v.11z" fill="#afa1a1" data-color="1"></path>
  </g>
</svg> -->

<svg 
  preserveAspectRatio="xMidYMid meet" 
  data-bbox="0 -0.017 115.277 72.973" 
  viewBox="0 -0.017 115.277 72.973" 
  xmlns="http://www.w3.org/2000/svg" 
  data-type="color" 
  role="presentation" 
  aria-hidden="true" 
  style="transform: scale(1, -1) rotate(50deg);"
>
  <g>
    <path d="M.9 71.8c.1.09-.2.85-.07.93a4.74 4.74 0 0 0 5.55-2.14 16.82 16.82 0 0 0 1.54-4 117.29 117.29 0 0 1 10.87-21.24c4.27-6.43 9.42-12.25 15.44-15.48 14.24-6.94 28-16.13 42.65-17.53 2.35-.21 4.77-.64 7.4-1a65.77 65.77 0 0 1 8.42-.54 45.43 45.43 0 0 1 17.94 3.79l.3.12a7.85 7.85 0 0 1-2.16.62 15 15 0 0 1-3.21.14 17.68 17.68 0 0 1-6.11-1.41h-.08a6 6 0 0 0-1.86 1.55c-.35.33-1 .46-.55.53 2.18.43 4.59 2 7.37 2.24a20.15 20.15 0 0 0 4 0 20.44 20.44 0 0 0 2.22-.31 8.67 8.67 0 0 0 2.76-1 6.61 6.61 0 0 0 .6-.44 5.76 5.76 0 0 0 .59-.62 3.94 3.94 0 0 0 .73-1.75 4.1 4.1 0 0 0-.1-1.6 7.52 7.52 0 0 0-.28-.84 12.76 12.76 0 0 0-1.32-2.54 24.34 24.34 0 0 0-3.67-4.18 32.19 32.19 0 0 0-3.18-2.77A9.84 9.84 0 0 0 102.8.49c-.7-.13-.8.1-1.43 0-1.94 0-1.07-1.27-1.44.21-.1.46.21.44.3.52.74.67 1.84 2.31 2.23 2.64 1.33 1 2 1 2.65 2.17a21.69 21.69 0 0 0 3.78 4.33 18.35 18.35 0 0 1 2 2.27 23.11 23.11 0 0 0-11.26-6.14 50.3 50.3 0 0 0-13.18-1A76.18 76.18 0 0 0 64 9.68a99.16 99.16 0 0 0-19.64 9.17q-3.93 2.38-7.85 4.51a74.93 74.93 0 0 0-7.7 4.26 52.35 52.35 0 0 0-12.23 12.06 151.17 151.17 0 0 0-10 14.82A53 53 0 0 0 0 71.31c0 .33.67.29.89.48m110.78-58zm.06.13a.3.3 0 0 1 0-.1v.11z" fill="#afa1a1" data-color="1"></path>
  </g>
</svg>
