<svg preserveAspectRatio="xMidYMid meet" data-bbox="0.18 0 353.12 174.69" viewBox="0.18 0 353.12 174.69" xmlns="http://www.w3.org/2000/svg" data-type="color" role="img" aria-label="USDA Certified Biobased Product ">
    <g>
        <path d="M352.27 159.84c0 7.57-6.49 13.71-14.49 13.71H90c-8 0-14.49-6.14-14.49-13.71V14.75C75.46 7.18 82 1 90 1h247.78c8 0 14.49 6.15 14.49 13.72z" fill="#ffffff" data-color="1"></path>
        <path d="M337.78 174.59H90c-8.56 0-15.52-6.62-15.52-14.75V14.75C74.43 6.62 81.39 0 90 0h247.78c8.56 0 15.52 6.62 15.52 14.75v145.09c0 8.16-6.96 14.75-15.52 14.75zM90 2.07c-7.42 0-13.45 5.69-13.45 12.68v145.09c0 7 6 12.68 13.45 12.68h247.78c7.42 0 13.45-5.69 13.45-12.68V14.75c0-7-6-12.68-13.45-12.68z" fill="#261c02" data-color="2"></path>
        <path d="M174 87.74A86.58 86.58 0 1 1 87.43 1.3 86.51 86.51 0 0 1 174 87.74" fill="#c3d0e4" data-color="3"></path>
        <path d="M113.69 65A36.7 36.7 0 1 1 77 28.32 36.68 36.68 0 0 1 113.69 65" fill="#dbc500" data-color="4"></path>
        <path d="M77 102.65A37.69 37.69 0 1 1 114.73 65 37.75 37.75 0 0 1 77 102.65zm0-73.3A35.62 35.62 0 1 0 112.66 65 35.69 35.69 0 0 0 77 29.35z" fill="#231f20" data-color="5"></path>
        <path d="M163 45.92s25 37.77-1.95 85.93c-29 49.76-88.18 42.86-95 39.59 0 0-22.31-37.31.77-81.42s69.84-49.61 96.18-44.1" fill="#677718" data-color="6"></path>
        <path d="M2 87.06s-2.8 35.76 28.24 65.39c31.86 29.46 81 18.18 81 18.18s9.6-34.85-13.32-64.76C92.67 99.65 71.36 72 27.94 77.35c-14.28 3.9-6.93.05-26 9.71" fill="#005568" data-color="7"></path>
        <path d="M113 170.21l-2.06-.25c3.29-26.43 2.27-59.65-35-82.22s-74.25.14-74.62.37L.18 86.36C.56 86.12 38.61 62.75 77 86s39.35 57.17 36 84.21z" fill="#231f20" data-color="5"></path>
        <path d="M87.43 174.69a87.3 87.3 0 1 1 87.42-87.3 87.46 87.46 0 0 1-87.42 87.3zm0-172.52a85.23 85.23 0 1 0 85.35 85.22A85.39 85.39 0 0 0 87.43 2.17z" fill="#231f20" data-color="5"></path>
        <path d="M72.55 84.72l-1.79-1c.3-.5 30.41-50.43 92.62-38.77l-.38 2c-60.76-11.39-90.16 37.28-90.45 37.77z" fill="#231f20" data-color="5"></path>
        <path d="M89.7 97L88 95.83c.3-.43 31-42.42 84.11-26.66l-.58 2C119.82 55.81 90 96.61 89.7 97z" fill="#231f20" data-color="5"></path>
        <path d="M104.4 112.77l-1.64-1.26C103 111.16 130 77 173.83 91.88l-.66 2c-42.49-14.44-68.51 18.56-68.77 18.89z" fill="#231f20" data-color="5"></path>
        <path d="M111.83 134l-1.71-1.17c.21-.31 21.72-30.85 60-20.09l-.56 2c-36.81-10.31-57.56 19-57.73 19.26z" fill="#231f20" data-color="5"></path>
        <path d="M114.06 158.36l-1.78-1.07c.18-.29 18.07-29.52 48.35-26.22l-.22 2.06c-28.92-3.13-46.18 24.94-46.35 25.23z" fill="#231f20" data-color="5"></path>
        <path fill="#231f20" d="M325.64 131.86v2.07H193.29v-2.07h132.35z" data-color="5"></path>
        <path d="M197.22 22.11v12.76c0 4.29 1.79 6.27 4.49 6.27 2.88 0 4.61-2 4.61-6.27V22.11h4v12.51c0 6.75-3.47 9.74-8.73 9.74-5.07 0-8.35-2.83-8.35-9.71V22.11z" fill="#231f20" data-color="5"></path>
        <path d="M213.21 39.65a10.88 10.88 0 0 0 5.29 1.4c2.54 0 4-1.21 4-3s-1.1-2.63-3.86-3.64c-3.64-1.3-5.95-3.22-5.95-6.36 0-3.61 3-6.31 7.77-6.31a11.35 11.35 0 0 1 5.23 1.11l-.94 3.21a9.58 9.58 0 0 0-4.39-1c-2.53 0-3.6 1.34-3.6 2.63 0 1.69 1.26 2.48 4.19 3.61 3.8 1.43 5.62 3.35 5.62 6.5 0 3.54-2.67 6.59-8.29 6.59A12.55 12.55 0 0 1 212.3 43z" fill="#231f20" data-color="5"></path>
        <path d="M229.69 22.4a45.14 45.14 0 0 1 6.37-.45c4.09 0 6.88.84 8.9 2.53s3.44 4.36 3.44 8.06c0 3.93-1.33 6.82-3.41 8.7s-5.65 3-9.9 3a45.25 45.25 0 0 1-5.4-.29zm4 18.58a14.52 14.52 0 0 0 2.21.1c5.2 0 8.28-2.86 8.28-8.41 0-4.81-2.76-7.6-7.76-7.6a13.09 13.09 0 0 0-2.73.22z" fill="#231f20" data-color="5"></path>
        <path d="M254.41 37.8l-1.88 6.2h-4.13l7-21.89h5.1L267.63 44h-4.32l-2-6.2zm6.27-3L259 29.39c-.42-1.34-.78-2.83-1.11-4.1h-.06c-.33 1.27-.68 2.8-1 4.1l-1.69 5.39z" fill="#231f20" data-color="5"></path>
        <path d="M209 70.26a14.37 14.37 0 0 1-5.69 1c-6.95 0-11.17-4.36-11.17-11 0-7.21 5-11.56 11.73-11.56a12.42 12.42 0 0 1 5.29 1l-.84 3.19a10.88 10.88 0 0 0-4.29-.85c-4.45 0-7.67 2.8-7.67 8.06 0 4.84 2.8 7.89 7.64 7.89a12 12 0 0 0 4.35-.78z" fill="#231f20" data-color="5"></path>
        <path fill="#231f20" d="M224.22 61.17h-8.25v6.43h9.22v3.28h-13.22V48.99h12.73v3.28h-8.73v5.65h8.25v3.25z" data-color="5"></path>
        <path d="M227.62 49.13a33.7 33.7 0 0 1 6-.49c3.15 0 5.26.52 6.75 1.75a5.59 5.59 0 0 1 1.89 4.42 5.76 5.76 0 0 1-4 5.46v.1c1.59.58 2.53 2.11 3.06 4.22a53.25 53.25 0 0 0 1.72 6.11H239a28 28 0 0 1-1.47-5.17c-.65-2.86-1.65-3.77-3.93-3.83h-2v9h-4zm4 9.64H234c2.69 0 4.35-1.43 4.35-3.6 0-2.37-1.66-3.51-4.25-3.51a11.2 11.2 0 0 0-2.47.2z" fill="#231f20" data-color="5"></path>
        <path fill="#231f20" d="M249.66 52.33h-6.24v-3.34h16.53v3.34h-6.3v18.55h-3.99V52.33z" data-color="5"></path>
        <path fill="#231f20" d="M266.79 48.99v21.89h-3.99V48.99h3.99z" data-color="5"></path>
        <path fill="#231f20" d="M270.03 48.99h12.66v3.28h-8.67v6.04h8.06v3.25h-8.06v9.32h-3.99V48.99z" data-color="5"></path>
        <path fill="#231f20" d="M288.83 48.83v21.89h-3.99V48.83h3.99z" data-color="5"></path>
        <path fill="#231f20" d="M303.98 61.17h-8.25v6.43h9.22v3.28h-13.22V48.99h12.73v3.28h-8.73v5.65h8.25v3.25z" data-color="5"></path>
        <path d="M306.94 49.17a46.41 46.41 0 0 1 6.36-.45c4.09 0 6.89.84 8.9 2.53s3.45 4.35 3.45 8.06c0 3.93-1.34 6.82-3.41 8.7s-5.66 3-9.91 3a44.93 44.93 0 0 1-5.39-.29zm4 18.58a14.52 14.52 0 0 0 2.21.1c5.2 0 8.28-2.86 8.28-8.41 0-4.81-2.76-7.6-7.76-7.6a12.28 12.28 0 0 0-2.73.23z" fill="#231f20" data-color="5"></path>
        <path d="M193.26 76.19a33 33 0 0 1 5.85-.49c2.92 0 4.77.39 6.23 1.4a4.62 4.62 0 0 1 2.28 4.13 5.07 5.07 0 0 1-3.62 4.71V86a5.52 5.52 0 0 1 4.41 5.4 5.86 5.86 0 0 1-2.09 4.6c-1.56 1.33-4.13 2-8.15 2a41.42 41.42 0 0 1-4.91-.29zm4 8.64h2.05c2.79 0 4.32-1.3 4.32-3.15 0-2.08-1.56-3-4.1-3a11.49 11.49 0 0 0-2.27.16zm0 10a13.79 13.79 0 0 0 2.12.09c2.56 0 4.86-.94 4.86-3.63s-2.23-3.61-5-3.61h-2z" fill="#231f20" data-color="5"></path>
        <path fill="#231f20" d="M214.87 75.87v21.89h-4V75.87h4z" data-color="5"></path>
        <path d="M237.77 86.58c0 7.35-4.45 11.54-10.46 11.54-6.2 0-10.1-4.74-10.1-11.14 0-6.76 4.26-11.5 10.43-11.5 6.36 0 10.13 4.84 10.13 11.1m-16.34.3c0 4.48 2.25 8 6.08 8s6-3.6 6-8.19c0-4.12-2.05-8-6-8s-6.08 3.67-6.08 8.19" fill="#231f20" data-color="5"></path>
        <path d="M240.12 76.19a33 33 0 0 1 5.88-.49c2.93 0 4.78.39 6.24 1.4a4.62 4.62 0 0 1 2.27 4.13 5.06 5.06 0 0 1-3.63 4.71V86a5.52 5.52 0 0 1 4.41 5.4 5.86 5.86 0 0 1-2.11 4.6c-1.56 1.33-4.13 2-8.15 2a41.42 41.42 0 0 1-4.91-.29zm4 8.64h2c2.79 0 4.32-1.3 4.32-3.15 0-2.08-1.56-3-4.1-3a11.49 11.49 0 0 0-2.27.16zm0 10a13.71 13.71 0 0 0 2.11.09c2.57 0 4.88-.94 4.88-3.63s-2.25-3.61-5-3.61h-2z" fill="#231f20" data-color="5"></path>
        <path d="M262 91.56l-1.89 6.2H256l7-21.89h5.09l7.12 21.89h-4.32l-2-6.2zm6.27-3l-1.73-5.4c-.42-1.33-.77-2.82-1.1-4.09h-.06c-.33 1.27-.68 2.79-1 4.09l-1.69 5.4z" fill="#231f20" data-color="5"></path>
        <path d="M278.23 93.41a11.05 11.05 0 0 0 5.29 1.39c2.54 0 4-1.2 4-3s-1.1-2.63-3.86-3.63c-3.64-1.3-5.94-3.22-5.94-6.37 0-3.6 3-6.3 7.76-6.3a11.49 11.49 0 0 1 5.23 1.1l-.94 3.22a9.58 9.58 0 0 0-4.39-1c-2.53 0-3.6 1.33-3.6 2.63 0 1.69 1.26 2.47 4.19 3.61 3.8 1.43 5.62 3.34 5.62 6.49 0 3.54-2.67 6.6-8.29 6.6a12.58 12.58 0 0 1-5.94-1.4z" fill="#231f20" data-color="5"></path>
        <path fill="#231f20" d="M306.3 88.05h-8.25v6.43h9.22v3.28h-13.21V75.87h12.73v3.28h-8.74v5.65h8.25v3.25z" data-color="5"></path>
        <path d="M309.69 76.16a44.75 44.75 0 0 1 6.36-.46c4.09 0 6.89.85 8.9 2.54s3.45 4.35 3.45 8.05c0 3.93-1.34 6.82-3.41 8.71s-5.66 3-9.91 3a42.59 42.59 0 0 1-5.39-.3zm4 18.58a14.52 14.52 0 0 0 2.21.1c5.2 0 8.28-2.86 8.28-8.42 0-4.8-2.76-7.6-7.76-7.6a13 13 0 0 0-2.73.23z" fill="#231f20" data-color="5"></path>
        <path d="M193.26 103a35.06 35.06 0 0 1 6.11-.46c2.92 0 5 .62 6.43 1.79a6.17 6.17 0 0 1 2.14 4.84 6.68 6.68 0 0 1-1.85 4.94 9.74 9.74 0 0 1-6.92 2.37 8.73 8.73 0 0 1-1.95-.17v8.29h-4zm4 10.16a6.41 6.41 0 0 0 1.95.2c3 0 4.81-1.49 4.81-4s-1.69-3.7-4.45-3.7a11.76 11.76 0 0 0-2.31.19z" fill="#231f20" data-color="5"></path>
        <path d="M210.32 103.07a34.53 34.53 0 0 1 6-.49c3.15 0 5.26.52 6.76 1.76a5.56 5.56 0 0 1 1.88 4.41 5.75 5.75 0 0 1-4 5.46v.1c1.59.58 2.53 2.11 3.05 4.22a55.47 55.47 0 0 0 1.72 6.11h-4.09a27.75 27.75 0 0 1-1.47-5.17c-.64-2.85-1.65-3.76-3.92-3.83h-2v9h-4zm4 9.65h2.37c2.7 0 4.36-1.43 4.36-3.61 0-2.37-1.66-3.5-4.26-3.5a11.49 11.49 0 0 0-2.47.19z" fill="#231f20" data-color="5"></path>
        <path d="M247.13 113.46c0 7.34-4.45 11.53-10.46 11.53-6.2 0-10.1-4.74-10.1-11.14 0-6.75 4.25-11.49 10.42-11.49 6.37 0 10.14 4.84 10.14 11.1m-16.34.3c0 4.48 2.24 8 6.07 8s6-3.61 6-8.19c0-4.12-2-8-6-8s-6.07 3.67-6.07 8.19" fill="#231f20" data-color="5"></path>
        <path d="M249.48 103a44.75 44.75 0 0 1 6.36-.46c4.09 0 6.89.85 8.9 2.54s3.44 4.35 3.44 8c0 3.93-1.33 6.82-3.41 8.71s-5.65 3-9.9 3a44.57 44.57 0 0 1-5.39-.3zm4 18.58a16.12 16.12 0 0 0 2.21.09c5.2 0 8.28-2.85 8.28-8.41 0-4.8-2.76-7.6-7.76-7.6a12.93 12.93 0 0 0-2.73.23z" fill="#231f20" data-color="5"></path>
        <path d="M274.53 102.75v12.76c0 4.29 1.78 6.27 4.48 6.27 2.89 0 4.61-2 4.61-6.27v-12.76h4v12.5c0 6.76-3.48 9.74-8.74 9.74-5.07 0-8.35-2.82-8.35-9.71v-12.53z" fill="#231f20" data-color="5"></path>
        <path d="M306.79 124a14.64 14.64 0 0 1-5.69 1c-7 0-11.17-4.35-11.17-11 0-7.21 5-11.56 11.72-11.56a12.47 12.47 0 0 1 5.3 1l-.84 3.19a10.7 10.7 0 0 0-4.29-.85c-4.45 0-7.67 2.8-7.67 8.06 0 4.84 2.8 7.89 7.63 7.89a12.23 12.23 0 0 0 4.36-.78z" fill="#231f20" data-color="5"></path>
        <path fill="#231f20" d="M315.35 106.09h-6.24v-3.34h16.53v3.34h-6.29v18.55h-4v-18.55z" data-color="5"></path>
        <path d="M192.92 140.4a19.82 19.82 0 0 1 3.39-.25 5.51 5.51 0 0 1 3.59 1 3.45 3.45 0 0 1 1.19 2.69 3.65 3.65 0 0 1-1.05 2.75 5.33 5.33 0 0 1-3.84 1.3 6.74 6.74 0 0 1-1.08-.07v4.57h-2.2zm2.2 5.66a4.57 4.57 0 0 0 1.08.09c1.66 0 2.67-.81 2.67-2.23s-.94-2.08-2.47-2.08a6.46 6.46 0 0 0-1.28.11z" fill="#231f20" data-color="5"></path>
        <path d="M201.55 140.4a21.66 21.66 0 0 1 3.35-.25 5.66 5.66 0 0 1 3.75 1 3.08 3.08 0 0 1 1 2.44 3.24 3.24 0 0 1-2.2 3v.05a3.11 3.11 0 0 1 1.69 2.35 22.85 22.85 0 0 0 1 3.38h-2.29a17 17 0 0 1-.81-2.86c-.34-1.59-.92-2.09-2.18-2.13h-1.12v5h-2.2zm2.2 5.37h1.32c1.49 0 2.43-.79 2.43-2s-.94-1.94-2.38-1.94a6.94 6.94 0 0 0-1.37.1z" fill="#231f20" data-color="5"></path>
        <path d="M221.49 146.19c0 4.07-2.46 6.39-5.81 6.39s-5.59-2.61-5.59-6.18c0-3.73 2.34-6.36 5.77-6.36s5.63 2.69 5.63 6.15zm-9.06.18c0 2.46 1.25 4.43 3.37 4.43s3.35-2 3.35-4.52c0-2.29-1.13-4.45-3.35-4.45s-3.37 2.03-3.37 4.54z" fill="#231f20" data-color="5"></path>
        <path d="M222.32 140.4a22.75 22.75 0 0 1 3.53-.25 7.4 7.4 0 0 1 5 1.41 5.41 5.41 0 0 1 1.85 4.44 6.28 6.28 0 0 1-1.89 4.83 8.12 8.12 0 0 1-5.5 1.66 24.36 24.36 0 0 1-3-.16zm2.22 10.29a8.87 8.87 0 0 0 1.22.05c2.89 0 4.6-1.56 4.6-4.64 0-2.69-1.53-4.22-4.31-4.22a6.55 6.55 0 0 0-1.51.13z" fill="#231f20" data-color="5"></path>
        <path d="M235.74 140.24v7.08c0 2.38 1 3.48 2.49 3.48s2.56-1.1 2.56-3.48v-7.08H243v6.94c0 3.75-1.92 5.4-4.84 5.4s-4.63-1.56-4.63-5.38v-7z" fill="#231f20" data-color="5"></path>
        <path d="M253.16 152a7.64 7.64 0 0 1-3.13.54c-3.86 0-6.2-2.41-6.2-6.1a6.12 6.12 0 0 1 6.49-6.42 7.05 7.05 0 0 1 3 .54l-.49 1.77a5.86 5.86 0 0 0-2.37-.47c-2.47 0-4.26 1.55-4.26 4.47 0 2.67 1.57 4.38 4.24 4.38a6.16 6.16 0 0 0 2.41-.45z" fill="#231f20" data-color="5"></path>
        <path d="M258.1 142.1h-3.46v-1.86h9.17v1.86h-3.5v10.28h-2.21z" fill="#231f20" data-color="5"></path>
        <path d="M271.57 142.67l-2.14 1.08-.38-1.67 2.85-1.41h1.85v11.71h-2.14z" fill="#231f20" data-color="5"></path>
        <path d="M283.62 146.46c0 3.76-1.48 6.12-4.27 6.12s-4.14-2.45-4.16-6 1.55-6.08 4.29-6.08 4.14 2.5 4.14 5.96zm-6.2.1c0 2.85.78 4.33 2 4.33s2-1.59 2-4.4-.65-4.32-2-4.32-2.01 1.46-2 4.39z" fill="#231f20" data-color="5"></path>
        <path d="M292.55 146.46c0 3.76-1.47 6.12-4.26 6.12s-4.15-2.45-4.17-6 1.55-6.08 4.29-6.08 4.14 2.5 4.14 5.96zm-6.19.1c0 2.85.77 4.33 2 4.33s2-1.59 2-4.4-.65-4.32-2-4.32-2.02 1.46-2 4.39z" fill="#231f20" data-color="5"></path>
        <path d="M299.35 144c0 2.47-1.45 3.71-3.05 3.71s-3-1.26-3-3.51 1.28-3.67 3.08-3.67 2.97 1.31 2.97 3.47zm-4.35.13c0 1.35.47 2.34 1.35 2.34s1.32-.94 1.32-2.36-.36-2.34-1.32-2.34-1.35.99-1.35 2.31zm1.34 8.5l6.79-12.1h1.26l-6.79 12.1zm11.08-3.76c0 2.45-1.43 3.71-3.05 3.71s-3-1.26-3-3.53 1.28-3.68 3.06-3.68 2.99 1.34 2.99 3.45zm-4.35.12c0 1.34.47 2.35 1.36 2.35s1.31-.94 1.31-2.37-.36-2.34-1.31-2.34-1.36 1-1.36 2.31z" fill="#231f20" data-color="5"></path>
    </g>
</svg>