<svg preserveAspectRatio="xMidYMid meet" data-bbox="-0.001 0.004 253.387 239.151" viewBox="-0.001 0.004 253.387 239.151" xmlns="http://www.w3.org/2000/svg" data-type="color" role="img" aria-label="Marine oil absorbents">
    <g>
        <defs>
            <clipPath id="10430cc3-f08a-4d0e-885b-b60184c9f210_comp-komyrnrm">
                <path d="M253.43 0v239.14H0V0h253.43z"></path>
            </clipPath>
        </defs>
        <g>
            <g clip-path="url(#10430cc3-f08a-4d0e-885b-b60184c9f210_comp-komyrnrm)">
                <g>
                    <path d="M93.63 86.39c.48-4.08-.64-7.82-2.22-11.41a9.41 9.41 0 0 0-4.16-4.41c-1-.58-2-1.3-3-1.89-3.29-1.92-3.45-5-3.27-8.39a20 20 0 0 1 1.68-6.11 8 8 0 0 0 .34-4.54 45.55 45.55 0 0 1-.6-6.16 27.15 27.15 0 0 0-1.74-7.95 23.5 23.5 0 0 1-1-4.47c-.42-2.88-1.35-5.68-1.31-8.64 0-2.42-.41-4.8-.57-7.21a24.25 24.25 0 0 1 2.5-12.62c1.47-2.91 3.47-3.35 5.9-1.39a7.36 7.36 0 0 1 2.48 3.36 36.29 36.29 0 0 1 2 7.6c.92 7.53.7 15.16 1.87 22.64 1 6.29 2 12.56 4.43 18.53a50.69 50.69 0 0 1 3.77 13.78 25.79 25.79 0 0 0 2.07 7.36 4.77 4.77 0 0 0 2.27 2.59c.81.39 1.62.78 2.42 1.19a8.65 8.65 0 0 1 5 7.54c.26 3.66 0 7.18-1.87 10.42s-2.48 7.28-2.7 11.06c-.18 3.19.61 6.46 1.13 9.67a69.18 69.18 0 0 0 1.56 7c1.53 5.67 2.73 11.46 5.33 16.74a6.24 6.24 0 0 0 .86 1.24c1.1 1.25 2.14 1.21 3.2-.13a15.23 15.23 0 0 0 2-4 28.42 28.42 0 0 0 2-7.12c.27-2 .68-4.07.93-6.11a10.76 10.76 0 0 0-1.87-7.78 20.32 20.32 0 0 1-2.58-4.9 11.56 11.56 0 0 1-.19-6.28 14 14 0 0 1 4.52-7.88 10.23 10.23 0 0 0 3.27-8.18c-.06-2.65.16-5.28-.67-7.92a4.7 4.7 0 0 0-3.78-3.41c-.47-.11-1-.14-1.44-.26a4.1 4.1 0 0 1-3.37-4.33 21.94 21.94 0 0 1 .62-5.59 15.83 15.83 0 0 0-.8-10.8 6.74 6.74 0 0 0-2.11-2.7c-3.74-2.5-6.49-6-9.3-9.56-3.19-4-6.54-7.91-9.39-12.2A22.15 22.15 0 0 1 94 24.61c-.45-2.35.36-4.41.56-6.6a1.44 1.44 0 0 1 .92-1.14c2.84-.9 5.65-1.23 8.27.78a23.07 23.07 0 0 1 7 9.43 37.53 37.53 0 0 0 2.8 6c.66 1 1.45 1.2 2.25.66a10.62 10.62 0 0 1 6.09-1.91c1.36 0 2.06-.93 2.15-2.55a20.54 20.54 0 0 0-.44-6.68c-.88-3.11-.18-6 .53-8.88A19.18 19.18 0 0 1 127 6.89c.1-.13.09-.36.2-.46 1.24-1.08 2.18-3.08 4.12-2.45a5.8 5.8 0 0 1 3.56 4.16c1.44 4.63.63 9.21-.36 13.73a63.85 63.85 0 0 1-1.36 6.25 3.09 3.09 0 0 0 1.49 3.66 24.67 24.67 0 0 1 3.07 2.41 7.78 7.78 0 0 1 2.09 8.43 46.75 46.75 0 0 0-1.56 16.81 15.81 15.81 0 0 0 2 6.27c1.12 2.1 2.55 2.14 3.55 0a30.51 30.51 0 0 0 2.32-7.23c.22-1.09.43-2.18.69-3.26a70.11 70.11 0 0 0 1.3-7.32c.45-3.64-.75-7-2.24-10.12-2.36-5 .22-11.16 5.9-11.4a4 4 0 0 1 .49 0c2.83.23 4.28-1.46 5.06-4.09a72.11 72.11 0 0 1 3.36-8.73c1.53-3.44 3.9-5.63 7.71-5.44 4.26.2 6.13 3.5 5.62 7.25a40.33 40.33 0 0 1-3 9.72c-1.53 3.74-3.74 7.07-5.68 10.56-2.64 4.78-4.06 10-5.7 15.2a8.58 8.58 0 0 0 .2 5.09c1.43 4.62 1 9.36.54 14.07a8.16 8.16 0 0 1-1.73 3.6 43.34 43.34 0 0 1-5.09 6.06 19.32 19.32 0 0 0-4.55 6.53q-2.39 5.86-4.57 11.8a38 38 0 0 0-1.14 4.71c-1.14 5.07-3 9.87-4.62 14.77a57.62 57.62 0 0 0-1.54 7 5.83 5.83 0 0 0 1.05 4.41c1.12 1.61 1.27 3.5 1.73 5.28.58 2.18-.29 4.29-1.15 6.19a27.76 27.76 0 0 1-3 4.64 17.18 17.18 0 0 0-2.88 6.33c-2.1 9.07-2.67 18.3-2.88 27.58a42.08 42.08 0 0 1-.65 7.44 13.19 13.19 0 0 0 .22 6.15 26.65 26.65 0 0 1 .47 5.12 9 9 0 0 0 1.55 4.49c2.36 3.34 5.18 4 8.37 1.62a23.93 23.93 0 0 0 8.43-10.27c.83-2.05 1.82-4 2.59-6.09a4.41 4.41 0 0 0-.62-4.77 16.53 16.53 0 0 1-3.55-5.76c-1.6-5.32-1.81-10.6 1.14-15.3 2.73-4.36 3-8.69 1.65-13.48a28.76 28.76 0 0 1-.68-4.32c-.59-4.94-1.64-9.82-1.9-14.82-.11-2.22-.85-4.34-1.13-6.56-.78-6 1.08-10.11 6.19-12.76a5.53 5.53 0 0 0 3.3-5.56 19.37 19.37 0 0 1 4-12.06 8.13 8.13 0 0 1 3-2.54 4 4 0 0 1 5.19 2.19.49.49 0 0 1 0 .11 9.6 9.6 0 0 1 .5 6.55c-.66 2.4-.75 4.88-1.41 7.28-.52 1.86-1.06 3.76-1.5 5.66-1.46 6.23-3.17 12.39-4.78 18.58-.51 2-1.27 3.87-1.23 6 0 1.34.1 2.5 1.23 3.41 1.48 1.19 2.13 3 2.76 4.77a6.19 6.19 0 0 1-.2 3.78 20.48 20.48 0 0 0 .62 13.12c.3.8.82 1.68 1.65 1.62s1.1-1 1.53-1.73c.83-1.48.82-3.14 1.17-4.69 1.07-4.73 2.58-9.36 2.72-14.3.07-2.52-.39-4.68-2.21-6.45-2.82-2.72-2.28-6.25-1.69-9.61.53-3 2-5.51 4.9-6.73a3.06 3.06 0 0 0 1.72-2.63 16.79 16.79 0 0 0 .15-2.83 16.8 16.8 0 0 1 2.91-10.12 60.49 60.49 0 0 1 6.19-8.08c2-2.23 5-1.59 6.32 1.11a5.71 5.71 0 0 1 .64 4.2c-.76 2.64-.64 5.43-1.52 8.07-1.11 3.3-1.76 6.78-2.76 10.13-1.08 3.6-1.73 7.3-2.49 11-.41 2-.12 3.76 1.55 5a4.29 4.29 0 0 1 .56.48c3.21 3.44 3.35 4.72 1 8.93a16.69 16.69 0 0 1-2.12 3.38 17.66 17.66 0 0 0-4.46 8.59c-1.08 5.24-3.28 10.11-5.14 15.1-1.56 4.21-3.43 8.25-5.37 12.28a17 17 0 0 0-1.08 4.44 2 2 0 0 0 .94 2c.66.4 1.3 0 1.93-.54 2.21-1.93 3.62-4.52 5.09-7a104.32 104.32 0 0 1 7.62-11.33 11.54 11.54 0 0 1 4.38-3.55c1.56-.7 3.12-1.4 4.72-2 2.93-1.13 5.14.25 5.67 3.56a9.85 9.85 0 0 1-.85 6.25c-1.21 2.3-2.22 4.72-4.27 6.41-1.3 1.07-1.39 2.65-1 4.21a12.09 12.09 0 0 1-1.2 8.68c-1.45 2.82-3.48 4.85-6.79 5.33-2.76.4-5.15 2-7.48 3.73-4.25 3.06-7.87 6.93-11.86 10.32a46.51 46.51 0 0 1-9.11 6.11q-4.34 2.17-8.72 4.2a21.56 21.56 0 0 1-4.19 1c-3.94.93-7.48 3-11.27 4.21-3.6 1.2-7.23 1.84-11.16.56-4.16-1.35-8.21-2.71-11.71-5.49a23.47 23.47 0 0 1-3.4-3.13 8.41 8.41 0 0 0-6.51-2.89 10.54 10.54 0 0 1-5.72-1.82c-3.76-2.62-5.08-6-4.21-10a10.46 10.46 0 0 0-1.62-8.29 25.46 25.46 0 0 0-4.2-5.22 8.26 8.26 0 0 0-5.18-2.35 7 7 0 0 1-6.58-7.46v-.18a4.59 4.59 0 0 0-1.92-4.14c-2-1.8-4.35-3.13-6.36-5a53.66 53.66 0 0 1-8.39-10.65 10.85 10.85 0 0 1-1.26-3.58 4.29 4.29 0 0 1 2.88-4.61c3.46-1.12 6.15.34 8.45 3 1.12 1.29 2.24 2.6 3.28 4a6.82 6.82 0 0 0 2.63 2.1c2.23 1.05 4.13.24 4.8-2.27a16.22 16.22 0 0 0 0-7.17 4.44 4.44 0 0 0-1.89-2.56 53.41 53.41 0 0 1-4.48-4.16 8.64 8.64 0 0 1-.07-11.72c2.35-2.24 1.91-5 1.07-7.6-.9-2.8-2.14-5.48-3-8.3a11.74 11.74 0 0 1-.06-6.82c.18-.66.36-1.31.5-2a5.54 5.54 0 0 1 3.8-4.52c2.13-.65 3.67.88 5 2.29a10.22 10.22 0 0 1 2.13 4.28c.9 3.19 1.4 6.5 2.23 9.7s1.61 6.37 2.32 9.61c.81 3.75 1.84 7.43 2.69 11.16.53 2.3.68 4.73 1.79 6.9a6.22 6.22 0 0 0 2.63 2.9c3.73 1.9 5.53 5.25 6.37 9.34a5.21 5.21 0 0 1 .08 1.8c-.38 2.53-.68 5.09-1.28 7.57a23 23 0 0 0-.14 10.22c.42 1.94.4 4.07 1.58 5.87a4.81 4.81 0 0 0 2.22 2.17c.76.28 1.48.71 2.26.92a8.91 8.91 0 0 1 5.66 5.22 26 26 0 0 0 3.25 4.67c.94 1.22 1.65 1.17 2.57-.07 1.77-2.4 3-5.07 2.75-8.24-.31-3.5-.18-7-1-10.51-.64-2.65-.69-5.44-1.27-8.14a29.83 29.83 0 0 0-6-13.21 25.82 25.82 0 0 1-4.35-7.27 16.9 16.9 0 0 1-.63-8.61A30.49 30.49 0 0 0 96 123.34c-5.43-7.52-12.41-13.4-19.18-19.49-1.95-1.75-4.44-2.37-6.8-3.27-2.12-.81-4.4-1-6.51-1.89A5.63 5.63 0 0 1 60 93.94a16.4 16.4 0 0 1 .53-7.4 7.25 7.25 0 0 0 0-4.05c-1-4.06-2.29-8-3.62-11.92A50.39 50.39 0 0 1 54.48 61c-.68-5.12-.94-10.28.64-15.3a5.09 5.09 0 0 1 6.58-2.89c.22.09.43.19.64.3a9 9 0 0 1 4 6c.71 3.43 1.27 6.89 2 10.31A64.51 64.51 0 0 0 78.43 84c1.24 1.77 2.78 2.76 4.94 2.48a9.68 9.68 0 0 1 1.94 0 4.06 4.06 0 0 1 4 3.42c.32 1.53 1.23 2.82 1.33 4.4a.8.8 0 0 0 .72.86c.59.06.8-.3 1.07-.8 1.37-2.53 1-5.34 1.2-8" fill="#ff533c" data-color="1"></path>
                </g>
                <g>
                    <path d="M64.9 155.6c-34.84 0-57.78-22.34-58.76-23.31a2.39 2.39 0 0 1-.22-3.1c19.69-26.42 42.49-41.26 67.77-44.12 40-4.53 71.51 22.35 72.83 23.5a2.38 2.38 0 0 1 .21 3.36c-25.2 28.11-51.89 42.79-79.32 43.63H64.9m-54.18-25.25c5.74 5 27.21 21.55 56.62 20.63 25.58-.81 50.63-14.37 74.46-40.32C134.5 105 106.89 86 74.12 89.68c-23.47 2.67-44.79 16.32-63.4 40.63" fill="#2b2e34" data-color="2"></path>
                </g>
                <g>
                    <path d="M144.84 110.37a56.18 56.18 0 0 1 3.47-5.17l1.08-1.36 1-1.18q1-1.18 2-2.31A63.1 63.1 0 0 1 161 92l.41-.3a1.88 1.88 0 0 1 2.63.37.86.86 0 0 1 .07.1 2.11 2.11 0 0 1 .35.94c.33 3.07.44 6.19.86 9.24a59.56 59.56 0 0 0 2.07 9c.92 2.93 2 5.81 3 8.73s1.71 5.88 2.54 8.83a2.71 2.71 0 0 1-1.76 3.34 2.43 2.43 0 0 1-2.14-.34l-.22-.15c-2.31-1.6-4.67-3.23-6.88-5s-4.36-3.64-6.38-5.52-3.95-3.74-5.76-5.55-3.5-3.57-5-5.22m.53 0l7.66 4.32c2.4 1.37 4.71 2.68 6.88 4s4.27 2.63 6.26 4 3.85 3 5.75 4.53l-4.12 2.85c-.5-3-1.06-6-1.42-9.1s-.57-6.16-1-9.21a59.87 59.87 0 0 0-1.9-9c-.9-2.93-2.11-5.79-3.1-8.7l3.45 1.1a63.66 63.66 0 0 1-8.65 8.41c-.78.64-1.56 1.27-2.36 1.88l-1.2.92c-.4.3-.71.49-1.08.74-1.43.93-3.2 1.83-5.2 3.22" fill="#2b2e34" data-color="2"></path>
                </g>
                <g>
                    <path d="M24.19 124.93c-.25-2.53 2.36-4.85 2.36-4.85 2.7 1.18 3.54 5.35 1.52 7.36 0 0-3.48 1.62-3.88-2.51" fill="#000000" data-color="3"></path>
                </g>
                <g>
                    <path d="M70.88 67.17a48.06 48.06 0 0 0 32.17 4c10.67-2.39 20.93-8.3 29.57-17.37.78-.83 1.89-.57 2.46.56a3.5 3.5 0 0 1 .33 1.74v.14a13.72 13.72 0 0 0 2.28 8.55 12.58 12.58 0 0 0 6.09 4.89 8 8 0 0 0 3.46.47 13.37 13.37 0 0 0 3.65-.73 31 31 0 0 0 7.23-3.8c4.77-3.2 9.71-7.42 15.56-9.38a15.68 15.68 0 0 1 9.29-.53 15.44 15.44 0 0 1 4.56 2.29c1.35 1 2.5 1.94 3.52 2.58a5.1 5.1 0 0 0 2.74.91 6.48 6.48 0 0 0 3-.77c2.18-1 4.57-2.93 7.36-4.52a16 16 0 0 1 4.59-1.73 14.32 14.32 0 0 1 4.71-.06 29.55 29.55 0 0 1 8.46 2.9c2.64 1.23 5.14 2.5 7.63 3.39a31.93 31.93 0 0 0 7.73 1.6 33.47 33.47 0 0 0 7.93-.46 36.39 36.39 0 0 0 7.8-2.62c.15-.07.32.05.37.28a.56.56 0 0 1-.13.51 31 31 0 0 1-16 6.91 28.2 28.2 0 0 1-8.55-.35 57.47 57.47 0 0 1-8.2-2.51 30 30 0 0 0-7.49-1.83 10.28 10.28 0 0 0-6.69 1.84c-2.26 1.36-4.61 3.48-7.61 5a11 11 0 0 1-5 1.27 9.23 9.23 0 0 1-5.15-1.81c-1.45-1-2.64-2.08-3.72-2.89a11 11 0 0 0-3.09-1.7 11.76 11.76 0 0 0-7 0c-4.9 1.21-9.6 4.82-14.78 7.95a33.78 33.78 0 0 1-8.22 3.82 16.43 16.43 0 0 1-4.47.65 11.48 11.48 0 0 1-4.62-.88 17.12 17.12 0 0 1-7.84-6.9 21 21 0 0 1-3-13l2.85 2.42c-9.35 9.17-20.26 14.64-31.33 16.29A49.9 49.9 0 0 1 70.67 68a.5.5 0 0 1-.17-.55c.06-.21.23-.32.38-.25" fill="#91d9ff" data-color="4"></path>
                </g>
                <g>
                    <path d="M217.32 190.55a64.22 64.22 0 0 1-31.44-.13 72.75 72.75 0 0 1-28.89-15 1.49 1.49 0 0 0-2.09.19 1.65 1.65 0 0 0-.26.44 2.83 2.83 0 0 0-.27 1.34v.08a11.45 11.45 0 0 1-4.67 9.49c-2.73 2-6.25 2.33-9.7 1.85a65.29 65.29 0 0 1-20.79-7.66 76.56 76.56 0 0 1-9.61-6.47c-1.55-1.2-3-2.5-4.52-3.83l-2.27-2.13a12.45 12.45 0 0 0-3.15-2.17 5 5 0 0 0-4.9.25 9 9 0 0 0-3.12 4.14c-.53 1.3-.88 2-1.32 2.85a19.59 19.59 0 0 1-1.46 2.35 20 20 0 0 1-3.67 3.8 22.12 22.12 0 0 1-4.42 2.56 23.14 23.14 0 0 1-9.85 1.83 31.09 31.09 0 0 1-10.08-2.12c-6.76-2.47-13.39-6.62-20.33-10.45q-2.62-1.43-5.3-2.73a15.5 15.5 0 0 0-3.13-1.22 6 6 0 0 0-4.1.33c-2.8 1.47-3.93 4.07-5.06 5.58a13.61 13.61 0 0 1-3.77 3.6c-5.86 3.45-14.38 1.6-18.54-6.32a.29.29 0 0 0-.38-.17l-.08.05a.5.5 0 0 0-.12.53 17.13 17.13 0 0 0 8.48 10 14 14 0 0 0 12 .47 15.67 15.67 0 0 0 5.52-4.23c1.46-1.85 2.65-3.37 3.47-3.52.67-.24 1.93.21 3.58 1.24s3.3 2 4.94 3.08c6.59 4.2 13.24 9.07 20.82 12.08a32.51 32.51 0 0 0 12 2.57A28.56 28.56 0 0 0 83 190.45a25.74 25.74 0 0 0 10.48-9.14 29 29 0 0 0 1.91-3.4c.55-1.16 1.13-2.56 1.44-3.4a5.17 5.17 0 0 1 .56-1.13s0-.13.53 0c1 .32 2.46 1.77 4.11 3.17s3.26 2.65 4.94 3.86a79.78 79.78 0 0 0 10.38 6.44 67.35 67.35 0 0 0 22.32 7.18c3.92.35 8.23 0 12-3a16.28 16.28 0 0 0 4.56-5.78 16.47 16.47 0 0 0 1.58-8.26l-2.61 2A72.57 72.57 0 0 0 185.53 193a65.2 65.2 0 0 0 31.93-1.64.45.45 0 0 0 .25-.51c-.05-.23-.22-.37-.39-.32" fill="#91d9ff" data-color="4"></path>
                </g>
                <g>
                    <path d="M209.11 176.76c-2.55-.35-5.26.12-8 .12a17.38 17.38 0 0 1-5-1.21 4.21 4.21 0 0 0-.84-.3 18.94 18.94 0 0 0-9.15 1.23 39.58 39.58 0 0 1-6.2 1.89 40.71 40.71 0 0 1-8.46.74c-2.22.06-4.2 1.1-6.23 1.89a25.88 25.88 0 0 1-8.33 2.16A6.13 6.13 0 0 0 151 187a17.93 17.93 0 0 1-2.71 3.71 34.85 34.85 0 0 0-4.21 6.88 18.59 18.59 0 0 1-4.85 6.4 35.22 35.22 0 0 0-6.43 7 36.85 36.85 0 0 0-3.83 7.76 5.34 5.34 0 0 0-.75 2.66c0 .19.05.36.27.43a.37.37 0 0 0 .46-.16c1.45-1.73 2.91-3.45 4.34-5.2 1-1.21 1.06-2.89 1.87-4.22 1.89-3.1 3.79-6.18 6.93-8.09a8.19 8.19 0 0 1 3.86-1.27 20.69 20.69 0 0 0 6.79-1.62 8.89 8.89 0 0 0 3.1-2.51 14.65 14.65 0 0 1 7.15-4.36 11.13 11.13 0 0 1 6.94.27 2.34 2.34 0 0 0 .5.19c2.64.13 5.2 1.38 7.87.81 2.25-.48 4.51-.59 6.78-.85a9.59 9.59 0 0 0 3.77-1.54 25.21 25.21 0 0 0 3.45-2.34 9.22 9.22 0 0 1 5-2.07 38.48 38.48 0 0 1 5.78-.43 34.61 34.61 0 0 0 8-1.1 10.67 10.67 0 0 1 4.5-.12 31.42 31.42 0 0 1 3.71.8c2 .66 4 .95 6 1.5a6.92 6.92 0 0 1 4.71 3.7c.9 1.86.46 4.8-.83 5.92a4 4 0 0 1-3.09.84c-3-.25-5.93-.11-8.84-.8a14.37 14.37 0 0 0-1.62-.24c-3-.35-5.76 0-8.23 2.32-2.68 2.48-6.09 3.68-9.49 4.83a65.32 65.32 0 0 0-8 3.31 19.34 19.34 0 0 1-7.1 2 65.89 65.89 0 0 1-11.41.19c-1.14-.12-2.19-.62-3.37-.64a77.07 77.07 0 0 0-8.84.84 11.43 11.43 0 0 0-4.65 1.71 7.47 7.47 0 0 1-4.42 1.28 11.38 11.38 0 0 0-6 1.54 13.47 13.47 0 0 0-2.55 1.76c-2.14 1.85-4.78 3-6.71 5.17a50.15 50.15 0 0 0-3.4 4.8c-2.27 3.33-4.66 6.57-7 9.87-.51.72-1.18 1.45-2.09 1.16a2.43 2.43 0 0 1-1.71-2.18A24.71 24.71 0 0 0 118 230c-1.18-2.46-2.74-4.8-3.11-7.57A28.54 28.54 0 0 0 113 216c-.54-1.43-1.27-2.76-1.7-4.27a8.18 8.18 0 0 1-.24-3.34 14.76 14.76 0 0 0-.73-6.66A7.19 7.19 0 0 1 111 196a15.56 15.56 0 0 0 1.45-7.27 10.07 10.07 0 0 1 1.66-5.66 14.36 14.36 0 0 0 1.46-3 25.64 25.64 0 0 1 5.49-8.64c2.16-2.38 4.33-4.77 6.68-6.94a7.15 7.15 0 0 0 2.41-4.63 11.34 11.34 0 0 1 1.74-5c1.24-1.94 2-4.11 3.1-6.14a32.14 32.14 0 0 1 2.68-3.94 85.71 85.71 0 0 0 4.92-8.45c1.31-2.36 2.26-5 4.17-7a9.24 9.24 0 0 1 3.75-2.25 52 52 0 0 1 7.49-1.88c3-.58 5.63-2 8.35-3.36a17 17 0 0 1 7-1.77c1.63 0 3.26 0 4.9-.1 2.73-.1 5.14 1 7.56 2.11s4.79 2.65 7.56 3a2.65 2.65 0 0 0 2.7-1 12.65 12.65 0 0 0 .92-1.16 14 14 0 0 1 6.63-5.72 22.45 22.45 0 0 1 2.78-.77c2.6-.76 5.26-1.29 7.91-1.86a10.66 10.66 0 0 0 6.2-3.9 21 21 0 0 1 7.57-5.86 9.11 9.11 0 0 1 5.87-.5c2.07.41 2.87 2.24 2.1 4.29a11.58 11.58 0 0 1-2.76 4.33 68.26 68.26 0 0 0-5.46 6.19c-2.33 2.92-5.41 4.82-8.59 6.56q-4.32 2.35-8.6 4.77a8 8 0 0 0-2.49 2.12c-.76 1-.68 2 .42 2.45 1.6.65 3.27 1.19 4.89 1.78s3.47.34 5.05 1.2a1.41 1.41 0 0 0 .7.13c3.29 0 6.4 1 9.56 1.75a8.28 8.28 0 0 1 6 5.26 6 6 0 0 1-2.81 7.36 6.78 6.78 0 0 1-3.48.77c-2-.08-4.1.34-6-.75a7.3 7.3 0 0 1-2-1.28 9.63 9.63 0 0 0-5.08-2.63c-3-.74-5.93-1.41-9-1.86-2.22-.34-4.63-.46-6.61-2a2.46 2.46 0 0 0-2.92 0c-3.29 2.1-7 3.14-10.62 4.23a19.48 19.48 0 0 1-4.4 1 10.71 10.71 0 0 0-3.1 1c-2.59 1-5.32 1.62-7.73 3.07-3.45 2.07-6.79 4.3-9 7.94a18.64 18.64 0 0 0-1.75 4.32c-.33 1.07-.53 2.18-.9 3.25-.61 1.79 0 2.63 1.8 2.76a7.62 7.62 0 0 0 4-.69c2.77-1.35 5.56-2.82 8.62-3.26a28.83 28.83 0 0 1 8.14.12 56.72 56.72 0 0 0 15 .22c1.8-.23 3.62-.32 5.38-.68a46.37 46.37 0 0 0 4.48-1.23 43.84 43.84 0 0 0 5-1.87 18.66 18.66 0 0 1 9.71-1.36 14.21 14.21 0 0 1 5.87 2.07 5.63 5.63 0 0 1 1.86 2.16 2.07 2.07 0 0 1-.28 2.58 7.33 7.33 0 0 1-1.77 1.56c-2.12 1.56-3.95 3.56-6.55 4.42a9.38 9.38 0 0 1-2.41.55c-3 .15-5.92-.08-9.06-.16m-90.69 33.65c.27 2.69.38 5.41.87 8a13.47 13.47 0 0 0 1.18 4.32c.15.25.1.66.53.63s.38-.41.42-.7a49.76 49.76 0 0 0 .68-6.57 13.19 13.19 0 0 1 .22-2.25c.49-2.77 1-5.55 1.36-8.34.57-4.4.43-8.92 2.27-13.1.94-2.14 1.59-4.41 3-6.31.66-.88 1.56-1.5 2.22-2.37a13.39 13.39 0 0 1 4.58-3.81c2.51-1.29 5-2.61 7.5-3.91a2.93 2.93 0 0 0 1.6-2.12 17.78 17.78 0 0 1 1.14-3.13 26.29 26.29 0 0 1 5.7-8.47c2-2 3.73-4.31 5.94-6.11a23.45 23.45 0 0 0 5.47-6.39 8.44 8.44 0 0 1 2.64-2.71c1.45-.94 3-1.68 4.53-2.53 3.15-1.77 6.58-3 9.35-5.52 1.64-1.48 3.5-2.72 4.64-4.74.62-1.08.61-1.58-.4-2.11a19.08 19.08 0 0 0-2.81-1.25c-1.94-.65-3.93-.59-5.89-.91-2.8-.46-5.55 0-8.31.29a2.68 2.68 0 0 0-1 .37 10.33 10.33 0 0 0-4.66 4.49 11.7 11.7 0 0 1-4.7 4.63 14.13 14.13 0 0 0-5 4.71 25.28 25.28 0 0 0-3.8 9.75 11.32 11.32 0 0 1-.92 3.43c-2.14 4.15-4.42 8.21-7.93 11.36a22 22 0 0 0-3.8 4c-4.64 6.85-9.6 13.47-13.67 20.72a14.7 14.7 0 0 0-2.18 7.6 23.22 23.22 0 0 1-.34 5.46 19.55 19.55 0 0 0-.42 3.57m9.29-1.32a17.44 17.44 0 0 0 1.24-1.72c.51-.93.6-2 1-3a36 36 0 0 1 7-10.23 22.76 22.76 0 0 0 4.26-7.25 1 1 0 0 0-.27-1.18c-.35-.3-.57 0-.9.22-4.42 2.85-7 7.2-8.92 12-1.21 3-2.12 6.17-3.54 9.1a1.89 1.89 0 0 0 .08 2" fill="#85868a" data-color="5"></path>
                </g>
            </g>
        </g>
    </g>
</svg>