<svg preserveAspectRatio="xMidYMid meet" data-bbox="0.006 -0.002 227.504 239.028" viewBox="0.006 -0.002 227.504 239.028" xmlns="http://www.w3.org/2000/svg" data-type="color" role="img" aria-label="Land oil absorbents">
    <g>
        <defs>
            <clipPath id="7065b72b-d412-4448-9bd0-44becbd6ea05_comp-komyrnrt">
                <path d="M227.54 0v239.03H0V0h227.54z"></path>
            </clipPath>
        </defs>
        <g>
            <g clip-path="url(#7065b72b-d412-4448-9bd0-44becbd6ea05_comp-komyrnrt)">
                <g>
                    <path d="M208 212.68c-3.51 20-47.06 24.53-47.06 24.53S114 238.36 65.69 239s-44-11-44-11 1.23-8.57 13.2-20.16 10.64-24.74 32.75-46.6 62.76-23.69 67.3-23.38 42.91-5.86 51.06 8.19 25.51 46.62 22 66.63" fill="#ff3f2b" data-color="1"></path>
                </g>
                <g>
                    <path d="M72.36 228.27c6.86-2.11 13.84-38.19 38-46.43s24.85-13.84 51.24-15.42 50.39 16.8 55 29.16 10.91 42.14 10.91 42.14L61 239s4.54-8.65 11.4-10.76" fill="#85868a" data-color="2"></path>
                </g>
                <g>
                    <path d="M6.62 46.71c10 1.63 11.61 4.55 22.4 1.17s36.69-5.76 43.55-20.15S79.72 8.12 78.7 4.25s-2-7.11-4.88-.26-5.8 18-14.59 23S41.16 38.38 34.56 38s-19.17 3.35-27.4-1.43-10.56 8.5-.53 10.14" fill="#91d9ff" data-color="3"></path>
                </g>
                <g>
                    <path d="M21.33 55.71c-5.95.53-5.49 6.31-7.59 16.52S9.69 89.81 10.51 92.6s5.39.85 6.37-8.76S16.92 72.43 20 64s7.27-8.85 1.32-8.32" fill="#91d9ff" data-color="3"></path>
                </g>
                <g>
                    <path d="M55.78 47.49c-1.7 2-1.23 11 .92 18.51S62 86.5 65 87.28s3.35-4.69-.41-19.56-7.09-22.24-8.8-20.23" fill="#91d9ff" data-color="3"></path>
                </g>
                <g>
                    <path d="M85.31 27.23c3.41 3.83 13.89 5.11 21.43 12s13.65 7.74 13.81 4.11-12.86-15.21-21.2-18.41-17.45-1.49-14 2.34" fill="#91d9ff" data-color="3"></path>
                </g>
                <g>
                    <path d="M136.33 234.71c1.78-1.94 2.14-4.4 3-6.64 1.22-3.19 2-6.52 3.35-9.68a50.24 50.24 0 0 0 2-6.35c.58-2.08 1-4.19 1.52-6.29a53 53 0 0 0 .81-5.59c.34-2.7.93-5.37 1.3-8.06a24.87 24.87 0 0 1 2.27-8.19c1.75-3.42 4.58-5.6 7.76-7.48a45.64 45.64 0 0 1 8.24-3.58c1.44-.5 3-.59 4.47-1.09s1.79-.85 1.88-2.36a28.19 28.19 0 0 0-1.63-10.53c-.71-2.1-1.19-4.27-1.83-6.4s-1.69-4.23-2.32-6.42a12.09 12.09 0 0 1-.49-2.45c-.24-3.79-.32-7.58.95-11.22a15.33 15.33 0 0 1 1.53-3.84 1.68 1.68 0 0 1 1.65-.88 1.32 1.32 0 0 1 1.31 1.12 18.6 18.6 0 0 1 .6 2.66c.17 1.53.31 3.06.6 4.59a33.31 33.31 0 0 0 6 12.91 10.48 10.48 0 0 1 2.25 6.14v4.84c0 .57 0 1.14.74 1.3s1-.32 1.29-.81c.75-1.24 1.57-2.45 2.24-3.73a25.05 25.05 0 0 1 11.59-10.77 9.56 9.56 0 0 1 4.51-.75c1.33 0 2.66.18 4 .33 1.68.2 2.54 1.45 1.8 3a31.09 31.09 0 0 1-4.85 7.5c-2.77 3-6.18 5.28-9.43 7.71-2.1 1.57-4.27 3.05-6.42 4.56-.71.5-.82 1.08-.14 1.56a19.34 19.34 0 0 0 3 1.81 33 33 0 0 1 8.43 5.7c2.07 1.84 3.38 5.8 1.73 8.56a3.29 3.29 0 0 1-2.61 1.76 9.72 9.72 0 0 1-5.8-1.28 31.59 31.59 0 0 1-6.22-4.56c-2.52-2.14-5.13-4.16-7.8-6.11a7.42 7.42 0 0 0-6.35-1.38 39.29 39.29 0 0 0-13.75 5.68 13.75 13.75 0 0 0-5.7 7.9 96 96 0 0 0-2.12 10c-.5 3.46-.87 7-1.66 10.35a65.69 65.69 0 0 1-2.14 7.61c-1.06 2.92-1.84 6-2.9 8.87-1.47 4.05-2.6 8.24-4.62 12.08a8.92 8.92 0 0 1-.69 1c-1.2 1.58-2.6 1.62-3.35-.2-1.56-3.78-4.79-5.75-7.9-7.89-4.27-2.94-8.74-5.58-12.82-8.83A37.41 37.41 0 0 1 102 204.65c-1-2.75-1.33-5.71-1.84-8.59-.44-2.48-.66-5-1-7.51-.25-2-.9-2.48-3-2.09a29 29 0 0 1-11.1.16 10.91 10.91 0 0 1-8-5.51c-1.41-2.63-2.62-5.34-4-8-.85-1.64-.3-2.37 1.53-2.24a8.88 8.88 0 0 1 1.62.38 117.52 117.52 0 0 0 12.42 3 2.61 2.61 0 0 0 2.05-.15 2.41 2.41 0 0 0-.73-1.45c-3-2.64-3.74-6.28-4.08-10-.44-4.68-.14-9.4-.16-14.1 0-2.72.34-5.47-.69-8.12-.25-.63-.35-1.5.35-1.91a2.06 2.06 0 0 1 2 .2c3 1.61 4.91 4.28 6.32 7.26a34.07 34.07 0 0 1 2.33 6.43 23.59 23.59 0 0 1 .49 7.11c-.17 2.66-.35 5.33.56 7.91.11.32.06.74.51.82s.73-.28.88-.7a3.5 3.5 0 0 0 .33-1c.25-2.77 1.47-5.19 2.58-7.67a16.49 16.49 0 0 0 .75-10.49 26.31 26.31 0 0 1-.46-5c0-1.27.75-1.76 1.94-1.25a5.26 5.26 0 0 1 2.44 2.17 28.92 28.92 0 0 1 4 19.72 49.67 49.67 0 0 1-1.26 7.67 30.35 30.35 0 0 1-3.44 8.4 31.62 31.62 0 0 0-3.43 7.53 11.42 11.42 0 0 0 .14 5.63c.19.9.33 1.79.44 2.7a36 36 0 0 0 3 10.37 28.16 28.16 0 0 0 3 5.41 46.62 46.62 0 0 0 11.59 10.78c1.53 1.05 3.08 2.07 4.61 3.13a19 19 0 0 0 3.68 2 1.14 1.14 0 0 0 .1-1.53c-1.28-2.29-2.54-4.57-3.83-6.84a28.29 28.29 0 0 1-2.9-6.82 77.53 77.53 0 0 1-1.79-9.9c-.94-7.32.23-14.57.6-21.85.31-6.24.57-12.48.3-18.73a31.42 31.42 0 0 0-7.34-19c-3.42-4.18-6.75-8.42-10-12.69a13.7 13.7 0 0 0-6-4.18 23.35 23.35 0 0 1-9.64-7 16.42 16.42 0 0 1-2.76-5.53 48.75 48.75 0 0 1-1.73-12.2A14 14 0 0 0 81 93.85a8.18 8.18 0 0 1-1.35-3.25c-.42-2.32 1.16-3 2.75-2.84A8.7 8.7 0 0 1 88 90.7a23.74 23.74 0 0 1 5.11 8.3 25.69 25.69 0 0 1 1.46 8.2c0 2.24-.06 4.49 1 6.58.57 1.18 1 2.45 2.27 3.19 1-1.15.8-2.58 1-3.82.58-3.42 2.11-6.49 3.3-9.67a53.37 53.37 0 0 0 3.26-11.35 53.3 53.3 0 0 1 1.24-7.41 18.33 18.33 0 0 0 .31-4c.09-1.67.77-2.26 2.42-2a7.33 7.33 0 0 1 5.45 4.16 16.41 16.41 0 0 1 1.66 10.76 25.8 25.8 0 0 1-2.81 7.79q-3 5.45-6.15 10.85c-1 1.7-1.28 3.67-2.22 5.38a1.19 1.19 0 0 0 .25 1.28 14.43 14.43 0 0 0 3.22-3 18.54 18.54 0 0 0 3.65-5 25.88 25.88 0 0 1 5.48-7.67 28.4 28.4 0 0 0 2.61-3A13 13 0 0 1 125 96.7a3.74 3.74 0 0 1 1-.37c2.16-.37 3.13.22 3.18 2.41a23.92 23.92 0 0 1-2.58 12.32 27.06 27.06 0 0 1-10.83 10.57c-3.25 1.86-6.43 3.82-10.16 4.63-.85.18-1 1.06-.44 1.9a762.9 762.9 0 0 0 5 6.88c2.92 3.84 5.94 7.62 8.81 11.5 1.55 2.1 2.2 4.66 2.91 7.14a59.59 59.59 0 0 1 1.4 7.4 16 16 0 0 1 .2 2.3c0 8-.23 16-.88 24a105.11 105.11 0 0 0-.59 12.16 76.68 76.68 0 0 0 1.32 9.55c.77 4.92 3.27 9.07 5.63 13.26 1.8 3.19 3.42 6.47 5.22 9.66.53.94.84 2.09 2.12 2.72" fill="#2b2e34" data-color="4"></path>
                </g>
            </g>
        </g>
    </g>
</svg>