<svg preserveAspectRatio="xMidYMid meet" data-bbox="-0.001 0.004 243.741 230.491" viewBox="-0.001 0.004 243.741 230.491" xmlns="http://www.w3.org/2000/svg" data-type="color" role="img" aria-label="Industrial oil aborbents">
    <g>
        <defs>
            <clipPath id="d2101976-6139-4a0e-adad-86901261de2b_comp-komyrnrr">
                <path d="M243.74.01v230.47H0V.01h243.74z"></path>
            </clipPath>
        </defs>
        <g clip-path="url(#d2101976-6139-4a0e-adad-86901261de2b_comp-komyrnrr)">
            <g>
                <path d="M107.86 16.74S97 21.4 96.38 31s-4.66 21.16 5.45 32.28 18.44 5.89 23.41 6.51S134 83.15 144 82.53s25.3-15.31 21.7-20.87 2.65-14.7 5.59-16.93-3.87-19.32-12.72-19.46-10.72-2.33-12.3-8.53-16.09-13.79-20.44-6-18 6-18 6" fill="#6f7175" data-color="1"></path>
            </g>
            <g>
                <path d="M35.47 91.37s-14.8 13.23-10.62 22.24-7.33 10.29-8.11 18.39-1.58 17.06 12 27.82 1 14.65 6.78 21.55S51.53 195.14 54 203.88s11.4 2.06 22 0 21.86 11.83 29.4 7.53 2.1-6.42 21.13-12.13 21.54-14.89 25.4-22.29-3.22-10 3.54-22.2 9.32-21.88 9.32-28-.65-13.94-4.18-15.45-1.83-9.94-12.87-18.12-23.5-10.74-24.93-16.86-12.26 4.58-18.64 3.2-1.4-11.77-13.58-11-13.2 12.05-17.8 10-6.44-9.73-11.26-10-14.94 5.18-14.71 7.76 3.67 13.76 0 15.07-11.35 0-11.35 0" fill="#ff3f2b" data-color="2"></path>
            </g>
            <g>
                <path d="M161.18 61a8.53 8.53 0 0 1-2.05-3.38 5.42 5.42 0 0 1 .3-3.44 26.87 26.87 0 0 0 1.57-4.55v-.17h.06l.28-.22a8.41 8.41 0 0 1 1.34-.76 34.57 34.57 0 0 1 3.92-1.41 37.36 37.36 0 0 0 4.62-1.66l.33-.17.54-.36a3.93 3.93 0 0 0 1-.86 6.36 6.36 0 0 0 .7-1.07 8.79 8.79 0 0 0 .4-1.08 9 9 0 0 0 .12-3.42 24.07 24.07 0 0 0-1.38-5 56.12 56.12 0 0 0-2.34-5.26l-1.29-2.51a6.62 6.62 0 0 0-4.06-3.37 7.24 7.24 0 0 0-4.63.53 20.72 20.72 0 0 0-2.8 1.47 41.31 41.31 0 0 1-4.28 2.47c-.32.15-.6.22-.91.35a8.33 8.33 0 0 1-.84.17 4.47 4.47 0 0 1-1.63-.06c-.82-.14-1.44-.85-1.87-2.24a14.6 14.6 0 0 1-.26-4.71 43.52 43.52 0 0 0 .44-5.47 7 7 0 0 0-2.31-5.3 15.6 15.6 0 0 0-4.85-2.4 14.79 14.79 0 0 0-5-1.14A6.43 6.43 0 0 0 132 7.5a6.08 6.08 0 0 0-1.95 3.75 6.67 6.67 0 0 0-.08 1.09v1.37a8.12 8.12 0 0 1-.92 3.22 10 10 0 0 1-4.84 4.38 16.53 16.53 0 0 1-5.91 1.43 17.82 17.82 0 0 1-2.53 0 10.15 10.15 0 0 1-2.91-.66 9.67 9.67 0 0 1-4.5-4.05c-.45-.75-.82-1.49-1.13-2.05s-.68-.89-.34-.62c0 0 .41.23.67.18s.19 0 .29 0-.15.07-.37.24a10.29 10.29 0 0 0-1.35 1.12c-1.23 1.2-2.54 2.7-4 4.32l-2.22 2.54L98.75 25c.16-.07.14-.17.29-.38a2.11 2.11 0 0 0 .16-.62c-.11-.62.19.25.85.85.74.76 1.51 1.49 2.31 2.18s1.82 1.55 2.88 2.58c.24.22.59.62.87.94a5.8 5.8 0 0 1 1.12 2 8 8 0 0 1 .27 3.29 43.89 43.89 0 0 1-1.35 6.3c-.24.89-.52 1.8-.83 2.76-.07.22-.14.45-.22.68l-.07.21a4 4 0 0 1-.17.48 4.37 4.37 0 0 1-.41.77 5 5 0 0 1-.54.67l-.28.27-.1.07a8.32 8.32 0 0 1-.85.56c-.25.14-.4.2-.6.3a11.52 11.52 0 0 1-1.11.46c-2.84 1.12-10.59 3.73-11.71 1.84S92.35 48 93 47.8c1.57-.56 3.12-1 4.63-1.53.75-.24 1.5-.48 2.21-.75a7.65 7.65 0 0 0 1-.44 1.41 1.41 0 0 0 .35-.23c.1-.05.14-.35.22-.49a40.38 40.38 0 0 0 2.81-8.57 4.57 4.57 0 0 0-.22-2.61 9.66 9.66 0 0 0-1.7-1.91c-1.19-1.13-2.41-2.19-3.51-3.32a8.45 8.45 0 0 1-2.44-3.64c-.11-.64.16-1 .69-1.53s1.16-1.14 1.72-1.71a76.35 76.35 0 0 1 6.79-6.55 5.66 5.66 0 0 1 1.8-1 .61.61 0 0 1 .62.08 2.55 2.55 0 0 1 .64.67 26.42 26.42 0 0 0 2.61 4 6.7 6.7 0 0 0 4.42 2.14 16.69 16.69 0 0 0 4.73-.25c3-.57 6.16-2.26 7.11-5.15a6.56 6.56 0 0 0 .36-2.15 11.83 11.83 0 0 1 .23-2.37 8.49 8.49 0 0 1 2.38-4.32 8.41 8.41 0 0 1 4.69-2.09 12 12 0 0 1 5.08.59 29.41 29.41 0 0 1 6 2.48 8.62 8.62 0 0 1 3 2.88 9.28 9.28 0 0 1 1.27 4.1c.27 2.6-.34 5-.38 6.6a9.67 9.67 0 0 0 .46 4.27c.11.19.2.36.29.4s.2 0 0 .1l-.06.07.06-.08v-.08l.09-.15s.1-.05.23-.06l.58-.09a5.2 5.2 0 0 0 .5-.18 14.41 14.41 0 0 0 1.66-.85l2.33-1.43a26.67 26.67 0 0 1 3.2-1.74c.37-.15.67-.29 1.1-.43s.91-.27 1.37-.38a13.4 13.4 0 0 1 1.79-.18 10.48 10.48 0 0 1 2.16.28 9.17 9.17 0 0 1 2.15.94 8.63 8.63 0 0 1 1.62 1.33 6.7 6.7 0 0 1 1.06 1.37l.42.67.19.32.08.17a59.39 59.39 0 0 1 4.75 11 16.09 16.09 0 0 1 .54 4.25 9 9 0 0 1-.71 3.28 7.45 7.45 0 0 1-1.16 1.88 7.26 7.26 0 0 1-1.73 1.49l-.45.28-.23.11-.47.21c-.32.16-.58.24-.86.36-.56.22-1 .37-1.55.54l-2.75.82a27.25 27.25 0 0 0-3.93 1.36h-.13a3.67 3.67 0 0 0-1-.84 1.77 1.77 0 0 0-.59-.32H161c-.42 0 3.65.33 1.92.18v.23a15.1 15.1 0 0 1-1.07 3.42c-.72 1.7-1 2.46-1 3.31a3.56 3.56 0 0 0 .44 1.52 9.83 9.83 0 0 0 1.24 1.92l2.23 3.06c.78 1.09 1.41 2 1.41 2-.06.15-4-4.46-4.4-4.71s-.44.21-.59.58" fill="#2b2e34" data-color="3"></path>
            </g>
            <g>
                <path d="M161.19 61a9 9 0 0 1-1.83-2.54 4.87 4.87 0 0 1-.42-3c.4-2.07 1.59-3.83 1.88-5.84s0 0 .05 0l.17-.28h.15v.32l-.13-.29H161l-.08.18a1.64 1.64 0 0 1 .34-.4l.32-.18.63-.37a6.69 6.69 0 0 1 1.31-.58l2.68-1a41.26 41.26 0 0 0 5.27-2 10.56 10.56 0 0 0 .87-.62 2.59 2.59 0 0 0 .67-.73c.19-.3.39-.58.56-.88l.36-1a9.81 9.81 0 0 0-.09-4.38 24.66 24.66 0 0 0-1.38-4.29 72 72 0 0 0-4-8.08 5.86 5.86 0 0 0-3.44-2.38 6.82 6.82 0 0 0-4.22.55c-1.32.7-2.62 1.35-4 2.15l-2 1.16a10 10 0 0 1-2.07 1h-.08a5.38 5.38 0 0 1-.89.17h.06a4.57 4.57 0 0 1-1.28 0 3.12 3.12 0 0 1-1.29-.39 4 4 0 0 1-1.42-2.17 14.5 14.5 0 0 1-.34-4.78c.26-3.1 1-6.22-.36-8.84a6.5 6.5 0 0 0-3.14-2.85 35.91 35.91 0 0 0-4.25-1.65 9.92 9.92 0 0 0-4.35-.6 5.53 5.53 0 0 0-3.73 1.93 6.33 6.33 0 0 0-1.32 4 9.45 9.45 0 0 1-1 4.67 11.58 11.58 0 0 1-7.57 5.43 16.06 16.06 0 0 1-4.68.52 10.48 10.48 0 0 1-4.66-.83 9.39 9.39 0 0 1-3.67-3 13.35 13.35 0 0 1-1.23-2l-.56-1a3.72 3.72 0 0 0-.27-.48l-.16-.22v-.06c.14-.08-.32.2.2-.46a.36.36 0 0 1 .2.06l.13.1-.45.14c0-.13.29-.26.34-.2h.31a.45.45 0 0 0 .2 0h.23l.92-.17-.59.6a.59.59 0 0 1-.18.13h-.08l-.16.1-1.19 1c-.38.35-.72.77-1.08 1.15l-2.15 2.33c-1.44 1.54-2.79 3.19-4.26 4.73l-.26-.35.07-.08a1.76 1.76 0 0 1 .14-.23 2.16 2.16 0 0 0 .14-.57V24a1 1 0 0 1 0-.3.26.26 0 0 1 .1-.13.22.22 0 0 1 .18 0 .34.34 0 0 1 .12.06v.07l.06.09.22.32a3.35 3.35 0 0 0 .49.57c1 .95 2 1.92 3 2.84a37.48 37.48 0 0 1 3 2.89 6.39 6.39 0 0 1 1.48 3.72 17.27 17.27 0 0 1-.4 4 72.71 72.71 0 0 1-2.08 7.69l-.43-.13.38.22v-.09.08l-.06.16a3.09 3.09 0 0 1-.14.32l-.33.62a6.94 6.94 0 0 1-.89 1.06 12.42 12.42 0 0 1-3.36 1.67c-1.16.44-2.34.84-3.52 1.2a33.16 33.16 0 0 1-3.63.9c-1.23.15-2.51.5-3.84-.17a1.44 1.44 0 0 1-.34-2 4.31 4.31 0 0 1 1.53-1.25 20.79 20.79 0 0 1 3.48-1.37l3.52-1.19a21.12 21.12 0 0 0 3.26-1.26l.1-.09c-.1.08-.06.07-.06 0v-.1a2 2 0 0 1 .12-.31c.7-1.83 1.47-3.62 2-5.46a20.24 20.24 0 0 0 .67-2.79 4.49 4.49 0 0 0-.16-2.64 14.23 14.23 0 0 0-2.15-2.2l-2.52-2.35a14.05 14.05 0 0 1-2.3-2.69 4.12 4.12 0 0 1-.68-1.82 2.48 2.48 0 0 1 1-1.78c1.63-1.6 3.19-3.27 4.81-4.93.81-.82 1.64-1.63 2.52-2.4a9.28 9.28 0 0 1 3-2 2.23 2.23 0 0 1 .36-.05 1.07 1.07 0 0 1 .52.14 2 2 0 0 1 .57.46 5.79 5.79 0 0 1 .7 1l1.13 1.93a6.82 6.82 0 0 0 3 2.82 9.07 9.07 0 0 0 4.16.62 15.4 15.4 0 0 0 4.25-.73c2.7-.87 5.18-2.94 5.33-5.79a14.68 14.68 0 0 1 .81-4.6 8.4 8.4 0 0 1 2.89-3.74A10.38 10.38 0 0 1 140 4c2.84.94 5.86 1.76 8.27 3.93a8.67 8.67 0 0 1 2.38 4.07 14.21 14.21 0 0 1 .41 4.64c-.08 1.54-.39 3-.43 4.45a14 14 0 0 0 .06 2.15 6.91 6.91 0 0 0 .19 1 3.12 3.12 0 0 0 .15.43c0 .06.31.41.05.19l.26.24a.52.52 0 0 0-.45-.24h.24a.61.61 0 0 1 .39.46v.37a1 1 0 0 1-.08.11l-.07.06h-.05l.07-.06-.06.07-.89-.72.07-.08-.06.08v-.07l.09-.15-.08.3c.17-.64.3-.43.33-.53h.57l.38-.06h-.08a30.38 30.38 0 0 0 4.54-2.5 23.78 23.78 0 0 1 5-2.3 11.61 11.61 0 0 1 2.76-.36 14.19 14.19 0 0 1 2.8.5 9.22 9.22 0 0 1 2.46 1.39c.37.31.66.61 1 .94a6.72 6.72 0 0 1 .87 1.12 46.06 46.06 0 0 1 2.5 4.77q1.17 2.41 2.1 4.95c1.19 3.29 2.19 7.14.69 10.66a8.25 8.25 0 0 1-1.44 2.24 9.73 9.73 0 0 1-2.08 1.59 30.7 30.7 0 0 1-4.93 1.74c-1.67.47-3.24 1.08-4.87 1.61a1.29 1.29 0 0 1-.28.08h-.14l-.11-.13a3.28 3.28 0 0 0-.9-.76 1.26 1.26 0 0 0-.44-.24l-.13-.06h.07c.07-.25-.15.55 0-.58h.71l.71.07.71.07h.35c.15-.26.19.69 0 .54h-.5l.29-.23a16.31 16.31 0 0 1-1.36 4.19c-.59 1.31-1.15 2.7-.46 4s1.54 2.4 2.4 3.58 1.68 2.38 2.49 3.59v.09a.14.14 0 0 1-.17.07h-.05l-.09-.09-.17-.17-.31-.34-.62-.69-1.23-1.38-1.23-1.39c-.2-.22-.41-.44-.63-.64s-.34.27-.53.58m0-.11c0-.15.16-.74.61-.58a6 6 0 0 1 .68.65l1.26 1.36L165 63.7l.63.68.32.33.16.16.08.08-.14.07v.12c-.83-1.19-1.67-2.37-2.55-3.53S161.79 59.3 161 58a3.5 3.5 0 0 1-.34-2.25 11.8 11.8 0 0 1 .71-2.1 16.89 16.89 0 0 0 1.28-4.09v-.25h.61c-.23-.15-.19.8 0 .54h-.22l-.71-.07-.71-.06H161c.18-1.13-.05-.33 0-.58h.12a.51.51 0 0 1 .18.09l-.12-.07a1.93 1.93 0 0 1 .74.41l-.07-.06a4.12 4.12 0 0 1 1.08.91l-.24-.12c1.65-.57 3.31-1.22 5-1.7a31.48 31.48 0 0 0 4.82-1.74 9 9 0 0 0 1.9-1.47 7.8 7.8 0 0 0 1.26-2c1.33-3.2.4-6.84-.81-10.07a49.42 49.42 0 0 0-2.12-4.83 44.77 44.77 0 0 0-2.47-4.64 5.91 5.91 0 0 0-.76-1c-.31-.28-.64-.61-.95-.87a8.49 8.49 0 0 0-2.17-1.19 14.32 14.32 0 0 0-2.43-.4 10.12 10.12 0 0 0-2.5.35 22.26 22.26 0 0 0-4.68 2.26 29.86 29.86 0 0 1-4.78 2.6h-.05l-.44.06h-.19.05c0-.09.13.13.29-.49l-.08.3-.09.15v.08l-.07.08-.88-.71.06-.07a.36.36 0 0 0-.07.1v.37a.57.57 0 0 0 .38.45h.09a.67.67 0 0 1-.64-.34l.26.25c-.57-.44-.4-.47-.59-.73a4.57 4.57 0 0 1-.22-.62 8 8 0 0 1-.22-1.19 15.09 15.09 0 0 1-.09-2.29c.05-1.55.36-3 .44-4.48.2-2.86-.35-5.9-2.48-7.8s-5-2.78-7.82-3.7a9.33 9.33 0 0 0-8.14.98 7.36 7.36 0 0 0-2.5 3.23 6.08 6.08 0 0 0-.48 2c-.06.74-.16 1.37-.19 2.2a6.76 6.76 0 0 1-2 4.31 10.5 10.5 0 0 1-4 2.39 16.85 16.85 0 0 1-4.56.79 10.32 10.32 0 0 1-4.63-.72 8 8 0 0 1-3.52-3.2l-1.14-1.95c-.33-.6-.86-1.3-1.06-1.07a8.7 8.7 0 0 0-2.65 1.78c-.85.74-1.68 1.52-2.49 2.33-1.6 1.61-3.2 3.29-4.85 4.88-.42.41-.76.76-.72 1.1a3.55 3.55 0 0 0 .54 1.37A13.46 13.46 0 0 0 99.44 28l2.49 2.36a14.68 14.68 0 0 1 2.38 2.6 5.21 5.21 0 0 1 .2 3.1 20.73 20.73 0 0 1-.73 2.89c-.6 1.88-1.4 3.67-2.11 5.48 0 .07 0 .14-.08.2v.16a.53.53 0 0 1-.22.27l.09-.08a15 15 0 0 1-3.6 1.46l-3.51 1.15A22 22 0 0 0 90.91 49a4 4 0 0 0-1.34 1 .88.88 0 0 0 .15 1.23c.91.5 2.27.27 3.43.11a34.32 34.32 0 0 0 3.57-.86c1.17-.34 2.34-.73 3.5-1.16a11.85 11.85 0 0 0 3.25-1.6 5.78 5.78 0 0 0 .82-1l.3-.56a1.85 1.85 0 0 0 .13-.29l.06-.15v-.08l.06-.08.37.21-.43-.13a71.62 71.62 0 0 0 2.11-7.62 16.31 16.31 0 0 0 .43-3.88 5.93 5.93 0 0 0-1.32-3.49 36.75 36.75 0 0 0-3-2.83c-1-.91-2-1.89-3.07-2.84a4.07 4.07 0 0 1-.55-.63l-.25-.35v-.07h.08a.23.23 0 0 0 .16 0 .2.2 0 0 0 .08-.12v.17a2.14 2.14 0 0 1-.17.66 1.18 1.18 0 0 0-.11.19.55.55 0 0 1-.27.27l-.83.26.57-.62c1.45-1.54 2.78-3.2 4.22-4.76l2.14-2.37c.37-.39.7-.8 1.1-1.17l1.26-1 .2-.14.11-.06s.08-.05 0 0l.34.43a.55.55 0 0 1-.28 0h-.07a.9.9 0 0 1-.49 0l-.19-.07h-.09c0 .06.34-.07.33-.19l-.45.14-.1-.08a.33.33 0 0 0 .17 0c.52-.65.08-.36.22-.43v.05l.18.25c.12.18.22.37.31.53l.56 1a12.91 12.91 0 0 0 1.2 1.93 9 9 0 0 0 3.45 2.78 10 10 0 0 0 4.4.73 15.59 15.59 0 0 0 4.5-.54 10.84 10.84 0 0 0 7-5.09 8.53 8.53 0 0 0 .9-4.3 7.21 7.21 0 0 1 1.49-4.6 6.42 6.42 0 0 1 4.28-2.27 10.85 10.85 0 0 1 4.76.6 35 35 0 0 1 4.4 1.68 10.45 10.45 0 0 1 2.05 1.3 6.17 6.17 0 0 1 1.56 1.95c1.61 3.06.65 6.46.42 9.39a13.2 13.2 0 0 0 .25 4.43 3.1 3.1 0 0 0 1 1.67 3.41 3.41 0 0 0 1.94.25h.06c.18 0 .4-.1.8-.16h-.12a9.43 9.43 0 0 0 2-1l2-1.12c1.28-.76 2.7-1.46 4.07-2.17a7.54 7.54 0 0 1 4.68-.55 6.65 6.65 0 0 1 3.89 2.7 69.45 69.45 0 0 1 4 8.3 24.83 24.83 0 0 1 1.37 4.39 10.29 10.29 0 0 1 .06 4.65l-.41 1.18c-.19.33-.41.64-.62 1a3 3 0 0 1-.8.86c-.29.23-.6.44-.91.64a37.19 37.19 0 0 1-5.36 1.93l-2.66.93a6 6 0 0 0-1.29.53l-.6.33-.3.17h-.21l-.08.18h-.18l-.13-.28v.32l.17-.28a.93.93 0 0 1 0 .29c-.34 2.09-1.58 3.84-2 5.82a4.76 4.76 0 0 0 .34 2.93 11.94 11.94 0 0 0 1.66 2.5" fill="#2b2e34" data-color="3"></path>
            </g>
            <g>
                <path d="M180.37 170a20.15 20.15 0 0 1 .42-6.1 4.23 4.23 0 0 1 2.94-3.39 22.56 22.56 0 0 1 5.67-.68c1.07 0 2.2-.12 3.33-.25a3.3 3.3 0 0 1 1.65.09l.11.17a6.19 6.19 0 0 1 .41 1 17.66 17.66 0 0 0 1.5 3.42 8 8 0 0 0 3.55 3.2 8.94 8.94 0 0 0 4.57.7 16.51 16.51 0 0 0 7.25-2.75c1-.65 1.92-1.34 2.83-2.08a26.18 26.18 0 0 0 2.72-2.44 7.16 7.16 0 0 0 1.7-3 6.66 6.66 0 0 0-.15-3.7 27.68 27.68 0 0 0-1.84-4.08c-1.18-2.25-2.37-4.53-2.57-6.06a4.21 4.21 0 0 1 .27-2.22 19.74 19.74 0 0 1 1.44-2.87 6.48 6.48 0 0 1 .69-1 1.12 1.12 0 0 1 .47-.33 11.4 11.4 0 0 1 3-.37c1.27-.07 2.45-.08 3.94-.19a15.76 15.76 0 0 0 2.35-.38 6.41 6.41 0 0 0 2.81-1.45 5.56 5.56 0 0 0 1.56-2.94 14.3 14.3 0 0 0 .22-2.26c0-1.32.06-2.49.17-3.67s.25-2.53.33-3.87a9.9 9.9 0 0 0-.52-4.58 4.13 4.13 0 0 0-2.06-2 7 7 0 0 0-2.26-.53 12.93 12.93 0 0 1-3.35-.82 11.79 11.79 0 0 1-5.51-4.29 14.27 14.27 0 0 1-2-7 4.71 4.71 0 0 1 1.55-3.44l2.59-2.71a14.77 14.77 0 0 0 2.17-2.8 2.88 2.88 0 0 0 .13-2.73c-.92-1.79-2.9-3.59-4.44-5.61-.79-1-1.59-2.2-2.22-3a6.07 6.07 0 0 0-2-1.86.43.43 0 0 0-.46 0 2.91 2.91 0 0 0-.76.49A21.72 21.72 0 0 0 210.3 84c-.43.49-.7.89-1.3 1.49a7.72 7.72 0 0 1-2.09 1.51 8.36 8.36 0 0 1-5.18.76 22.11 22.11 0 0 1-6.6-2.55l-2.75-1.5a7.49 7.49 0 0 1-3.32-3.66 15.17 15.17 0 0 1-.37-7.74c.37-2.27.88-4.39 1.28-6.43.12-.65.25-1.31.34-1.94 0-.31.11-.65.13-.94v-.45c0-.14.05-.37 0-.27s0 .18-.18 0a4.82 4.82 0 0 0-1-.72 11.73 11.73 0 0 0-7-1.28 3.79 3.79 0 0 0-2.31 1 2.34 2.34 0 0 0-.39.79 3.11 3.11 0 0 0-.09.6v.54l-.05.69a37.86 37.86 0 0 1-.8 5.72 16.92 16.92 0 0 1-2.62 6.12 15.92 15.92 0 0 1-4 3.84 33.61 33.61 0 0 1-3.7 2.19 13.27 13.27 0 0 1-5.17 1.56 9.11 9.11 0 0 1-3.62-.53 12.59 12.59 0 0 1-3.09-1.65c-1.83-1.26-4.74-3.63-7.21-5.3-.58-.37-1.13-.71-1.48-.9s-.44-.15.07-.45a1.34 1.34 0 0 0 .57-.67c.08-.22 0-.35-.06-.4s-.41 0-.67 0a3.28 3.28 0 0 0-.7 0 .72.72 0 0 1-.5-.35 1 1 0 0 1 .32-1.39l.14-.08a3.43 3.43 0 0 1 2.3 0 8.93 8.93 0 0 1 1.4.57 34.94 34.94 0 0 1 5.8 3.92c1.78 1.36 3.45 2.9 5.53 3.28s4.19-.58 6.08-1.47a14 14 0 0 0 5.08-3.8 15.43 15.43 0 0 0 2.62-6.52c.21-1.15.37-2.3.49-3.46a12.4 12.4 0 0 1 .53-3.24 5.67 5.67 0 0 1 4.82-3.42 14.11 14.11 0 0 1 6.41.66c2 .68 4.13 1.86 4.76 3.57a7.27 7.27 0 0 1-.26 3l-.74 3.3a42.65 42.65 0 0 0-1.21 6.72 12.15 12.15 0 0 0 .18 3.51 5.34 5.34 0 0 0 1.93 3.1 26.28 26.28 0 0 0 3 1.64c1 .51 2 1 3 1.46 2 .87 4.38 1.66 6.61.86a6.35 6.35 0 0 0 2.66-2c.72-.83 1.41-1.67 2.17-2.46a6.25 6.25 0 0 1 2.69-1.87 3.32 3.32 0 0 1 3.14 1c1.68 1.54 2.64 3.55 4 5.16a53.6 53.6 0 0 1 4.11 5.1 4.91 4.91 0 0 1 .53 3.85 8.79 8.79 0 0 1-1.87 3.17c-1.39 1.68-3.18 3.26-4.27 4.61a1.94 1.94 0 0 0-.44 1.11 7.4 7.4 0 0 0 .11 1.56c.1.62.24 1.27.39 1.94a11.73 11.73 0 0 0 .57 1.6 9.13 9.13 0 0 0 4.73 4.43 11.2 11.2 0 0 0 3.17.86h.38l.73.1a7 7 0 0 1 1.74.49 6.27 6.27 0 0 1 3.4 3.35 10 10 0 0 1 .67 3.54c0 .93 0 1.76-.08 2.54-.1 1.5-.3 3.07-.34 4.21s0 2.47-.2 4.5a8 8 0 0 1-1.88 4.33 8.56 8.56 0 0 1-4.22 2.44 27.17 27.17 0 0 1-5.32.58 30.47 30.47 0 0 0-3.57.27c-.13 0-.25.07-.23.08-.18-.53-.2-.64-.3-.88s-.1-.21-.11-.25a2 2 0 0 0 .21.3c.07.1.07.06.25.29s.36.4.36.4l-.14.21a17.17 17.17 0 0 0-1.37 2.62 2 2 0 0 0-.2 1.31 10.77 10.77 0 0 0 .87 2.44c.45 1 1 2 1.59 3.19a22.25 22.25 0 0 1 2 4.75 5.56 5.56 0 0 1 .2 1.08 6.83 6.83 0 0 1 .08 1.28 8.21 8.21 0 0 1-.55 2.81 10.19 10.19 0 0 1-2.23 3.35 36.36 36.36 0 0 1-3.52 3 21 21 0 0 1-9.41 4.48 11.38 11.38 0 0 1-6.92-.91 10.06 10.06 0 0 1-3.09-2.4 11.56 11.56 0 0 1-1.76-2.78 20.26 20.26 0 0 1-.88-2.28l-.23-.68-.05-.16c.23-.14.45-.29.67-.45 1.29-.9.88-1.07.61-.08a1.75 1.75 0 0 0-.06.33l-.13.57v.18h-1.06l-1.12.1-2.1.12c-1.33.06-2.54.1-3.54.23a7.17 7.17 0 0 0-2.18.53 2 2 0 0 0-1 1.16 13.86 13.86 0 0 0-.64 3c-.06.55-.1 1.09-.12 1.68v2.1c0 .3-.05.61-.1.91a4.57 4.57 0 0 1-.58 1.53 4.29 4.29 0 0 1-2.48 1.79 16.5 16.5 0 0 1-3.28.45c-1.88.15-3.47.24-3.47.24s2-.4 4.23-.75a17.91 17.91 0 0 0 1.8-.36 4.36 4.36 0 0 0 2.23-1.25 3.57 3.57 0 0 0 .84-2.26 5.09 5.09 0 0 0 0-.78c-.1-.48-.47-.21-.82 0" fill="#2b2e34" data-color="3"></path>
            </g>
            <g>
                <path d="M180.35 170.09a19.15 19.15 0 0 1 .19-5.45 6.94 6.94 0 0 1 .91-2.57 4 4 0 0 1 2.19-1.63 21.12 21.12 0 0 1 5.37-.72l2.68-.21 1.35-.12a5.45 5.45 0 0 1 .7 0h.35c.16.06.17-.07.48.22l-.08-.1c.86 1.44 1 2.74 1.77 4a8.32 8.32 0 0 0 2.7 3.07 9.29 9.29 0 0 0 8 .78 22.26 22.26 0 0 0 7.25-4.14c1.06-.91 2.12-1.85 3.11-2.82a6.26 6.26 0 0 0 1.58-3.64c.15-2.74-1.6-5.21-2.81-7.73a25 25 0 0 1-1.75-4 5 5 0 0 1-.23-2.27 6.16 6.16 0 0 1 .78-2.08l1-1.95.67-.94a2 2 0 0 1 1.08-.66 31.19 31.19 0 0 1 4.31-.36l2.12-.11c.7-.07 1.36-.21 2-.31a5.57 5.57 0 0 0 3.43-1.84 6 6 0 0 0 1.17-3.75c.14-1.36.15-2.83.23-4.25l.33-4.22a9.06 9.06 0 0 0-.43-4 3.82 3.82 0 0 0-2.83-2.26 20.24 20.24 0 0 1-4.23-.87 12.15 12.15 0 0 1-6.69-5.55 13.8 13.8 0 0 1-1.32-4.2c-.12-.72-.19-1.44-.24-2.17A4.37 4.37 0 0 1 216 101a7.06 7.06 0 0 1 1.4-1.77l1.47-1.53a24.89 24.89 0 0 0 2.72-3.16 2.73 2.73 0 0 0-.05-3.48 34.56 34.56 0 0 0-2.66-3.25 40.86 40.86 0 0 1-2.61-3.4 9.89 9.89 0 0 0-2.69-3h-.17c-.2.17-.4.29-.61.44l-.63.68-1.27 1.35a21 21 0 0 1-2.67 2.75 8.74 8.74 0 0 1-7.5 1.25 29.65 29.65 0 0 1-7-3.08c-2.22-1-4.61-2.81-5.19-5.45a16.4 16.4 0 0 1 0-7.6c.48-2.47 1-5 1.46-7.4.11-.62.2-1.21.26-1.85v-.22c-.11.29.64.11.46.07a.5.5 0 0 1 0 .13.28.28 0 0 1-.26.14.29.29 0 0 1-.13 0l-.06-.05a2.43 2.43 0 0 0-.34-.3l-.72-.53a10.89 10.89 0 0 0-3.47-1.18 10.23 10.23 0 0 0-3.66 0 4.49 4.49 0 0 0-1.65.67 2.06 2.06 0 0 0-.68 1.5c-.27 3.81-.68 7.88-2.54 11.39a15.2 15.2 0 0 1-3.71 4.57 41.73 41.73 0 0 1-5 3.18 13.16 13.16 0 0 1-5.67 1.66 10.21 10.21 0 0 1-5.66-1.64c-3.26-2.18-6.26-4.73-9.56-6.74a1.9 1.9 0 0 1-.37-.26.3.3 0 0 1 0-.34l.09-.09h.1l.15-.09A1.13 1.13 0 0 0 148 74c.14-.13.13-.38.14-.3h-.56a3.42 3.42 0 0 0-.64 0 1.19 1.19 0 0 1-.87-1.44v-.14a1.64 1.64 0 0 1 1.46-1 6.24 6.24 0 0 1 3.11.77 31.51 31.51 0 0 1 5.21 3.4c1.66 1.21 3.17 2.69 5 3.44s3.9.24 5.73-.57a17.6 17.6 0 0 0 5.14-3.13 11.23 11.23 0 0 0 3-5.1 35.65 35.65 0 0 0 1.08-6 12.4 12.4 0 0 1 .5-3.14 5.2 5.2 0 0 1 2-2.6 9.64 9.64 0 0 1 6.26-1.19 15 15 0 0 1 6.05 1.86 6.19 6.19 0 0 1 2.38 2.3 2.34 2.34 0 0 1 .3.9 4.22 4.22 0 0 1 0 .87c-.06.55-.17 1.06-.26 1.56l-1.35 6a24.6 24.6 0 0 0-.67 6 5.31 5.31 0 0 0 2.53 4.77c1.74.94 3.66 1.88 5.46 2.72a9 9 0 0 0 5.65.91c1.85-.39 3-2.21 4.4-3.74a11.84 11.84 0 0 1 2.32-2.15 4.61 4.61 0 0 1 1.63-.7 3.37 3.37 0 0 1 1.8.24c2.19 1 3.18 3 4.39 4.65s2.53 3.15 3.81 4.81a12.48 12.48 0 0 1 1.76 2.71 5.41 5.41 0 0 1 .28 3.37c-.62 2.21-2.2 3.77-3.59 5.27-.72.75-1.45 1.47-2.13 2.22a4.22 4.22 0 0 0-.8 1.07 3.24 3.24 0 0 0 0 1.28 10.53 10.53 0 0 0 1.88 5.45 9.57 9.57 0 0 0 4.83 3.12 21 21 0 0 0 3 .51 8.25 8.25 0 0 1 3.1 1.22 7 7 0 0 1 2.17 2.52 9.41 9.41 0 0 1 .83 3.17 43.36 43.36 0 0 1-.24 6.24c-.25 2-.06 4.06-.34 6.22a8.17 8.17 0 0 1-3.22 5.58 11.88 11.88 0 0 1-6.1 2c-2.13.12-4.09.23-6.11.38h.05-.12.07a.64.64 0 0 0 .13-.15s.13-.42 0-.54a.47.47 0 0 0-.22-.2l-.75.66-.18-.54-.09-.27-.14-.31v.08l.92-.56v.06l.08.11.2.23.2.24.1.12.06.06-.1-.07-.77.38v.31l.23-.69c1.55 1.17.36.52.72.74v.06l-.06.09-.1.19-.2.39-.4.76a10.22 10.22 0 0 0-.76 1.56c-.28.83.36 2 .81 3.09l1.6 3.24a25.81 25.81 0 0 1 1.51 3.35 9.27 9.27 0 0 1-.15 7.39 10.27 10.27 0 0 1-2.22 3l-2.79 2.4c-3.7 3.1-8.42 5.56-13.46 5.18a10.52 10.52 0 0 1-6.64-3.11 11.84 11.84 0 0 1-2.1-3.05c-.47-1.13-.92-2.28-1.29-3.44l-.25-.8.68.5h-.3a11.29 11.29 0 0 0 1.2-.85 2 2 0 0 0 .26-.24c-.36-.28.57.29.42.31v.06l-.07.15a2.52 2.52 0 0 0-.18.65 7.28 7.28 0 0 0-.15.76l-.48-.18a.23.23 0 0 0 .08.31.09.09 0 0 0 .07 0h.09a16.48 16.48 0 0 0-2.43.12l-2.43.13a20.55 20.55 0 0 0-4.75.55 2.08 2.08 0 0 0-1.4 1.61 15.52 15.52 0 0 0-.47 2.35c-.22 1.6-.08 3.2-.28 4.85a4.3 4.3 0 0 1-1.48 2.55 5.43 5.43 0 0 1-2.72 1.1c-1 .16-1.93.18-2.89.26l-2.89.19H172c-.08 0 0-.24.05-.2h.29l.37-.07.74-.13 1.48-.24c1-.14 2-.32 2.93-.52a4.11 4.11 0 0 0 2.5-1.43 3.87 3.87 0 0 0 .66-2.8c0-.17-.13-.27-.29-.2l-.22.11a.85.85 0 0 1-.27.16m.05-.1c0-.06.1-.1.16-.15a1.41 1.41 0 0 1 .24-.13.33.33 0 0 1 .46.28 4.09 4.09 0 0 1-.66 2.9 4.29 4.29 0 0 1-2.49 1.45c-1 .21-2 .4-3 .56l-1.48.25-.74.13-.36.07h-.27s.1-.14 0-.17h-.1l2.89-.22c1-.09 1.93-.12 2.86-.28a5.3 5.3 0 0 0 2.58-1.06 4 4 0 0 0 1.34-2.38c.18-1.57 0-3.23.23-4.85a16.42 16.42 0 0 1 .47-2.42 2.51 2.51 0 0 1 1.64-1.89 20.57 20.57 0 0 1 4.87-.62l2.43-.15a16.29 16.29 0 0 1 2.42-.13h.09a.29.29 0 0 1 .17.36l-.48-.17v-.37l.08-.39a3.22 3.22 0 0 1 .36-.67l.1-.19.05-.1c-.16 0 .78.58.42.3l-.3.28a12.7 12.7 0 0 1-1.26.92l-.15.1-.15-.11.42-.3c.37 1.14.82 2.24 1.28 3.34a11 11 0 0 0 2 2.89 10 10 0 0 0 6.19 2.87c4.75.32 9.3-2.06 12.89-5.13l2.7-2.35a9.3 9.3 0 0 0 2-2.81 8.42 8.42 0 0 0 .06-6.71 27 27 0 0 0-1.5-3.23l-1.64-3.25a17.33 17.33 0 0 1-.72-1.72 3.13 3.13 0 0 1-.17-2.09 12.08 12.08 0 0 1 .8-1.71l.43-.84.22-.42.11-.2.06-.1c.35.21-.82-.45.71.72l.24-.69v.3l-.78.38c-.14-.08-.1-.07-.1-.07l-.06-.06-.13-.14-.22-.27-.24-.26-.11-.17-.06-.08.92-.55v.08l.11.24.1.3.21.59.44 1.25-1.19-.58a.54.54 0 0 1-.23-.76.47.47 0 0 1 .18-.19l.1-.05h.32c4.16-.56 8.52.11 11.74-2.19a7 7 0 0 0 2.77-4.83c.26-1.93.09-4.07.34-6.11a44.11 44.11 0 0 0 .25-6.08 8.27 8.27 0 0 0-.72-2.78 6.08 6.08 0 0 0-1.82-2.11 7.31 7.31 0 0 0-2.62-1 22 22 0 0 1-3.11-.55 10.58 10.58 0 0 1-5.37-3.5 8.38 8.38 0 0 1-1.49-2.91 8.08 8.08 0 0 1-.39-1.54 8.59 8.59 0 0 1-.24-1.6 4 4 0 0 1 .09-1.76 5 5 0 0 1 1-1.4c.7-.78 1.44-1.5 2.15-2.24 1.38-1.48 2.84-3 3.33-4.8a4.33 4.33 0 0 0-.23-2.68 12.91 12.91 0 0 0-1.6-2.45c-1.27-1.57-2.71-3.08-3.9-4.84-.59-.85-1.14-1.7-1.78-2.46a5.74 5.74 0 0 0-2.13-1.81 2.46 2.46 0 0 0-2.45.32 10.78 10.78 0 0 0-2.14 2l-2.06 2.31a6 6 0 0 1-2.85 1.72 10.05 10.05 0 0 1-6.33-1c-1.92-.91-3.71-1.78-5.58-2.8a5.58 5.58 0 0 1-2.3-2.41 8 8 0 0 1-.73-3.19 24 24 0 0 1 .71-6.26l1.38-6c.17-1 .52-2 .1-2.71a5.28 5.28 0 0 0-2-1.93 13.91 13.91 0 0 0-5.65-1.78 8.8 8.8 0 0 0-5.66 1.07 4.34 4.34 0 0 0-1.72 2.19 11.65 11.65 0 0 0-.47 2.94 35.63 35.63 0 0 1-1.16 6.13 12 12 0 0 1-3.22 5.4 18.53 18.53 0 0 1-5.37 3.23c-1.87.81-4.17 1.43-6.23.53s-3.48-2.34-5.13-3.55a30.83 30.83 0 0 0-5.1-3.37 6 6 0 0 0-2.8-.73 1.11 1.11 0 0 0-1 .6.66.66 0 0 0 .39.87 3.05 3.05 0 0 1 .74 0c.18 0 .39-.18.87.11.33.49 0 .77-.08 1a1.86 1.86 0 0 1-.62.53l-.16.08s.05-.23 0-.26.15.08.23.11c3.36 2.07 6.33 4.62 9.55 6.8a9.82 9.82 0 0 0 5.42 1.6 12.72 12.72 0 0 0 5.48-1.59 39 39 0 0 0 4.9-3.11 14.5 14.5 0 0 0 3.58-4.64c1.81-3.47 2.18-7.39 2.45-11.32a2.47 2.47 0 0 1 .84-1.83 4.76 4.76 0 0 1 1.81-.76 10.77 10.77 0 0 1 3.84 0 11.16 11.16 0 0 1 3.64 1.21l.8.59a2.11 2.11 0 0 1 .36.31.14.14 0 0 0-.1 0 .25.25 0 0 0-.24.12c0 .08 0 0 0 0v-.14c-.18 0 .58-.23.47.07a.28.28 0 0 1 0 .09v.25c-.05.61-.14 1.27-.25 1.88-.43 2.5-1 4.94-1.42 7.41a16 16 0 0 0 0 7.35 6.34 6.34 0 0 0 1.83 3.06 12.67 12.67 0 0 0 3.09 2 29.1 29.1 0 0 0 6.81 3 8 8 0 0 0 6.89-1.16c1.9-1.53 3.06-3.77 5.46-5.39h-.05a.78.78 0 0 1 .39-.08 1.07 1.07 0 0 1 .36.1c1.53.81 2.18 2.1 3.06 3.21s1.68 2.27 2.6 3.34a33.76 33.76 0 0 1 2.75 3.33 3.87 3.87 0 0 1 .81 2.19 4 4 0 0 1-.74 2.23 24.52 24.52 0 0 1-2.8 3.31 20.1 20.1 0 0 0-2.7 3.12 3.64 3.64 0 0 0-.44 1.8 20.67 20.67 0 0 0 .25 2.06 12.12 12.12 0 0 0 1.24 3.89 11.11 11.11 0 0 0 6.16 5 20.61 20.61 0 0 0 4.1.85 4.77 4.77 0 0 1 3.53 2.89 10.07 10.07 0 0 1 .48 4.39l-.37 4.27c-.09 1.42-.09 2.79-.24 4.26a6.88 6.88 0 0 1-1.4 4.21 6.42 6.42 0 0 1-3.91 2.12c-.72.11-1.45.25-2.17.32l-2.14.1a32.67 32.67 0 0 0-4.18.32c-1 .27-1.55 1.94-2.19 3.07-1.77 2.47 0 5.16 1.13 7.66.64 1.26 1.32 2.5 1.91 3.83a9.08 9.08 0 0 1 .94 4.28 6.88 6.88 0 0 1-1.76 4c-1 1-2.12 2-3.22 2.89a22.5 22.5 0 0 1-7.48 4.21 9.84 9.84 0 0 1-8.44-.9 8.68 8.68 0 0 1-2.83-3.3c-.66-1.24-1.06-2.79-1.55-3.84l-.09-.1c.14.15-.08 0-.15 0h-.96l-1.34.1-2.7.18a20.13 20.13 0 0 0-5.3.63c-1.78.45-2.73 2.23-3 4a23.6 23.6 0 0 0-.33 5.31" fill="#2b2e34" data-color="3"></path>
            </g>
            <g>
                <path d="M54.15 72.37c-1 .68-2 1.19-3.19 1.85a6.11 6.11 0 0 0-1 .71 2.65 2.65 0 0 0-.8 1.53 5.19 5.19 0 0 0 .42 2.46c1 2.46 2.16 4.62 2.48 6.68s-.49 3.83-1.85 5.68-3 4.47-3.78 4.15a8.63 8.63 0 0 1-2.79-.62 39.47 39.47 0 0 1-3.26-1.3A34.57 34.57 0 0 0 36.71 92a5.33 5.33 0 0 0-3 0 5.94 5.94 0 0 0-2.5 1.6 36.06 36.06 0 0 0-4.4 6.66A22 22 0 0 0 25 104a11.52 11.52 0 0 0-.31 1.29 6.51 6.51 0 0 0 0 1.65 5.74 5.74 0 0 0 1.35 2.88 23.83 23.83 0 0 0 3.08 2.86c.94.79 1.88 1.57 2.7 2.33a6.14 6.14 0 0 1 1.47 1.7 13.92 13.92 0 0 1-.39 2.41c-.26 1.23-.44 2.79-.56 3.81a6.07 6.07 0 0 1-.57 2.18h.05c.05 0 .06.06 0 .06l-.09-.12h-.13a6.7 6.7 0 0 1-1.18.16c-1 .06-2.25 0-3.47 0a16.79 16.79 0 0 0-4.47.37 7.7 7.7 0 0 0-2.68 1.31 6.57 6.57 0 0 0-2 2.54 12.09 12.09 0 0 0-.89 4.79v3.7c0 1-.15 2.32-.11 3.82a10 10 0 0 0 .37 2.6 6.14 6.14 0 0 0 2 3 9.89 9.89 0 0 0 5 1.92c1.39.2 2.68.28 3.95.35a35.58 35.58 0 0 1 4 .35l.26.08s0 .1.18-.31c.23-.67.78-1 0-.39-.2.15-.22.1-.59.35s.07.19.11.28l.36 1a33.86 33.86 0 0 0 2 4.46 12.56 12.56 0 0 1 1.28 3v.05a1.86 1.86 0 0 1 .34 0h.09c.28.11-.37-.18-.41-.22a3.7 3.7 0 0 1-.78.64l-.8.49c-.38.23-.76.45-1.13.71a17.07 17.07 0 0 0-2.03 2.07 10.83 10.83 0 0 0-3.3 5.39 9 9 0 0 0 1.16 6.7 13.06 13.06 0 0 0 .86 1.24l.64.84c.39.52.77 1.07 1.15 1.65a27.92 27.92 0 0 0 2.95 4.21 7.43 7.43 0 0 0 .79.68 5.85 5.85 0 0 0 1.08.63A5.48 5.48 0 0 0 39 184a8.35 8.35 0 0 0 3.32-1.13 12.85 12.85 0 0 1 3.27-1.36 5.71 5.71 0 0 1 2.9.14 14.77 14.77 0 0 1 3.29 1.55 10.42 10.42 0 0 1 1.38 1c.13.12.26.24.38.37s0 .05.05.07a2.08 2.08 0 0 1 .32-.12h-.31a.9.9 0 0 0 0 .16l-.08.28c-.17.47-.48 1.11-.8 1.79s-.67 1.43-1 2.21a24.31 24.31 0 0 0-.81 2.36 9.8 9.8 0 0 0-.42 3 7.12 7.12 0 0 0 1 3.36 22.93 22.93 0 0 0 3.28 3.87 17.17 17.17 0 0 0 4.26 3 27.88 27.88 0 0 0 4.52 1.77c.78.22 1.55.42 2.37.57a11.33 11.33 0 0 0 2.85.25 4.5 4.5 0 0 0 .64-.11 5.14 5.14 0 0 0 .84-.35 6 6 0 0 0 .84-.67 9.22 9.22 0 0 0 1-1.12c.51-.71.9-1.37 1.3-2l2.12-3.89a15.1 15.1 0 0 1 1-1.6c.19-.2.08-.16.44-.23a15.43 15.43 0 0 1 3.66.84 35.6 35.6 0 0 0 4.46 1 2.5 2.5 0 0 1 2.17 1.43 9.07 9.07 0 0 1 .37 3.66c-.05 1.41-.22 2.83-.25 4.42a3.45 3.45 0 0 0 1.6 2.93 7.09 7.09 0 0 0 1.32.59l1.24.25a22.29 22.29 0 0 0 4.62 0c3-.3 5.85-.89 8.69-1.43l2.14-.39a4 4 0 0 0 2.34-1.11 2.88 2.88 0 0 0 .45-2.6 14.9 14.9 0 0 0-.68-2.15 25.09 25.09 0 0 1-1.28-4.08 3.71 3.71 0 0 1 .8-3.76 9.77 9.77 0 0 1 3.83-1.72l4.19-1.14a11.59 11.59 0 0 1 4.28-.82 3 3 0 0 1 2 1.09 8.45 8.45 0 0 1 1.12 1.93 16.87 16.87 0 0 0 2 3.69 4.18 4.18 0 0 0 5.66 1.71 4 4 0 0 0 1-.77A36.36 36.36 0 0 0 136 198c2-2 5.06-3.66 4.78-5.65a7.9 7.9 0 0 0-1.62-3.28 40.71 40.71 0 0 1-2.41-3.72 9.65 9.65 0 0 1-1-2.3 5.08 5.08 0 0 1 .07-2.94 13.28 13.28 0 0 1 2.86-3.95 25.37 25.37 0 0 0 2.48-3.18c.15-.24.45-.65.72-1a5.86 5.86 0 0 1 2.47-1.87 4.63 4.63 0 0 1 1.73-.21 9.53 9.53 0 0 1 4.92 2.2 38.43 38.43 0 0 0 3.33 2.35 4.49 4.49 0 0 0 1.37.58 2.4 2.4 0 0 0 1.13 0 1.83 1.83 0 0 0 .79-.55 7.55 7.55 0 0 0 .91-1.32c.6-1.09 1.17-2.38 1.77-3.68l1.81-3.82a5.9 5.9 0 0 0 .43-1.35c0-.12 0-.09 0 0s0 .11.06.14a11.76 11.76 0 0 0-1.36-.83c-.61-.33-1.3-.72-2-1.13a25.41 25.41 0 0 1-3.78-2.92 10.13 10.13 0 0 1-1.8-2.22 6.7 6.7 0 0 1-.89-3.33 21.77 21.77 0 0 1 .64-4.09l.32-1.66.31-1.86a8.57 8.57 0 0 1 2.31-4.65 6.65 6.65 0 0 1 2.62-1.49 12 12 0 0 1 2.3-.43c1.39-.13 2.57-.15 3.73-.23a14.85 14.85 0 0 0 2.9-.37c.25-.1.21-.15 0 .11s0 .13 0-.24a26.56 26.56 0 0 0-.48-3.2c-.21-1.22-.43-2.48-.58-3.76s-.24-2.67-.36-3.62a5.44 5.44 0 0 0-.58-2.09c0-.08.1.1.06 0a4 4 0 0 0-.92 0c-.94.14-2.18.47-3.52.71a18.55 18.55 0 0 1-2.1.27h-1.13l-1.33-.1a14.48 14.48 0 0 1-1.44-.37 9.25 9.25 0 0 1-1.42-.77 6.78 6.78 0 0 1-2-2.34 13.22 13.22 0 0 1-1.31-4.48c-.24-1.71-.34-3.3-.58-4.71a9.3 9.3 0 0 0-.2-1l-.3-1.41a6.66 6.66 0 0 1 .71-4.38 8 8 0 0 1 2.95-2.8c.91-.54 1.71-.93 2.42-1.32a20.19 20.19 0 0 0 2-1.16c.31-.19.56-.42.85-.63.1-.14.38-.32.32-.35a2.42 2.42 0 0 0-.09.4 6.64 6.64 0 0 0-.87-1.29 34 34 0 0 1-3.73-4.71c-.68-1.34-.86-1.85-1.15-2.27-.12-.19-.22-.27-.16-.2a1.27 1.27 0 0 0 .31.15A8.11 8.11 0 0 0 152 94c-.73.24-1.57.56-2.44.92L146.8 96a17.5 17.5 0 0 1-3.56 1 6.75 6.75 0 0 1-5.52-1.54 31.21 31.21 0 0 1-2.44-2.44c-.62-.67-1.34-1.36-2.12-2.27a10.1 10.1 0 0 1-2.33-4 6.81 6.81 0 0 1-.1-3.11 12.18 12.18 0 0 1 .65-2.13c.47-1.13.92-2 1.31-2.89a8.18 8.18 0 0 0 .67-1.91c.06-.47 0-.37-.06-.6a12.37 12.37 0 0 0-3.22-2.9 16.92 16.92 0 0 0-4.1-2.41 1.16 1.16 0 0 0-.8 0 4.3 4.3 0 0 0-1.28.88c-1 .91-1.76 2.07-3.18 3.69a15.06 15.06 0 0 1-4.87 3.66 13.47 13.47 0 0 1-5.76 1.19 32.6 32.6 0 0 1-4.83-.44l-1.09-.16a4.83 4.83 0 0 1-.59-.1l-1-.23a7.74 7.74 0 0 1-3.57-2.2 11.27 11.27 0 0 1-2.46-6.47 54.11 54.11 0 0 1-.11-5.55v-.94c0-.17 0 0 0 0a1.8 1.8 0 0 0 .36.7 2.06 2.06 0 0 0 .3.29l.08.09c.12.12.32.16.18.13a.68.68 0 0 0-.24-.08 7.62 7.62 0 0 0-1-.2 33.35 33.35 0 0 0-8.17.32c-.84.13-1.69.29-2.51.47-.37.1-.8.2-1.09.31l-.24.08a.33.33 0 0 0 .14 0l.27-.22c.34-.47.07-.22.06.49a22.4 22.4 0 0 0 .06 2.59c0 1 .12 2.08.07 3.27a9.61 9.61 0 0 1-1 4.18 6.65 6.65 0 0 1-1.67 2.06 9.94 9.94 0 0 1-1.49 1 12.78 12.78 0 0 1-2.79 1.14c-3.44.9-5.69.48-6.27 0-1-1.06 2.34-1.44 5.6-3 1.58-.8 3.38-1.91 3.62-3.49a12.18 12.18 0 0 0 .15-3.3c-.09-1.36-.28-2.7-.29-4.09s.09-3 1.4-4a12.52 12.52 0 0 1 4-1.24c1.31-.25 2.63-.4 3.94-.52a29.07 29.07 0 0 1 7.85.21 4.86 4.86 0 0 1 1.9.77 2.41 2.41 0 0 1 .78 1.94c.06 1.3 0 2.56 0 3.81 0 2.43 0 5.16 1.72 7a5.68 5.68 0 0 0 3.34 1.32c1.21.22 2.42.42 3.65.52a10.15 10.15 0 0 0 7-1.66c2.1-1.37 3.39-3.56 5-5.24a7.44 7.44 0 0 1 3.15-2.11 5 5 0 0 1 3.62.44 31.3 31.3 0 0 1 6.45 4.43 6.39 6.39 0 0 1 2.11 3 5.87 5.87 0 0 1-.48 3.56c-.48 1.18-1.12 2.36-1.65 3.61a7 7 0 0 0-.59 2.06 3.9 3.9 0 0 0 .48 2.22 16.63 16.63 0 0 0 2.56 3.22c.92 1 1.72 2 2.78 2.91a3.85 3.85 0 0 0 2.07 1 5.8 5.8 0 0 0 2.19-.21 36.43 36.43 0 0 0 3.8-1.34c1.22-.48 2.44-1 3.66-1.33s2.45-.58 3.24 0a7 7 0 0 1 1.88 3 17.23 17.23 0 0 0 2.27 3.4c1.58 2 3.78 4.23 2.08 5.85s-4.14 2.61-6.5 4a6 6 0 0 0-1.66 1.47 4.06 4.06 0 0 0-.7 2.24c.06 1.58.52 2.67.61 3.95.37 2.52.17 5.21 1.43 7.88 4.07 6.2 11.7-1.36 14 2.8.93 2.1.73 4.85 1.23 7.41.19 1.29.45 2.56.67 3.81s.49 2.58.06 3.45-1.74 1.14-3 1.28-2.52.21-3.8.29a12.39 12.39 0 0 0-3.91.66 4.62 4.62 0 0 0-2.59 3.12c-.4 1.29-.47 2.57-.73 3.8s-.56 2.46-.71 3.78a4.83 4.83 0 0 0 .15 2 5.51 5.51 0 0 0 1 1.74 17.08 17.08 0 0 0 2.88 2.56 27.94 27.94 0 0 0 3.25 2c1 .6 2.4 1.24 2.37 2.54a9.14 9.14 0 0 1-1.19 3.51c-.57 1.13-1.1 2.28-1.63 3.42a35.76 35.76 0 0 1-1.7 3.39 5.46 5.46 0 0 1-2.73 2.59 5.13 5.13 0 0 1-3.76-.43 20.89 20.89 0 0 1-3.16-2.1 20.23 20.23 0 0 0-3.06-2.06 2.88 2.88 0 0 0-3.17 0 14.13 14.13 0 0 0-2.23 2.82 37.59 37.59 0 0 1-2.45 2.88 7.61 7.61 0 0 0-1.93 2.8 4.7 4.7 0 0 0 .69 3.1c1.08 2.15 2.78 3.87 4 6.4a5.32 5.32 0 0 1 .42 2.2 4.68 4.68 0 0 1-.7 2.2 12.59 12.59 0 0 1-2.82 2.87 71.94 71.94 0 0 1-5.81 4.78 7 7 0 0 1-4.26 1.35 6.4 6.4 0 0 1-4.08-2.2 13.05 13.05 0 0 1-2.3-3.43 16.9 16.9 0 0 0-1.49-2.9 1 1 0 0 0-.87-.41 5.63 5.63 0 0 0-1.77.31c-1.5.46-3.24.94-4.78 1.34a13.28 13.28 0 0 0-3.86 1.42.88.88 0 0 0-.43.67 3.85 3.85 0 0 0 .13 1.47 31.35 31.35 0 0 0 1.43 4.33 9.25 9.25 0 0 1 .68 3.28 4.87 4.87 0 0 1-.24 1.37 4.08 4.08 0 0 1-.79 1.39 5.84 5.84 0 0 1-3.09 1.71l-.81.16-1.14.21-2.4.47c-1.62.31-3.29.62-5 .86a32.58 32.58 0 0 1-5.4.42 14.05 14.05 0 0 1-3.22-.4 9.25 9.25 0 0 1-1-.37 4 4 0 0 1-1.06-.56 9.75 9.75 0 0 1-1.1-.92 8.35 8.35 0 0 1-.9-1.45 4.46 4.46 0 0 1-.37-1.52c0-.26 0-.52-.07-.77s0-.29 0-.43l.07-1.31.15-2.42a7 7 0 0 0-.26-3.11c0-.09-.09 0 .06-.13 0 0-.13.16-.14.13a1.65 1.65 0 0 0-.32-.07l-.93-.17a44.75 44.75 0 0 1-5.19-1.3 10.08 10.08 0 0 0-1.71-.39H77v-.21a3.94 3.94 0 0 0 0-.77 2 2 0 0 0 0-.42 3.53 3.53 0 0 0-.12-.42.67.67 0 0 0 .06.12l.15.19a2 2 0 0 0 .3.28c.37.31-.75-.66.83.7v.07l-.21.3-.52.85-1.15 2-1.28 2.24a19.27 19.27 0 0 1-1.78 2.6 8.63 8.63 0 0 1-.84.87 8.23 8.23 0 0 1-.75.57l-.19.13-.37.2a6.86 6.86 0 0 1-.79.32 4.93 4.93 0 0 1-1.2.25h-.78a10.11 10.11 0 0 1-1-.05 21.88 21.88 0 0 1-3.1-.55 30.52 30.52 0 0 1-5.48-1.94 19.23 19.23 0 0 1-5.36-3.59c-.5-.48-.7-.71-1-1l-.93-1a14.05 14.05 0 0 1-2.12-3 9.25 9.25 0 0 1-.9-5.05 15.86 15.86 0 0 1 .83-3.51 45.46 45.46 0 0 1 2.1-4.94 4.24 4.24 0 0 0 .18-.5s-.09-.05.23 0l.41.14a8.17 8.17 0 0 0 .86.17c.36 0 .33.06.52.07a1.8 1.8 0 0 0 .4 0c.16 0 .08-.05-.59.29a13 13 0 0 0-1.08.75c-.7.52-.31.33-.45.34a15.2 15.2 0 0 0-2.7-1.64 5.27 5.27 0 0 0-2.39-.61 5.89 5.89 0 0 0-2.42.78l-.89.47-.73.37a10.3 10.3 0 0 1-1.08.46 10.9 10.9 0 0 1-1.38.4 8.7 8.7 0 0 1-1.83.15 7.69 7.69 0 0 1-3.9-1.22 11.2 11.2 0 0 1-3.21-3.4l-1.37-2.16c-.4-.63-.78-1.17-1.16-1.7l-.68-.89a14.21 14.21 0 0 1-1.1-1.64 11.62 11.62 0 0 1-1.49-4.28 10.72 10.72 0 0 1 .49-4.9 14.11 14.11 0 0 1 4.69-6.35A20.39 20.39 0 0 1 33 158l.82-.5a3.37 3.37 0 0 0 .39-.27c.06 0 0-.13.16.05a5.63 5.63 0 0 0 1 .94 3.24 3.24 0 0 0 .71.5 1 1 0 0 0 .33.15.69.69 0 0 0-.2 0 3.07 3.07 0 0 0-.74 0 6.73 6.73 0 0 0-1.34.17l-.44.07a22.8 22.8 0 0 0-1.4-3 30.71 30.71 0 0 1-2.08-4.78l-.12-.32s-.08-.08 0-.09a11.37 11.37 0 0 0 1.46-.68c.23-.12.47-.27.69-.41l.24-.13a2.66 2.66 0 0 0 .46-.35l-.12.16a2 2 0 0 0-.21.38c0 .1-.27.52-.36.77a5.53 5.53 0 0 0-.28.9c0 .1-.16.48-.23.71s-.06.17-.05.16a3.1 3.1 0 0 0-.42-.08c-1.05-.14-2.44-.19-4.08-.28a28.18 28.18 0 0 1-5.63-.79 10 10 0 0 1-4.26-2.31 8.77 8.77 0 0 1-2.52-5 18 18 0 0 1-.17-3.28l.11-2.25v-4.68a15.59 15.59 0 0 1 .49-3.4A9.12 9.12 0 0 1 22 123.6a17.55 17.55 0 0 1 1.87-.35c.59-.06 1.1-.07 1.65-.09h5.43c0 .07 0-.18.1.31.65 2.27 1.38 2.08.09 1.33a7.37 7.37 0 0 0-1.26-.62v-.1a5.44 5.44 0 0 0 .15-.54c.1-.56.18-1.1.28-1.92s.25-1.77.42-2.6l.39-2a.13.13 0 0 0 0-.06h.39a6.15 6.15 0 0 0 .74 0c.18 0 .59-.07.57-.06h.19-.15l-.26.11s-.4.18-.57.28a5.93 5.93 0 0 0-.62.4c-.06.07 0 0-.06 0s0-.05-.1-.14a4.88 4.88 0 0 0-.48-.53c-.83-.84-2-1.81-3.13-2.79-.57-.5-1.21-1-1.91-1.68a10.74 10.74 0 0 1-2.47-3.24A7.66 7.66 0 0 1 23 104a16.17 16.17 0 0 1 1.18-3c.82-1.62 1.58-2.9 2.42-4.3a24.84 24.84 0 0 1 3.3-4.57 8.59 8.59 0 0 1 1.78-1.4 6.9 6.9 0 0 1 2.82-.89 8.88 8.88 0 0 1 4 .72l4.23 1.79A17.61 17.61 0 0 0 46 93.48h.17c0 .07 0-.17.08.29a2 2 0 0 0 .11.49l-.07-.14a3.45 3.45 0 0 0-.2-.32l-.09-.11.1-.07a5 5 0 0 0 .44-.48c.67-.85 1.77-2.46 2.48-3.44a6.46 6.46 0 0 0 1.21-2.6c.37-1.37-.81-3.91-2.06-6.9a9 9 0 0 1-.79-3.46 4.56 4.56 0 0 1 1.4-3.07 7.59 7.59 0 0 1 1.48-1 35.43 35.43 0 0 0 3.65-2.08 19.38 19.38 0 0 1 5.87-2.94 6.43 6.43 0 0 1 5.1.92 11.54 11.54 0 0 1 2.83 3A53.43 53.43 0 0 0 71 75.8l1.08 1.2.3.32.07.08-.11-.09a.82.82 0 0 0-.2-.12.72.72 0 0 0-.2-.09 2 2 0 0 1 .5.31l-.1-.08-.41-.33c-.36-.34-.88-.86-1.48-1.52s-1.3-1.47-2-2.36-1.35-1.86-2.47-3a6.27 6.27 0 0 0-4.8-2.12 9.48 9.48 0 0 0-4.07 1.38 36 36 0 0 0-3.4 2.28c-.75.59-.17.67.44.7" fill="#2b2e34" data-color="3"></path>
            </g>
            <g>
                <path d="M54.2 72.35c-1.27.83-2.73 1.56-3.93 2.45a2.42 2.42 0 0 0-1 1.89 5.42 5.42 0 0 0 .44 2.21c.57 1.48 1.27 2.9 1.84 4.4A7.39 7.39 0 0 1 52 88a13.16 13.16 0 0 1-2.32 4.17c-.46.65-.91 1.31-1.4 1.94a8.44 8.44 0 0 1-.79.91c-.29.25-.6.63-1.13.52a10.46 10.46 0 0 1-3.64-.93c-1.16-.48-2.34-.9-3.47-1.42a15.09 15.09 0 0 0-3.5-1.2 4.81 4.81 0 0 0-3.48.79c-2 1.47-3.24 3.72-4.48 5.84s-2.59 4.3-3 6.76a5.47 5.47 0 0 0 .68 3.5 11.55 11.55 0 0 0 2.47 2.7l2.9 2.42c.47.41.95.8 1.41 1.23q.34.33.66.69l.3.36.15.2.07.11c0 .1.1 0 0 .32l-.09.36-.19-.58c0-.06.25-.12.29 0s0 0 0 .05v.53l-.09.54-.2 1.06c-.14.7-.21 1.41-.33 2.11l-.3 2.12a9.58 9.58 0 0 1-.19 1.07l-.15.53-.09.27c-.08.11 0 .13-.26.35l.12-.08s0-.27-.07-.24h.05a.18.18 0 0 1 .07 0l-.2.26h-.08l-.09-.12-.43-.55.6.23h.11a.2.2 0 0 1 0 .32h-.16a16.79 16.79 0 0 1-3 .19h-3a9.38 9.38 0 0 0-5.54 1.53A7.24 7.24 0 0 0 17.4 132a45.14 45.14 0 0 0-.18 5.93c0 2-.32 4 .11 5.91a6 6 0 0 0 3.44 4.33 15.88 15.88 0 0 0 5.73 1.16c1.95.2 4 .29 6 .59h-.13c.34 0 .33.26.33.22s-.11-.26-.3-.21-.13.1-.19.12v-.08l.09-.17a2.41 2.41 0 0 1 .25-.51l.16-.23s.06-.08 0 0-.15.21.22.4c.36-.09.13 0 .19-.06l-.1.09a3.72 3.72 0 0 1-.45.33 2.36 2.36 0 0 0-.4.24l.1-.34v.05l-.12-.14a1.81 1.81 0 0 1 .23.41 28.43 28.43 0 0 0 1.79 4.26l1.07 2.08a8.92 8.92 0 0 1 .86 2.29v-.12a.51.51 0 0 1 0 .17s.12-.08-.23-.27h-.18.57l-.22.13v.28a.26.26 0 0 0 .07.1L36 159h-.1a1.2 1.2 0 0 1-.21-.13l.47-.07a28 28 0 0 1-3.08 2.18 18.73 18.73 0 0 0-2.69 2.34 8.61 8.61 0 0 0-1.77 9.68 16 16 0 0 0 1.95 3c1.51 1.95 2.54 4.21 4.16 5.93l.77.67a5.17 5.17 0 0 0 4.31.87c1.49-.3 2.79-1.34 4.34-1.93a6.46 6.46 0 0 1 5-.13 16.7 16.7 0 0 1 4.31 2.44l.4.39.08.1a.13.13 0 0 0-.09-.07l.18.41c.1-.13-.17-.5-.3-.46h-.18l.14-.06.19-.05.11.76h-.3l-.09-.06a.41.41 0 0 1-.12-.39l.4.48h-.25s.32-.08.34-.29a.39.39 0 0 0-.13-.38l-.13-.08h.07l.14.07v.4a.13.13 0 0 1 0 .06v.08c-.53 1.38-1.17 2.67-1.71 4a24.1 24.1 0 0 0-1.25 4 6.66 6.66 0 0 0 .47 4 13.48 13.48 0 0 0 2.42 3.24 17.66 17.66 0 0 0 6.8 4.77 22.55 22.55 0 0 0 4 1.31 13.19 13.19 0 0 0 4.1.56 3.91 3.91 0 0 0 .68-.14l.65-.27.75-.59a13.37 13.37 0 0 0 1.47-2c.45-.7.89-1.4 1.3-2.16l1.25-2.21c.39-.74.93-1.47 1.39-2.2l.06-.08a.73.73 0 0 1 .3-.22l.33-.07a10.82 10.82 0 0 1 2.93.59c.91.29 1.82.46 2.73.68l2.75.63a3.55 3.55 0 0 1 1.5.59 2.68 2.68 0 0 1 1 1.38c.59 2 .24 3.94.19 5.81a19 19 0 0 0-.08 2.72 2.91 2.91 0 0 0 1.28 1.9 7 7 0 0 0 1.22.54h-.1l1.25.25a20.48 20.48 0 0 0 5.9-.28l5.93-1 3-.52a4.28 4.28 0 0 0 2.49-1 2.38 2.38 0 0 0 .35-2.38c-.31-.93-.56-1.85-.94-2.81a21.38 21.38 0 0 1-.9-3 5.71 5.71 0 0 1 0-3.25 4.32 4.32 0 0 1 2.43-2.26 22.85 22.85 0 0 1 2.93-1c2-.53 3.86-1 5.85-1.62a5.41 5.41 0 0 1 3.26 0 4.64 4.64 0 0 1 2.25 2.39 16 16 0 0 0 3 5 3.66 3.66 0 0 0 2.33 1.26 4.43 4.43 0 0 0 2.55-.85c1.59-1.16 3.08-2.42 4.62-3.78.77-.66 1.57-1.28 2.29-1.95a3.94 3.94 0 0 0 1.45-2.2 4.73 4.73 0 0 0-1-2.52l-1.66-2.53c-1.09-1.68-2.38-3.39-2.55-5.64s1.36-4.16 2.71-5.55c1.29-1.54 2.47-3 3.7-4.73a5.36 5.36 0 0 1 1.1-1.13 5.37 5.37 0 0 1 1.57-.91 5.93 5.93 0 0 1 1.68-.24 9 9 0 0 1 1.64.31 10 10 0 0 1 2.91 1.53l2.58 1.82a7.66 7.66 0 0 0 2.63 1.5 2.6 2.6 0 0 0 .92 0 2 2 0 0 0 .94-.9 6.75 6.75 0 0 0 .77-1.26l1.32-2.75L161 167a13.81 13.81 0 0 0 1.11-2.67v-.06.1a.37.37 0 0 0 .24.2c.28 0 .27-.05.36-.1.14-.22.08-.19.1-.2v-.07l-.07-.12a.49.49 0 0 1 .11.23.42.42 0 0 0-.14-.18l.22.26a.39.39 0 0 1-.21.42.36.36 0 0 1-.32 0 .39.39 0 0 1-.2-.49l.1.41a47 47 0 0 1-5.64-3.62c-1.72-1.4-3.56-3.09-4.08-5.47s.33-4.62.67-6.79.6-4.57 2.1-6.48a6.37 6.37 0 0 1 2.76-2.13 6.15 6.15 0 0 1 1.68-.45c.56-.09 1.14-.24 1.7-.28l3.36-.21 1.67-.13c.27 0 .54-.06.81-.11l.37-.09.15-.06c-.09-.25.78.47.37.49v.07l-.1.15c-.09-.12.23.26-.54 0-.12-.33 0-.18-.05-.23v-.15a1.58 1.58 0 0 0 0-.38l-.12-.82-.24-1.64-.51-3.33c-.2-1.11-.25-2.23-.38-3.35-.06-.55-.09-1.13-.19-1.66-.05-.26-.11-.53-.18-.79s-.23-.62-.18-.6l-.11-.12v-.13a.3.3 0 0 1 .15-.28.26.26 0 0 1 .17 0c.27.08.11 0 .18.08h.05a.35.35 0 0 0-.13 0 .34.34 0 0 0-.28.14c-.07.15 0 .14-.05.15a1 1 0 0 0 0 .12l.29.17a9.75 9.75 0 0 0-2.21.32l-2.23.44c-.76.09-1.52.21-2.3.27a13.72 13.72 0 0 1-2.31-.06l-1.47-.39a14.65 14.65 0 0 1-1.76-1 7.52 7.52 0 0 1-1.38-1.49 10.93 10.93 0 0 1-1.49-3.72c-.53-2.59-.56-5.22-1.14-7.75a7.86 7.86 0 0 1-.07-4 6.68 6.68 0 0 1 2.2-3.36 19.74 19.74 0 0 1 3.38-2.07 25.55 25.55 0 0 0 3.3-2v.06a2.09 2.09 0 0 1 .2-.22l.09-.08a.23.23 0 0 0 .08.31l-.13-.24v.13a.24.24 0 0 0 .33.08c.18-.16.08-.12.1-.12v.38-.07l-.43-.1c-.05.07 0 .07 0 .07v.14a17.51 17.51 0 0 0-1.51-2c-.57-.67-1.14-1.34-1.66-2a18.23 18.23 0 0 1-1.45-2.24l-.58-1.16-.3-.59-.14-.29-.08-.12h.15c.35-.55.08-.23.16-.33a.66.66 0 0 1 .21.08h-.1c0-.41.08.56.05.46h-.16L153 94l-.34.07a4 4 0 0 0-.67.21l-1.35.5-2.69 1.06a17 17 0 0 1-5.63 1.53 7.18 7.18 0 0 1-5.33-2.25c-1.4-1.38-2.66-2.81-4-4.23a9.13 9.13 0 0 1-2.53-5.23 6.71 6.71 0 0 1 .41-2.91 15.49 15.49 0 0 1 1.01-2.75 19.06 19.06 0 0 0 1.12-2.64 4.26 4.26 0 0 0 .22-.66.88.88 0 0 0 0-.28 2.59 2.59 0 0 0-.14-.29 5.8 5.8 0 0 0-1-1 34 34 0 0 0-4.64-3.36 10 10 0 0 0-1.27-.63 1.25 1.25 0 0 0-1.24 0 8.55 8.55 0 0 0-2.06 1.92 26.2 26.2 0 0 1-3.94 4.28 13.64 13.64 0 0 1-11 2.92 26.82 26.82 0 0 1-5.77-.86 7.86 7.86 0 0 1-4.41-3.78c-1.92-3.56-1.43-7.7-1.55-11.43v-.07h.46s.08-.06-.22-.12l.25.18a1.63 1.63 0 0 0 .58.85l.08.09h.08l.09.06s.18.06 0 .35c-.19.09-.18 0-.19 0h-.22a22.64 22.64 0 0 0-6.47-.17 32.48 32.48 0 0 0-3.25.43 21.72 21.72 0 0 0-3.17.73v-.47h-.09l.29-.23-.06.06.1-.14v-.08c0-.14.48 0 .4.15V66c0 .1-.05.21-.07.31a3.75 3.75 0 0 0 0 .67v1.39l.21 2.77a14.12 14.12 0 0 1-.16 2.86 8.77 8.77 0 0 1-.84 2.71 6.46 6.46 0 0 1-2.42 2.63 11.17 11.17 0 0 1-3.17 1.57 16.38 16.38 0 0 1-3.47.67 6.22 6.22 0 0 1-3.6-.58 1 1 0 0 1-.25-.49.69.69 0 0 1 .2-.56 2.27 2.27 0 0 1 .71-.45 13.92 13.92 0 0 1 1.42-.56c.94-.33 1.87-.65 2.78-1a14.43 14.43 0 0 0 2.56-1.4 3.83 3.83 0 0 0 1.68-2.13c.45-1.86.07-3.89 0-5.88a13.35 13.35 0 0 1 0-3 4 4 0 0 1 1.44-2.8c2.74-1.44 5.7-1.44 8.6-1.85 2.91-.16 5.88-.35 8.79.7a2.75 2.75 0 0 1 1 .73 2.57 2.57 0 0 1 .47 1.16 16.27 16.27 0 0 1 .06 2.21v4.35a8.25 8.25 0 0 0 1.06 4 4.33 4.33 0 0 0 3.45 1.84c1.42.21 2.85.44 4.28.6a10.64 10.64 0 0 0 4.15-.52 9.81 9.81 0 0 0 3.54-2.2 39.67 39.67 0 0 0 2.83-3.25 10.32 10.32 0 0 1 3.46-2.87 5.32 5.32 0 0 1 4.53.21 31.12 31.12 0 0 1 7.2 5.1 7 7 0 0 1 1.35 1.88 4.17 4.17 0 0 1 .33 2.34 14.25 14.25 0 0 1-1.51 4.18c-.57 1.33-1.34 2.65-1.31 3.94a6.12 6.12 0 0 0 1.84 3.44c1 1.07 2 2.1 3 3.14s2 2 3.37 1.87a17.17 17.17 0 0 0 4-1.17l4.12-1.49a9.67 9.67 0 0 1 2.17-.58 2.81 2.81 0 0 1 2.4.6c1.24 1.17 1.52 2.72 2.26 3.85a28.65 28.65 0 0 0 2.57 3.43 13.83 13.83 0 0 1 1.32 1.82 3.56 3.56 0 0 1 .6 2.39 2.5 2.5 0 0 1-.64 1.17 7.77 7.77 0 0 1-.86.77 15.61 15.61 0 0 1-1.87 1.25l-3.84 2a3.89 3.89 0 0 0-2.19 3c-.09 1.28.46 2.67.59 4.22.36 2.72.26 5.41 1.4 7.72v-.05a5.18 5.18 0 0 0 2.71 2.1 7.87 7.87 0 0 0 3.58 0c1.24-.22 2.47-.6 3.8-.79a5.27 5.27 0 0 1 2.13.08 3 3 0 0 1 1.76 1.43 17.22 17.22 0 0 1 1 5.26c.13 1.7.52 3.38.8 5.1.15.86.32 1.69.42 2.6a5.34 5.34 0 0 1 0 1.44 2.12 2.12 0 0 1-.82 1.42c-1.84 1.13-3.6.82-5.33 1.06s-3.5.1-5 .71a4.61 4.61 0 0 0-2.54 3.69c-.28 1.65-.57 3.45-.91 5.09a10.25 10.25 0 0 0-.31 2.47 3.86 3.86 0 0 0 .85 2.1 14.68 14.68 0 0 0 3.81 3.25l2.16 1.35a9.64 9.64 0 0 1 2.28 1.57 2.29 2.29 0 0 1 .59 1.53 5.28 5.28 0 0 1-.23 1.43 20 20 0 0 1-1.06 2.47c-.75 1.56-1.46 3.11-2.27 4.69s-1.43 3.29-3.13 4.41a5.36 5.36 0 0 1-5.48-.22 47.54 47.54 0 0 1-4.3-3 8.92 8.92 0 0 0-2.14-1.17 2 2 0 0 0-2 .2c-1 .79-1.74 2.51-2.88 3.62s-2.19 2.45-3.05 3.62-.44 2.57.32 3.93 1.71 2.6 2.6 4 1.82 2.87 1.68 4.74a6.66 6.66 0 0 1-2.55 4.38c-2.52 2-4.66 4.33-7.51 6.09a6.62 6.62 0 0 1-5 1 8.06 8.06 0 0 1-4.15-2.89 18 18 0 0 1-2.43-4.26c-.3-.68-.74-1.54-1-1.61a4.46 4.46 0 0 0-2 .3l-4.63 1.3c-.76.2-1.53.41-2.26.66s-1.55.66-1.58.89a5.08 5.08 0 0 0 .26 2.08c.2.74.47 1.47.75 2.22a13.75 13.75 0 0 1 1.21 4.8v.07a5 5 0 0 1-1.59 3.5 6.83 6.83 0 0 1-3.56 1.63c-2.34.44-4.66.9-7 1.29a37.51 37.51 0 0 1-7.16.75 14.09 14.09 0 0 1-3.66-.48 10.28 10.28 0 0 1-1.78-.74c-.58-.39-1-.8-1.49-1.2l-.8-1.28a3.45 3.45 0 0 1-.52-1.52 10.87 10.87 0 0 1-.14-1.51l.08-1.43L85 204a12.34 12.34 0 0 0 0-1.36c0-.22 0-.44-.07-.66s-.14-.52 0-.37l-.12-.18a.51.51 0 0 0 .17.21h-.06c-.05 0-.25-.39-.18-.49a.84.84 0 0 1 .13-.29l.07-.06.78.8-.06.06-.07.08-.11.08a.62.62 0 0 1-.26.09.61.61 0 0 1-.37-.1.63.63 0 0 1-.2-.26l.51.35a.77.77 0 0 1-.3-.06h-.11c-1.33-.2-2.65-.63-4-.93l-2-.5-1.8-.41-.5-.28s0 .11.31.24a.53.53 0 0 0 .37 0 .63.63 0 0 0 .2-.13.59.59 0 0 0 .1-.17v-.13l-.7-.6-.33.25v.15-1.2l-.06-.21v-.1l1-.35c0-.1-.11-.2 0-.08a2.09 2.09 0 0 0 .14.17c.08.06.12.12.21.19l.06.05-.76.82-.07-.08-.08-.17.35-.68c.47-.07.37 0 .45 0l.07.05.1.08.27.23.54.46.38.32-.28.41c-1.09 1.6-2 3.41-3 5.12-.5.87-1.14 1.7-1.7 2.55a8.06 8.06 0 0 1-2.25 2.18 8.73 8.73 0 0 1-1.48.62 7.11 7.11 0 0 1-1.59.24 26.18 26.18 0 0 1-9.41-2.26 20.59 20.59 0 0 1-7.83-5.67 15.1 15.1 0 0 1-2.82-4 9.89 9.89 0 0 1-.75-5 19.69 19.69 0 0 1 1.11-4.83c.29-.75.61-1.49.94-2.22l.92-1.94.27-.59h.29a3.16 3.16 0 0 1 .75.18c.19.05.36.07.54.11l.62.11a2.26 2.26 0 0 0 .45 0H54l.1 1.11H54l-.13.05-.27.14a6.22 6.22 0 0 0-.54.35l-.53.37-.24.18-.11.09v-.08a.69.69 0 0 0 .05-.15.56.56 0 0 0-.17-.52.51.51 0 0 0-.33-.15.63.63 0 0 0-.3.05l-.09.07a.54.54 0 0 0-.16.26.62.62 0 0 0 .22.6.5.5 0 0 0 .23.09h.1l-.42-.16c-1.36-1-3.25-2.17-4.83-2.1-1.65.22-3.27 1.6-5.27 2.17a10.86 10.86 0 0 1-3.05.43 8.46 8.46 0 0 1-3-.72 11 11 0 0 1-4.4-4.11c-.67-1-1.31-2.11-2-3.09s-1.48-2-2.14-3.07a11.59 11.59 0 0 1-1.74-7.39 12.66 12.66 0 0 1 3.16-6.9 25.68 25.68 0 0 1 5.9-4.58l.45-.07a.4.4 0 0 0-.32 0 .48.48 0 0 0-.23.19.69.69 0 0 0 0 .13v-.14a.49.49 0 0 1 .46-.26h.17l.1.06.13.11h.05l.92.86a6 6 0 0 0 .86.56l-.28.89a3.37 3.37 0 0 0-.55 0 2.67 2.67 0 0 0-.63 0c-.44.06-.85.1-1.31.18l-.39.07-.12-.38.25-.56a.46.46 0 0 0-.27.46c0 .07 0 0 0 0v-.06l-.06-.12-.11-.24-.23-.48-.45-1c-.28-.64-.63-1.29-1-2s-.63-1.36-.92-2.05-.55-1.44-.78-2.1v-.34c-.1.38.05.39 0 .4s0 0-.07-.17a.44.44 0 0 1 .09-.41.41.41 0 0 1 .19-.13h.14-.11a15.46 15.46 0 0 0 2.08-.83 3.27 3.27 0 0 0 .58-.39c.06 0 0-.06.32-.05s.29.14 0 0a.47.47 0 0 0-.31 0h-.06l.62.61a1.94 1.94 0 0 0-.27.43 8.94 8.94 0 0 0-.64 1.65v-.08l-.15.51-.08.25v.25a.75.75 0 0 1-.07.12.38.38 0 0 1-.16.12l-.48-.08-.11-.19a.5.5 0 0 1 0-.12l.37.45-.16-.8c-.15 1.4.17.51.08.78h-.71l-.82-.05-1.65-.12-3.3-.45a15.27 15.27 0 0 1-6.53-1.93 8.89 8.89 0 0 1-3.94-5.55 26.3 26.3 0 0 1-.2-6.75 44.23 44.23 0 0 1 .32-6.71 10 10 0 0 1 3.25-6 11 11 0 0 1 6.33-2.41c2.28-.17 4.45.06 6.7-.12h.23l.08.23a8 8 0 0 0 .83 2l.06.15c-.22.65-.65.2-.52.3h-.05l-.1-.08-.22-.16a4.39 4.39 0 0 0-.47-.27l-1-.49.39-.3v-.05c0-.06.05.08-.05-.13a.31.31 0 0 0-.42-.09c-.2.18-.11.14-.14.15a.34.34 0 0 1 .06-.12 3.07 3.07 0 0 1 .07-.42l.51-3.28c.16-1.12.39-2.17.62-3.3l.08-.19H33l.22.37-.14.18-.16-.56h.11l.17.58a2.48 2.48 0 0 0-.35.13l.12-.11-.72.41-.55.35a.34.34 0 0 1-.19.09c-.33 0-.33-.27-.33-.22s-.07.12.29.19l-.24-.1-.08-.12c-1.35-1.4-2.91-2.68-4.4-4a12.15 12.15 0 0 1-3.81-4.74 8.42 8.42 0 0 1 .18-6.07 42.12 42.12 0 0 1 2.8-5.37 28.85 28.85 0 0 1 3.41-5 7.63 7.63 0 0 1 5.34-2.81c2.11-.16 4 .78 5.85 1.56a33.11 33.11 0 0 0 5.59 2.06h.21l.15.14v-.06c0-.06-.06-.09-.23-.05s-.06.05-.1.08a.23.23 0 0 1 .12-.1c.19 0 .21.07.22.06.08.14.05.1.06.14v.26c0 .13.07.27.1.4l.2 1.17-.57-1a3.62 3.62 0 0 0-.37-.56l.13.07a.21.21 0 0 1-.19-.23.13.13 0 0 1 .06-.1.1.1 0 0 1 .06 0l-.07.06a9.05 9.05 0 0 0 1.24-1.52l1.15-1.6A8.41 8.41 0 0 0 50 87.08a6.93 6.93 0 0 0-.67-3.41c-.42-1.13-.91-2.25-1.38-3.37a7.43 7.43 0 0 1-.63-4.57 5 5 0 0 1 1.18-2 9 9 0 0 1 1.92-1.32c1.32-.76 2.67-1.48 4-2.3a17.85 17.85 0 0 1 4.07-2.16 7 7 0 0 1 4.57-.33 7.6 7.6 0 0 1 3.77 2.65l2.79 3.65a36.58 36.58 0 0 0 2.92 3.54l-.15.15a1.5 1.5 0 0 0-.47-.28l.08-.2h.08l.15.09a1.05 1.05 0 0 1 .27.2l-.13.16-.1-.08a46.64 46.64 0 0 1-4-4.35c-1.24-1.51-2.27-3.26-4-4.22a5.68 5.68 0 0 0-2.75-.81 7.59 7.59 0 0 0-2.83.6 33.56 33.56 0 0 0-5 3c-.16.13-.44.37-.27.48a.9.9 0 0 0 .32.09 1.14 1.14 0 0 1 .41.07m-.11 0c0 .07-.2 0-.32 0a.83.83 0 0 1-.37-.11c-.16-.09-.09-.32 0-.4a2.23 2.23 0 0 1 .27-.26 33.9 33.9 0 0 1 5-3.09 7.9 7.9 0 0 1 2.88-.61 5.8 5.8 0 0 1 2.84.81c1.77 1 2.82 2.75 4 4.25a46.28 46.28 0 0 0 4 4.31l.1.08-.13.16a2.07 2.07 0 0 0-.24-.17l-.07-.04h-.13l.08-.2a1.84 1.84 0 0 1 .54.32l-.15.15a36.44 36.44 0 0 1-2.9-3.56l-2.8-3.64A7.3 7.3 0 0 0 63 67.8a6.62 6.62 0 0 0-4.41.33 18.13 18.13 0 0 0-4 2.15c-1.3.83-2.65 1.55-4 2.32a8.37 8.37 0 0 0-1.85 1.28 4.57 4.57 0 0 0-1.08 1.9 7.09 7.09 0 0 0 .64 4.37c.47 1.12 1 2.23 1.4 3.37a7.06 7.06 0 0 1 .69 3.65 8.75 8.75 0 0 1-1.86 3.54l-1.16 1.61a8.72 8.72 0 0 1-1.24 1.54l-.07.05h.05a.16.16 0 0 0 0-.1.21.21 0 0 0-.1-.23h-.07l.14.07a3.58 3.58 0 0 1 .41.63l-.36.19-.14-.57v-.23.05c0 .05 0 .08.22.06a.15.15 0 0 0 .1-.09l-.1.1c-.1.1-.19 0-.24-.06a.12.12 0 0 1 0-.08l.15.14h-.14a31.3 31.3 0 0 1-5.7-2.06c-1.85-.78-3.69-1.67-5.67-1.5a7.15 7.15 0 0 0-5 2.67 28.56 28.56 0 0 0-3.34 4.94 42.1 42.1 0 0 0-2.73 5.3 7.92 7.92 0 0 0-.17 5.69 11.61 11.61 0 0 0 3.68 4.51c1.48 1.34 3.05 2.6 4.48 4.08l.09.11a.36.36 0 0 1 0 .09l-.24-.1c.39.07.3.27.32.22s0-.16-.3-.19-.13.06-.15.07l.6-.39a3 3 0 0 1 .5-.19l.12-.11a2 2 0 0 1 .48-.19l.16.58h-.27l-.16-.56-.14.17.21.37h-.33a3.38 3.38 0 0 1-.45 0h-.77l.28-.19c-.2 1-.44 2.16-.59 3.24l-.5 3.3a4.8 4.8 0 0 1-.23.67c.05-.08 0-.06 0-.06v.09s.07 0-.14.16a.31.31 0 0 1-.42-.09c-.1-.21 0-.08-.05-.13v-.57l.4.19 1.11.53a3.6 3.6 0 0 1 .54.31l.26.18.12.1.06.06c.14.1-.3-.35-.52.3.05.17.05.12.06.15a5.26 5.26 0 0 1-.56-1.11l-.36-1.06.31.21c-2.18.18-4.48 0-6.64.14a10.25 10.25 0 0 0-5.93 2.27 9.24 9.24 0 0 0-3 5.54 44.2 44.2 0 0 0-.28 6.61 25.13 25.13 0 0 0 .2 6.54 8.06 8.06 0 0 0 3.61 5.05 14.56 14.56 0 0 0 6.18 1.78l3.32.24 1.68.12.84.05h.88c-.09.27.25-.61.1.79l-.16-.8.37.45a.41.41 0 0 0 0-.11L32 152l-.47-.08a.38.38 0 0 0-.16.12l-.07.1v-.15l.06-.19.13-.37v-.08a8.52 8.52 0 0 1 .65-1.7 2.81 2.81 0 0 1 .39-.64l.62.6-.1.07a.45.45 0 0 1-.32 0c-.25-.14-.17-.06 0 0s.26-.06.31-.06a3.6 3.6 0 0 1-.82.56h.06a16.6 16.6 0 0 1-2.22 1.14h-.11.07a.52.52 0 0 0 .17-.12.43.43 0 0 0 .09-.38c-.05-.15-.06-.12-.05-.11s.15.06.05.46v-.34c.26.74.48 1.39.77 2.07s.59 1.35.9 2 .68 1.3 1 2l.49 1 .24.53.12.26.06.13v.12a.48.48 0 0 1-.27.5l.25-.56-.51-.31c.44-.09.93-.14 1.41-.2a3 3 0 0 1 .73 0 3.06 3.06 0 0 1 .8.07l-.27.88a5.17 5.17 0 0 1-1.21-.74l-1.1-1v.05a.4.4 0 0 0 .15 0 .48.48 0 0 0 .44-.25c.08-.2 0-.17 0-.08a.58.58 0 0 1 0 .14.52.52 0 0 1-.24.2.47.47 0 0 1-.35 0l.45-.07a25.16 25.16 0 0 0-5.74 4.48 11.63 11.63 0 0 0-2.9 6.37 10.56 10.56 0 0 0 1.64 6.76c.62 1 1.4 1.93 2.1 3s1.36 2.08 2 3.12a12.93 12.93 0 0 0 1.77 2.2 8.45 8.45 0 0 0 2.57 1.5 7.45 7.45 0 0 0 2.62.63 10.25 10.25 0 0 0 2.7-.4c1.76-.46 3.22-1.87 5.47-2.23a6.08 6.08 0 0 1 3.09.76 15.42 15.42 0 0 1 2.62 1.62l-.43-.15a.38.38 0 0 1 .15 0 .49.49 0 0 1 .25.1.59.59 0 0 1 .22.61.5.5 0 0 1-.16.28l-.1.08h-.06a.65.65 0 0 1-.31 0 .5.5 0 0 1-.32-.15.57.57 0 0 1-.17-.53c.05-.2 0-.1.05-.16a.61.61 0 0 1 .07-.1.71.71 0 0 1 .12-.13l.16-.13.3-.23.6-.41c.2-.13.39-.29.6-.4l.35-.16.19-.08h.11l.1 1.11h.06a3.4 3.4 0 0 1-.78 0c-.11 0-.37 0-.6-.1s-.46-.09-.67-.15a4.06 4.06 0 0 1-.41-.13l.6-.55a7.13 7.13 0 0 1-.26.78l-.26.55-.5 1.07c-.32.72-.64 1.44-.92 2.16a18.51 18.51 0 0 0-1.18 4.45 8.71 8.71 0 0 0 .66 4.34 13.89 13.89 0 0 0 2.62 3.73 19.47 19.47 0 0 0 7.44 5.39 25.28 25.28 0 0 0 9 2.17 6.19 6.19 0 0 0 1.36-.19 9.49 9.49 0 0 0 1.27-.54h-.05a7.11 7.11 0 0 0 2-1.95c.53-.81 1.11-1.56 1.61-2.42 1-1.7 1.88-3.48 3-5.17l.1.73-.54-.46-.26-.22s-.08-.06 0 0l.08.05c.07 0 0 .1.44 0l.35-.68-.07-.16-.07-.08-.76.81-.07-.06c-.12-.1-.27-.25-.4-.37l-.12-.15a1.22 1.22 0 0 1-.24-.43l-.66-2.37 1.71 2a1.12 1.12 0 0 1 .1.31l.06.2.06.53v1.34l-.34.25-.7-.6v-.05a1.18 1.18 0 0 1 .11-.19.66.66 0 0 1 .2-.14.55.55 0 0 1 .38 0c.32.14.28.21.33.26l-.5-.27c.73.11 1.48.3 2.16.46l1.94.49c1.31.3 2.57.71 3.93.91H85h.27c.11 0 .16 0 0 0l.51.36a.47.47 0 0 0-.19-.25.62.62 0 0 0-.35-.1.57.57 0 0 0-.25.08h-.07l.08-.09.77.8-.1.08.06-.06a.6.6 0 0 0 .13-.28c.07-.1-.12-.51-.17-.49-.18-.13-.05 0-.05 0a.66.66 0 0 1 .23.29l-.12-.18a1.79 1.79 0 0 1 .35 1c0 .26.06.5.08.75a12.35 12.35 0 0 1 0 1.49l-.18 2.97-.08 1.4a9.83 9.83 0 0 0 .13 1.32c0 .84.67 1.48 1.1 2.28h-.05c1.52 1.68 3.86 2 6.16 2.09a37.05 37.05 0 0 0 7-.73c2.32-.38 4.66-.84 7-1.27a5.91 5.91 0 0 0 2.94-1.28 3.82 3.82 0 0 0 1.25-2.82v.07a12.55 12.55 0 0 0-1.14-4.42c-.28-.75-.56-1.52-.78-2.32a5.87 5.87 0 0 1-.27-2.63c.25-.76.74-.91 1.11-1.16a10.18 10.18 0 0 1 1.18-.5c.78-.26 1.56-.47 2.34-.68l4.59-1.29a5.21 5.21 0 0 1 2.65-.3 2.13 2.13 0 0 1 1.15 1.08c.21.38.38.76.55 1.12a17.26 17.26 0 0 0 2.29 4 7 7 0 0 0 3.56 2.52 5.55 5.55 0 0 0 4.17-.87c2.6-1.6 4.86-4 7.34-6a5.65 5.65 0 0 0 2.2-3.65c.13-1.4-.68-2.77-1.52-4.09s-1.85-2.57-2.64-4a7.59 7.59 0 0 1-.91-2.4 3.47 3.47 0 0 1 .65-2.64c1-1.39 2.12-2.46 3.11-3.7a15.05 15.05 0 0 0 1.44-1.85 7.1 7.1 0 0 1 1.66-2 3.08 3.08 0 0 1 3-.39 9.64 9.64 0 0 1 2.42 1.32 48.87 48.87 0 0 0 4.2 3 4.32 4.32 0 0 0 4.4.27c1.3-.81 2-2.49 2.76-4s1.51-3.11 2.26-4.67a18.1 18.1 0 0 0 1-2.31 3.88 3.88 0 0 0 .19-1.13 1.17 1.17 0 0 0-.34-.83 8.83 8.83 0 0 0-2-1.36l-2.24-1.4a15.55 15.55 0 0 1-4-3.49 5 5 0 0 1-1.05-2.66 10.57 10.57 0 0 1 .32-2.68c.36-1.76.62-3.38.92-5.15s1.26-3.74 3.19-4.45c1.77-.7 3.59-.59 5.27-.78s3.62-.07 4.79-.85c.49-.3.51-1.11.43-1.92s-.26-1.69-.41-2.54c-.28-1.7-.67-3.41-.81-5.18a16.57 16.57 0 0 0-.9-4.93c-.51-1-1.63-1.16-2.85-1s-2.45.55-3.75.78a8.8 8.8 0 0 1-4 0 6.11 6.11 0 0 1-3.26-2.52c-1.25-2.59-1.12-5.46-1.46-8-.1-1.35-.68-2.75-.58-4.39a4.31 4.31 0 0 1 .87-2.26 6.63 6.63 0 0 1 1.79-1.5l3.86-2a14.37 14.37 0 0 0 1.76-1.15c.55-.45 1.07-.9 1.16-1.4.17-1.1-.86-2.36-1.71-3.44a30.5 30.5 0 0 1-2.65-3.54c-.8-1.31-1.13-2.8-2.06-3.65s-2.42-.3-3.72.16l-4.09 1.47a17.31 17.31 0 0 1-4.3 1.21A4.13 4.13 0 0 1 140 94a8.6 8.6 0 0 1-1.67-1.52c-1-1.07-2-2.11-3-3.21a6.84 6.84 0 0 1-2-4.07c0-1.67.82-3 1.38-4.27a14.43 14.43 0 0 0 1.47-4 4.12 4.12 0 0 0-1.45-3.56 30.73 30.73 0 0 0-7-5 4.54 4.54 0 0 0-3.89-.21 9.63 9.63 0 0 0-3.19 2.66 41.1 41.1 0 0 1-2.89 3.3 10.49 10.49 0 0 1-3.76 2.44 11.52 11.52 0 0 1-4.44.54c-1.46-.16-2.9-.41-4.35-.61a8.2 8.2 0 0 1-2.18-.6 4 4 0 0 1-1.74-1.57 8.92 8.92 0 0 1-1.21-4.32c-.07-1.48 0-2.92 0-4.36s.24-3.07-1.12-3.52c-2.59-.94-5.62-.83-8.46-.66-2.79.38-5.88.44-8.33 1.75-1.48 1.15-1.36 3.39-1.18 5.31s.47 4 0 6A4.38 4.38 0 0 1 79.08 77a14.42 14.42 0 0 1-2.67 1.46c-.93.4-1.88.72-2.82 1a13.91 13.91 0 0 0-1.37.53 2 2 0 0 0-.53.33c-.1.12-.08.09 0 .27a6 6 0 0 0 3.19.42 15.88 15.88 0 0 0 3.34-.63 10.4 10.4 0 0 0 3-1.5 5.93 5.93 0 0 0 2.24-2.39 8.64 8.64 0 0 0 .82-2.58 13.43 13.43 0 0 0 .11-2.76l-.06-2.8v-1.41a3.55 3.55 0 0 1 0-.73 1.61 1.61 0 0 1 .08-.38v.07c-.08.1.37.29.4.15v.07l-.1.15-.26.21a.56.56 0 0 1-.36.06l-1-.14 1-.33a21.11 21.11 0 0 1 3.24-.74 30.32 30.32 0 0 1 3.28-.42 22.88 22.88 0 0 1 6.66.2h.28l-.21.39c.15.1 0 0 .06 0h-.08a.66.66 0 0 1-.17-.12l-.15-.03a2.14 2.14 0 0 1-.74-1.12l.26.17c-.35 0-.24-.19-.28-.2v-.16h.47v.06c.11 2-.07 3.88.08 5.8a13.38 13.38 0 0 0 1.39 5.48 7.47 7.47 0 0 0 4.13 3.62 26.43 26.43 0 0 0 5.67.85 13.22 13.22 0 0 0 10.72-2.8 26 26 0 0 0 3.9-4.22 9.12 9.12 0 0 1 2.16-2 1.65 1.65 0 0 1 1.54 0 9.5 9.5 0 0 1 1.32.65 36.67 36.67 0 0 1 4.72 3.4 6.25 6.25 0 0 1 1 1.09 2.92 2.92 0 0 1 .17.36 1.09 1.09 0 0 1 0 .44 7.37 7.37 0 0 1-.23.71 20.58 20.58 0 0 1-1.09 2.72 15.68 15.68 0 0 0-1 2.67 6.23 6.23 0 0 0-.39 2.77 8.78 8.78 0 0 0 2.45 5c1.31 1.39 2.61 2.85 4 4.18a6.82 6.82 0 0 0 5 2.13 16.64 16.64 0 0 0 5.48-1.52l2.7-1.06 1.36-.52a5.83 5.83 0 0 1 .71-.22l.36-.08h.35c0-.1.05.86 0 .45h-.1a2.38 2.38 0 0 1-.41-.23c.08-.1-.19.23.15-.32.31 0 .16.06.21 0l.07.08.1.15.14.29.3.6.6 1.18a17.22 17.22 0 0 0 1.42 2.17c.52.7 1.08 1.36 1.65 2a15.14 15.14 0 0 1 1.61 2.2v.15l-.44-.1v-.5s-.06 0 .13-.17a.25.25 0 0 1 .33.1c.05.13 0 .13 0 .13l-.12-.24a.26.26 0 0 1 .1.36v.06l.05.09-.1.09a.8.8 0 0 0-.13.13 26.28 26.28 0 0 1-3.34 2.09 19.19 19.19 0 0 0-3.3 2 6.17 6.17 0 0 0-2 3.1 7.34 7.34 0 0 0 .09 3.75c.59 2.56.63 5.22 1.16 7.75a10.32 10.32 0 0 0 1.41 3.51 6.41 6.41 0 0 0 1.28 1.37 13.93 13.93 0 0 0 1.64.94l1.41.36a11.88 11.88 0 0 0 2.23.06c.74-.06 1.48-.18 2.22-.27l2.23-.45a9.29 9.29 0 0 1 2.28-.32h.26v.31l-.06.16a.32.32 0 0 1-.27.14h-.15c.07 0-.1 0 .17.06a.33.33 0 0 0 .17 0 .3.3 0 0 0 .14-.29v-.09l-.11-.12c.3.3.22.36.31.53l.14.42a8 8 0 0 1 .19.85c.11.58.13 1.12.2 1.69.13 1.11.19 2.24.39 3.33l.51 3.32.25 1.69.13.84a1.71 1.71 0 0 1 0 .45v.19s.06.12-.05-.21c-.77-.24-.44.12-.53 0 0-.07.09-.14.14-.21l.07-.09c-.4 0 .46.72.37.48l-.24.09a3.63 3.63 0 0 1-.45.1 8.46 8.46 0 0 1-.86.12l-1.68.13-3.35.21c-.56 0-1.08.19-1.61.28a5.37 5.37 0 0 0-1.57.42 5.83 5.83 0 0 0-2.49 1.93c-1.34 1.7-1.55 4-2 6.19s-1.16 4.42-.65 6.5 2.14 3.7 3.85 5.07a50.26 50.26 0 0 0 5.68 3.64l.09.41a.36.36 0 0 0-.19-.46.32.32 0 0 0-.3 0 .38.38 0 0 0-.2.41l.18.24a.5.5 0 0 1-.22-.31v.08l-.07-.13a.47.47 0 0 1 0-.17v-.1l.1-.2c.09-.06.08-.13.36-.11a.39.39 0 0 1 .25.2.4.4 0 0 1 0 .15 11.61 11.61 0 0 1-1.17 3l-1.32 2.79-1.34 2.8a7.33 7.33 0 0 1-.84 1.36 2.52 2.52 0 0 1-1.28 1.15 1.57 1.57 0 0 1-.74.1 5.39 5.39 0 0 1-.61-.07 8.33 8.33 0 0 1-2.85-1.59L150.1 172a9.18 9.18 0 0 0-2.68-1.41 7.32 7.32 0 0 0-1.47-.27 5 5 0 0 0-1.44.22h.07a4.66 4.66 0 0 0-1.32.74 5 5 0 0 0-.94 1c-1.14 1.57-2.43 3.25-3.73 4.8s-2.65 3.05-2.48 4.95 1.33 3.58 2.42 5.23l1.67 2.52a5.45 5.45 0 0 1 1.1 3.06 4.72 4.72 0 0 1-1.73 2.77c-.76.71-1.56 1.33-2.31 2a60.22 60.22 0 0 1-4.73 3.87 5.14 5.14 0 0 1-3.1 1 4.6 4.6 0 0 1-2.9-1.51 17 17 0 0 1-3.17-5.27 3.71 3.71 0 0 0-1.78-1.94 4.62 4.62 0 0 0-2.68 0c-1.88.57-3.88 1.11-5.8 1.63a19.55 19.55 0 0 0-2.8.93 3.37 3.37 0 0 0-1.92 1.71 4.9 4.9 0 0 0 0 2.71 21.41 21.41 0 0 0 .88 2.82c.36.92.66 1.94 1 2.93a3.33 3.33 0 0 1-.6 3.3 5.21 5.21 0 0 1-3 1.26l-3 .53c-4 .54-7.93 1.71-12.13 1.25l-1.25-.26a6.56 6.56 0 0 1-1.4-.64h.05a3.87 3.87 0 0 1-1.8-2.63 6 6 0 0 1 0-1.52l.09-1.42c.07-1.88.37-3.83-.12-5.47a1.93 1.93 0 0 0-1.75-1.34l-2.78-.65c-.93-.22-1.87-.4-2.77-.7a11 11 0 0 0-2.6-.56h-.18c.09 0 .16-.13.11-.06l-.1.12c-.44.7-.92 1.33-1.33 2.09L74.32 202c-.4.74-.85 1.47-1.33 2.2a13 13 0 0 1-1.59 2.1l-.92.74-.79.33a4.63 4.63 0 0 1-.84.17 13.65 13.65 0 0 1-4.35-.59 24.09 24.09 0 0 1-4.13-1.37 18.68 18.68 0 0 1-7.07-5 14.17 14.17 0 0 1-2.63-3.58 7.49 7.49 0 0 1-.51-4.41 23.93 23.93 0 0 1 1.31-4.16c.57-1.35 1.2-2.62 1.7-3.9v.08l.05-.25.17.46h.05l-.13-.08a.36.36 0 0 1-.12-.38c0-.21.35-.32.33-.29h.27l.4.48a.39.39 0 0 0-.13-.38.16.16 0 0 0-.08-.06h-.1l.11.75h-.35c-.14 0-.4-.33-.31-.46l.18.41a.76.76 0 0 1-.19-.21l.08.1-.37-.35a16.06 16.06 0 0 0-4-2.3 5.72 5.72 0 0 0-4.43.1c-1.45.54-2.76 1.59-4.46 1.95a5.91 5.91 0 0 1-4.85-1l-.81-.7c-1.72-1.85-2.72-4.1-4.19-6a16.28 16.28 0 0 1-2-3.12 9.28 9.28 0 0 1 1.9-10.47 20.09 20.09 0 0 1 2.8-2.42c1-.73 2.21-1.33 2.9-2l.48-.08c-.08-.06 0 0 .06 0l.13.07.14.07.11.06a.36.36 0 0 1 .07.1v.29l-.22.13h-.21.09-.48a.31.31 0 0 1-.24-.24v-.06.07-.11a10 10 0 0 0-.8-2l-1-2.07a28.55 28.55 0 0 1-1.8-4.32.32.32 0 0 1 0-.14l-.12-.15-.08-.21.18-.13a4.25 4.25 0 0 1 .46-.27 1.83 1.83 0 0 0 .36-.26l.09-.08c.07 0-.15 0 .21-.07.39.17.23.27.23.4s0 .06-.08.1l-.13.17a2.09 2.09 0 0 0-.19.4l-.08.17v.09c-.06 0 .13 0-.2.13s-.32-.2-.3-.21 0 .24.32.22h-.13c-1.93-.3-3.88-.39-5.9-.6a16.21 16.21 0 0 1-5.9-1.22 6.53 6.53 0 0 1-4.11-4.64c-.44-2-.08-4-.1-6a48.06 48.06 0 0 1 .2-6 7.77 7.77 0 0 1 2.95-5.21 9.9 9.9 0 0 1 5.79-1.6h3a16.06 16.06 0 0 0 2.94-.16h-.05.1a.19.19 0 0 0-.06.27v.05h.1L32 125l.09.12h-.08l-.2.26v.05c-.05 0-.14-.24-.08-.25l.11-.08c-.14.07.07-.23.08-.35l.14-.5c.08-.34.14-.69.19-1l.31-2.12c.12-.71.2-1.43.34-2.13l.2-1 .09-.52v-.46c0 .1.3 0 .27 0l-.29-.22c-.07.26 0 .07 0 .09l-.06-.08-.13-.18-.29-.35c-.2-.23-.41-.46-.63-.67-.44-.42-.93-.82-1.4-1.22l-2.83-2.43a12 12 0 0 1-2.58-2.96 5.72 5.72 0 0 1-.7-3.69c.45-2.51 1.85-4.68 3.07-6.83s2.53-4.38 4.59-5.92a5 5 0 0 1 3.66-.81A14.94 14.94 0 0 1 39.42 93c1.13.52 2.3.94 3.46 1.42a10.44 10.44 0 0 0 3.55.94c.3.09.64-.21.91-.47a8 8 0 0 0 .77-.89c.49-.62.94-1.28 1.4-1.92A12.9 12.9 0 0 0 51.87 88a7.21 7.21 0 0 0-.51-4.6c-.56-1.49-1.26-2.92-1.83-4.4a5.45 5.45 0 0 1-.43-2.26 2.52 2.52 0 0 1 1.1-2 36.34 36.34 0 0 1 3.9-2.31" fill="#2b2e34" data-color="3"></path>
            </g>
            <g>
                <path d="M102.16 93.06a44.28 44.28 0 0 1 22.24 10.14c6.2 5.15 9.53 12.88 10.88 20.74a80.09 80.09 0 0 1 .9 15c-.09 5.21-.45 9.8-2.1 14.33a40.63 40.63 0 0 1-7.2 12.54 44.87 44.87 0 0 1-11.31 9.46 37.33 37.33 0 0 1-3.3 1.77l-3.46 1.49a45 45 0 0 1-7.31 1.94 48.47 48.47 0 0 1-7.6.78c-1.28 0-2.55-.13-3.84-.19l-1.93-.12-1.9-.32-3.81-.68-3.71-1.06-1.87-.54-1.8-.73c-1.2-.52-2.43-.94-3.6-1.54A36.72 36.72 0 0 1 59 166.25a33.45 33.45 0 0 1-3.71-5.71 42.65 42.65 0 0 1-2.46-6.36 57.63 57.63 0 0 1-1.55-6.61c-.26-2.22-.67-4.46-.78-6.68a91.21 91.21 0 0 1 .53-19.19 43.39 43.39 0 0 1 .88-5.32 26.71 26.71 0 0 1 1.7-5.61l1.21-2.77 1.6-2.55a30.07 30.07 0 0 1 3.77-4.65c1.28-1.25 2.5-2.22 3.58-3.21l3.42-2.45c1.19-.7 2.42-1.41 3.81-2.15a45.11 45.11 0 0 1 4.89-2 51.89 51.89 0 0 1 9.5-2.49c3.68-.55 7-.35 7.59.68.42 1-1 1.63-2.5 2.11s-3.28.8-3.72.91c-9.24 2-17.67 4.75-24 10.63a29.18 29.18 0 0 0-7.27 12l-.91 3.42c-.24 1.14-.4 2.29-.6 3.43-.42 2.28-.64 4.59-.94 6.88a86.07 86.07 0 0 0-.27 13.81 50.31 50.31 0 0 0 2.89 13.38 34.17 34.17 0 0 0 7.25 11.36 36 36 0 0 0 10.8 7.55A48.7 48.7 0 0 0 98.55 179a41.39 41.39 0 0 0 27.34-15.37 37.19 37.19 0 0 0 6.84-13.43 27 27 0 0 0 .72-3.56c.12-1.2.33-2.29.35-3.73.15-2.73.23-5.44.18-8.1 0-9.6-1.95-19.33-7.62-26.54a20.75 20.75 0 0 0-2.26-2.6l-2.54-2.37a39.66 39.66 0 0 0-6-3.79c-4.23-2.35-9.11-3.66-14-4.85-1.17-.36-3.3-.6-5.11-1S93.08 93 93.08 93s2 .13 4.23.34l3.07.29c.87.08 1.5.26 1.66.24.44 0 .29-.42.12-.82" fill="#2b2e34" data-color="3"></path>
            </g>
            <g>
                <path d="M102.11 93a43.19 43.19 0 0 1 25.37 12.79 33.49 33.49 0 0 1 6.85 12.67 56.62 56.62 0 0 1 2.17 14.28 88.17 88.17 0 0 1-.5 14.44 36.88 36.88 0 0 1-5 13.57A44.12 44.12 0 0 1 109 179a45.92 45.92 0 0 1-7.39 1.94 48.4 48.4 0 0 1-7.68.77l-5.79-.32-5.7-1-5.57-1.62c-2.2-.91-4.45-1.8-6.59-2.9A37.33 37.33 0 0 1 59 166.74a33.88 33.88 0 0 1-3.94-6 42.93 42.93 0 0 1-2.46-6.42 58.75 58.75 0 0 1-1.6-6.69c-.35-3.34-.88-6.65-1-10a94 94 0 0 1 .21-10.07c.26-3.36.66-6.67 1.22-10 .42-1.64.73-3.27 1.23-4.89s1.31-3.1 1.93-4.66c.82-1.26 1.54-2.56 2.42-3.82s2-2.29 3-3.43l3.58-3.22L67.06 95l3.82-2.16a46.43 46.43 0 0 1 5.33-2.16A55.63 55.63 0 0 1 81.76 89a35.51 35.51 0 0 1 5.7-1 20.19 20.19 0 0 1 2.91 0 10.23 10.23 0 0 1 1.47.23 2.25 2.25 0 0 1 1.4.86 1.21 1.21 0 0 1-.13 1.16 2.52 2.52 0 0 1-.8.65 9.87 9.87 0 0 1-1.75.71l-3.56.91c-2.37.54-4.72 1.1-7 1.79a47.4 47.4 0 0 0-13.14 5.86 26.24 26.24 0 0 0-9.26 10.71c-2.15 4.29-2.92 9.12-3.51 13.9-1.37 9.51-1.57 19.42 1.32 28.61a33.68 33.68 0 0 0 18.5 20.78c8.72 3.88 18.67 5.64 28.06 3.65a41.08 41.08 0 0 0 23.82-15 36.7 36.7 0 0 0 6.45-12.7c1.34-4.56 1.11-9.56 1.3-14.35a57.67 57.67 0 0 0-1.44-14.35 33.82 33.82 0 0 0-6-13 22.39 22.39 0 0 0-2.2-2.58l-2.54-2.38a40.49 40.49 0 0 0-6-3.79 48.29 48.29 0 0 0-10.89-4.13 55.34 55.34 0 0 0-5.69-1.35c-1.93-.31-3.85-.74-5.77-1.1l-.01-.01s0-.21.09-.2h1.15l1.13.11 2.24.23 2.24.23c.74 0 1.52.19 2.22.3.17 0 .25-.08.22-.25l-.06-.24a.75.75 0 0 1-.09-.29m.09.07c.06 0 .07.11.11.18a2.5 2.5 0 0 1 .07.26.33.33 0 0 1-.22.39.25.25 0 0 1-.12 0c-.79-.1-1.49-.23-2.25-.27l-2.25-.2-2.24-.2-1.12-.09h-1.06c.06 0 .11-.17.06-.18l-.09-.06c1.93.34 3.84.74 5.78 1a56.58 56.58 0 0 1 5.74 1.28 46.81 46.81 0 0 1 11 4 39.45 39.45 0 0 1 6.09 3.79l2.55 2.36a23 23 0 0 1 2.3 2.63 34.56 34.56 0 0 1 6.22 13.21 58.26 58.26 0 0 1 1.57 14.53c-.15 4.87.13 9.74-1.22 14.58a37.69 37.69 0 0 1-6.53 13.16 41.76 41.76 0 0 1-24.46 15.4c-9.7 2-19.83.22-28.76-3.76a34.77 34.77 0 0 1-19-21.45c-2.94-9.43-2.72-19.47-1.33-29.08.64-4.81 1.44-9.73 3.7-14.16a27.19 27.19 0 0 1 9.63-11 47.66 47.66 0 0 1 13.4-5.86c2.34-.68 4.72-1.24 7.08-1.75l3.51-.75a9.55 9.55 0 0 0 1.61-.62c.51-.28.87-.64.67-1-.4-.54-1.51-.7-2.38-.78a19 19 0 0 0-2.82 0 34.31 34.31 0 0 0-5.62.92 55.41 55.41 0 0 0-5.48 1.61 44.17 44.17 0 0 0-5.31 2.12l-3.8 2.13-3.36 2.42-3.56 3.2c-1 1.14-2.06 2.2-2.94 3.38s-1.6 2.53-2.42 3.79c-.63 1.56-1.42 3-1.94 4.62s-.83 3.24-1.22 4.85c-.53 3.29-.92 6.63-1.15 10a90.69 90.69 0 0 0-.14 10c.12 3.34.67 6.65 1 10a57.05 57.05 0 0 0 1.57 6.57 41.66 41.66 0 0 0 2.46 6.31 32.12 32.12 0 0 0 3.91 5.9 34.83 34.83 0 0 0 5.05 5 36.77 36.77 0 0 0 5.91 3.89c2.12 1.07 4.33 1.92 6.53 2.82l5.58 1.58h-.05l5.72 1 5.75.29a48.69 48.69 0 0 0 7.52-.79 45.3 45.3 0 0 0 7.22-2 43.55 43.55 0 0 0 21.64-17.73 35.8 35.8 0 0 0 5-13.24 87.57 87.57 0 0 0 .58-14.3 56.09 56.09 0 0 0-2.06-14.11 33 33 0 0 0-6.66-12.5c-6.38-7.1-15.56-11.45-24.87-13.08" fill="#2b2e34" data-color="3"></path>
            </g>
            <g>
                <path d="M102.16 93.06a22.18 22.18 0 0 0-3.25-.39c-3.07-.31-2.93-.55-1.67-.55s3.65.11 4.92.94" fill="#2b2e34" data-color="3"></path>
            </g>
            <g>
                <path d="M102.21 93.09a8.23 8.23 0 0 1-3 .08c-.49-.12-1-.34-1.45-.45-.24 0-.49-.07-.74-.09a2.34 2.34 0 0 0-.38 0h-.22c-.06 0 0 0-.16-.07s-.07 0-.15-.21.12-.3.14-.34a3.82 3.82 0 0 1 1.67-.35 9.53 9.53 0 0 1 1.51 0 4.14 4.14 0 0 1 2.79 1.45m-.11 0l-2.81-.18c-.47 0-.94-.12-1.43-.18l-.71-.11c-.17 0-.57 0-.54-.12a.24.24 0 0 0 .06-.23c-.09-.2 0-.09-.09-.15l.14.07a2 2 0 0 0 .34.12 4.21 4.21 0 0 0 .71.12 14.53 14.53 0 0 0 1.48-.13 4.18 4.18 0 0 1 2.82.81" fill="#2b2e34" data-color="3"></path>
            </g>
            <g>
                <path d="M132.38 35.33a13.61 13.61 0 0 1 4.82 3.86 6.87 6.87 0 0 1 1.92 4.55 21.87 21.87 0 0 1-.26 3.23c-.15 1.3-.34 2.49-.56 3.61a8.27 8.27 0 0 1-1.09 3 6.2 6.2 0 0 1-2.65 2.21 25.77 25.77 0 0 1-8.2 2 12.78 12.78 0 0 1-4.65-.35 8.61 8.61 0 0 1-4.45-2.82 8.78 8.78 0 0 1-1.85-4.15 32.84 32.84 0 0 1-.43-4.2 23.16 23.16 0 0 1 .26-5.7 10.52 10.52 0 0 1 1.2-3.62 9.49 9.49 0 0 1 2.83-3.18c2-1.32 3-2.12 5.48-2.68a13.94 13.94 0 0 1 3-.51c1.1 0 2.32.38 2.25 1.43a2 2 0 0 1-1.48 2.38h-.16c-2.44.72-4.89.54-7 1.87a8 8 0 0 0-2.65 3 19.71 19.71 0 0 0-1.12 3.74 14.85 14.85 0 0 0 .1 7.66 7.88 7.88 0 0 0 2.06 3.21A7.73 7.73 0 0 0 123 55.5a16.84 16.84 0 0 0 7-.23 15.54 15.54 0 0 0 4-1.41 3.46 3.46 0 0 0 1.85-2.08 21.94 21.94 0 0 0 .45-2.55c.17-1.24.32-2.4.48-3.55a7 7 0 0 0-.47-4.2 13 13 0 0 0-4.31-4.56l-1-.72c-.39-.24-.8-.4-.79-.42a1.68 1.68 0 0 1 1 .09 9.68 9.68 0 0 0 1.06.27c.12-.06.15-.45.17-.81" fill="#2b2e34" data-color="3"></path>
            </g>
            <g>
                <path d="M132.35 35.28a10.71 10.71 0 0 1 4.08 2.79 19.26 19.26 0 0 1 1.68 1.82 6.93 6.93 0 0 1 1.1 2.29 6.44 6.44 0 0 1 .19 2.51l-.17 2.48a35.22 35.22 0 0 1-.85 4.89 6.43 6.43 0 0 1-3.24 3.94 18.84 18.84 0 0 1-4.73 1.65c-3.18.6-6.69 1.22-9.91-.17a8.89 8.89 0 0 1-5.5-7.92c-.1-1.64-.34-3.26-.34-4.91a23.7 23.7 0 0 1 .51-4.9 10.23 10.23 0 0 1 2.09-4.47 14.94 14.94 0 0 1 3.87-3.07 14.09 14.09 0 0 1 4.65-1.71 8.31 8.31 0 0 1 2.53-.24 3.19 3.19 0 0 1 1.31.41 1.46 1.46 0 0 1 .72 1.34v-.08a2.5 2.5 0 0 1-.32 1.85 2.23 2.23 0 0 1-.73.67 3.45 3.45 0 0 1-.77.31h-.07c-2.61.8-5.43.65-7.33 2.29s-2.65 4.15-3.14 6.7a12.77 12.77 0 0 0 .56 7.46 6.78 6.78 0 0 0 5.8 3.9 15.28 15.28 0 0 0 3.86-.11 22.44 22.44 0 0 0 3.79-.81 6.26 6.26 0 0 0 3.11-1.83 3.79 3.79 0 0 0 .52-1.7c.11-.65.26-1.27.34-1.93.3-2.61 1.25-5.32-.16-7.56a13.13 13.13 0 0 0-2.52-2.94 31.94 31.94 0 0 0-3.28-2.46v.07c.07-.35.14-.16.15-.22h.48a2.31 2.31 0 0 1 .52.12 3.24 3.24 0 0 1 .53.16l.32.1c.06 0 .21.05.19.06a.92.92 0 0 0 .1-.32 3.62 3.62 0 0 1 .06-.46m.07.1c.05 0 0 .26 0 .38s0 .28-.17.45a.57.57 0 0 1-.34 0l-.28-.08a4.94 4.94 0 0 0-.52-.13 3.55 3.55 0 0 0-.47-.09h-.41c0-.05 0 .15.05-.16v.07a14.44 14.44 0 0 1 6 5 6.61 6.61 0 0 1 .92 4c-.11 1.36-.3 2.65-.45 4-.07.66-.2 1.33-.3 2l-.16 1a2.79 2.79 0 0 1-.46 1.06 7.1 7.1 0 0 1-3.55 2.3 20.57 20.57 0 0 1-4 .94 16.14 16.14 0 0 1-4.11.19 8 8 0 0 1-6.77-4.55 13.52 13.52 0 0 1-.59-8.17 23.51 23.51 0 0 1 1.1-3.94 8.29 8.29 0 0 1 2.51-3.37c2.37-1.87 5.34-1.56 7.75-2.27h-.07a4.81 4.81 0 0 0 .75-.28 1.46 1.46 0 0 0 .48-.41 1.77 1.77 0 0 0 .23-1.29V32c.08-.58-.63-1-1.38-1a7.24 7.24 0 0 0-2.32.17 13.65 13.65 0 0 0-4.51 1.55 14.61 14.61 0 0 0-3.81 2.91 9.39 9.39 0 0 0-2.08 4.27 23.61 23.61 0 0 0-.42 4.82q.11 2.43.45 4.83a8.18 8.18 0 0 0 5.25 7.18c2.94 1.17 6.23.61 9.36 0s6.52-1.72 7.34-4.85c.67-3 1.45-6.41 1.08-9.46a8.8 8.8 0 0 0-2.47-4 11.78 11.78 0 0 0-3.73-3" fill="#2b2e34" data-color="3"></path>
            </g>
            <g>
                <path d="M132.38 35.33l-.8-.21c-1.54-.36.27-1 .8.21" fill="#2b2e34" data-color="3"></path>
            </g>
            <g>
                <path d="M132.42 35.37c.06.21-.57.45-.95.21-.14-.12-.23-.31-.36-.42s-.14-.07-.24-.15a.39.39 0 0 1 0-.55 1 1 0 0 1 1.25-.27.88.88 0 0 1 .33 1.18m-.08-.08h-.78a.64.64 0 0 1-.34-.33c.07-.06-.05-.27 0-.21s0 .08.09.08.29-.12.43-.17 0 .28.64.63" fill="#2b2e34" data-color="3"></path>
            </g>
            <g>
                <path d="M186.26 141.48c1.17-.23 2.33-.51 3.5-.83a17.83 17.83 0 0 0 1.76-.53 15.81 15.81 0 0 0 1.64-.84 23.72 23.72 0 0 0 5.85-4.85 15.31 15.31 0 0 0 3.46-8.69 20.58 20.58 0 0 0-1.58-8.63 39.83 39.83 0 0 0-4-7.07c-1.53-2.07-3.1-4.33-4.48-5.88-1.25-1.28-2.24-2.93-4.08-3.52-2.24-.85-5.27-1.15-8.45-1.59-1.44-.21-2.18.15-3.89.1-.9 0-3.39 1-4-1a1.73 1.73 0 0 1 .61-2.38 1.58 1.58 0 0 1 .44-.19c2.42-.86 4.78-.11 6.9.18a29 29 0 0 1 6.8 1.7 20.91 20.91 0 0 1 5.75 3.5 27.73 27.73 0 0 1 4.29 5.31c1.29 1.92 2.53 3.88 3.76 5.93a28.24 28.24 0 0 1 3.77 9.38 17.17 17.17 0 0 1-1.41 11 20.71 20.71 0 0 1-7 7.55 21 21 0 0 1-9.1 2.87h-1.58a9.07 9.07 0 0 1-1-.06c-.08-.13 2.27-.59 2.4-.75s-.12-.44-.32-.76" fill="#2b2e34" data-color="3"></path>
            </g>
            <g>
                <path d="M186.21 141.46c1.39-.4 2.93-.76 4.32-1.22a8 8 0 0 0 2-.9 16.17 16.17 0 0 0 1.86-1.17 19.55 19.55 0 0 0 5.88-6.36 14.72 14.72 0 0 0 1.68-8.36 22.81 22.81 0 0 0-2.52-8.29 52 52 0 0 0-4.79-7.4c-.88-1.18-1.73-2.39-2.65-3.56a13.16 13.16 0 0 0-3.09-3c-2.63-1.2-5.68-1.42-8.6-1.87-1.45-.33-2.9.13-4.41.08a18.55 18.55 0 0 1-2.23.25 1.94 1.94 0 0 1-1.9-1.37 2.68 2.68 0 0 1-.2-1.45 1.8 1.8 0 0 1 .85-1.24 6.53 6.53 0 0 1 2.7-.68 33 33 0 0 1 5.35.58 24.33 24.33 0 0 1 10.19 3.5c3.17 1.9 5.34 5 7.23 8s4 5.9 5.41 9.28a21.58 21.58 0 0 1 1.83 10.69 16.53 16.53 0 0 1-1.49 5.28 19.17 19.17 0 0 1-3.1 4.48 22 22 0 0 1-4.14 3.5 23.49 23.49 0 0 1-4.93 2.22 16.33 16.33 0 0 1-5.32.81 10.85 10.85 0 0 1-1.4-.06h-.64a.18.18 0 0 1 .08-.2 3.83 3.83 0 0 1 .68-.21l1.3-.3c.19-.09.51-.07.41-.24s-.19-.33-.3-.63m.1.05a1.6 1.6 0 0 1 .34.54.28.28 0 0 1 0 .22.44.44 0 0 1-.18.12l-.32.11-1.28.37a4.1 4.1 0 0 0-.59.2c0-.27.07-.11.13-.16h1.71a17.74 17.74 0 0 0 5.15-1 22.46 22.46 0 0 0 4.71-2.27 20.94 20.94 0 0 0 3.88-3.46 18 18 0 0 0 2.84-4.33 16.18 16.18 0 0 0 1.27-5 20.39 20.39 0 0 0-1.79-10.1c-1.34-3.2-3.43-6.11-5.26-9.14s-3.88-5.93-6.83-7.79a23.52 23.52 0 0 0-9.74-3.6 31.64 31.64 0 0 0-5.22-.7 6.07 6.07 0 0 0-2.44.55 1.54 1.54 0 0 0-.47 2 1.44 1.44 0 0 0 1.44 1 17.81 17.81 0 0 0 2.2-.2c1.45.09 3-.35 4.47 0 2.93.42 5.94.57 8.78 1.78 2.67 1.7 4.19 4.25 6.12 6.56a42.66 42.66 0 0 1 5 7.43 21.8 21.8 0 0 1 2.62 8.66 15.65 15.65 0 0 1-1.9 8.84 14.53 14.53 0 0 1-2.81 3.58 23.94 23.94 0 0 1-3.5 2.85 12.65 12.65 0 0 1-2 1.11 8 8 0 0 1-2.1.81c-1.45.42-2.84.6-4.33.94" fill="#2b2e34" data-color="3"></path>
            </g>
            <g>
                <path d="M186.26 141.48c-.28.07-.54.19-.84.27-1.63.38-.23-1 .84-.27" fill="#2b2e34" data-color="3"></path>
            </g>
            <g>
                <path d="M186.32 141.49c.16.16-.28.71-.76.71-.2 0-.37-.17-.54-.2h-.27c-.07 0-.12 0-.23-.08a.39.39 0 0 1-.13-.38 1.09 1.09 0 0 1 1-.86.93.93 0 0 1 .94.81m-.11 0a5.2 5.2 0 0 1-.72.42c-.14 0-.38.06-.51-.12a.21.21 0 0 0-.09-.18c-.07 0 0 0 0 0a.18.18 0 0 0 .16 0c.12 0 .24-.25.32-.35s.18.21.89.19" fill="#2b2e34" data-color="3"></path>
            </g>
            <g>
                <path d="M242.77 146.65c-.11-.08.12-.88 0-1a4.85 4.85 0 0 0-5.43 2.77 17.12 17.12 0 0 0-1.14 4.22 120.46 120.46 0 0 1-8.8 22.84c-3.66 7-8.29 13.5-14.08 17.44-13.77 8.61-26.85 19.45-41.61 22.45-2.37.47-4.8 1.16-7.44 1.77a68.29 68.29 0 0 1-8.52 1.45A46.25 46.25 0 0 1 137 216.7l-.32-.08a7.83 7.83 0 0 1 2.14-.87 16.15 16.15 0 0 1 3.25-.49 18.12 18.12 0 0 1 6.38.79h.08c.53-.18 1.2-1.14 1.73-1.78.32-.37 1-.58.51-.6-2.27-.2-4.89-1.5-7.77-1.5a21.05 21.05 0 0 0-4 .43 19.14 19.14 0 0 0-2.23.56 9.16 9.16 0 0 0-2.71 1.3c-.19.16-.38.33-.56.51a6 6 0 0 0-.53.69 4 4 0 0 0-.56 1.86 4.12 4.12 0 0 0 .28 1.63 8.58 8.58 0 0 0 .37.82 13.33 13.33 0 0 0 1.62 2.45 24.4 24.4 0 0 0 4.19 3.87 32.2 32.2 0 0 0 3.54 2.49 10.06 10.06 0 0 0 4.13 1.51c.73.06.8-.18 1.46-.18 2-.19 1.22 1.19 1.44-.36.06-.48-.27-.43-.36-.5-.82-.6-2.12-2.16-2.55-2.45-1.47-.84-2.1-.81-2.94-1.93a22.23 22.23 0 0 0-4.33-4 19.3 19.3 0 0 1-2.33-2.1 23.64 23.64 0 0 0 12.23 5.08 51.17 51.17 0 0 0 13.54-.4 78.07 78.07 0 0 0 22.46-6.67 103 103 0 0 0 19-11.45c2.5-1.9 5-3.74 7.52-5.45a77 77 0 0 0 7.39-5.17 53.34 53.34 0 0 0 11.16-13.6 155.18 155.18 0 0 0 8.64-16.2 54.23 54.23 0 0 0 4.87-17.83c0-.35-.72-.23-1-.4m-106.71 71zm-.07-.13v.1a.31.31 0 0 1 0-.1z" fill="#91d9ff" data-color="4"></path>
            </g>
            <g>
                <path d="M1.46 100.61c.13 0 .09.86.24.9a4.75 4.75 0 0 0 4.56-3.83 17 17 0 0 0 .15-4.27 117 117 0 0 1 3.35-23.62c1.94-7.46 4.91-14.65 9.55-19.66C30.5 38.94 40.54 25.77 53.9 19.69c2.15-1 4.3-2.17 6.68-3.32a66.17 66.17 0 0 1 7.78-3.25 45.06 45.06 0 0 1 18.18-2.26h.33a7.82 7.82 0 0 1-1.87 1.3 15.76 15.76 0 0 1-3 1.18 17.48 17.48 0 0 1-6.23.65h-.08a6.17 6.17 0 0 0-1.25 2.07c-.22.42-.78.76-.35.68 2.2-.31 5 .36 7.7-.28a20.34 20.34 0 0 0 3.73-1.3 17.89 17.89 0 0 0 2-1 8.63 8.63 0 0 0 2.29-1.83 6.42 6.42 0 0 0 .42-.6 5.51 5.51 0 0 0 .36-.78 3.87 3.87 0 0 0-.5-3.38 8.58 8.58 0 0 0-.53-.7 13.37 13.37 0 0 0-2.08-2 25 25 0 0 0-4.78-2.71A32.42 32.42 0 0 0 78.78.58a9.75 9.75 0 0 0-4.25-.53c-.7.1-.72.35-1.34.49-1.84.61-1.43-.86-1.29.66 0 .47.34.34.44.39.92.39 2.5 1.58 3 1.77 1.58.47 2.18.31 3.22 1.19a21.61 21.61 0 0 0 5 2.86 18.35 18.35 0 0 1 2.68 1.47 23 23 0 0 0-12.75-2.13 50 50 0 0 0-12.78 3.36 75.62 75.62 0 0 0-19.86 11.26 98.54 98.54 0 0 0-15.57 15.05c-2 2.36-3.94 4.65-6 6.82a77.49 77.49 0 0 0-5.88 6.54 52.06 52.06 0 0 0-7.57 15.37 149.71 149.71 0 0 0-4.66 17.27 52.66 52.66 0 0 0-.71 18c.06.34.73.06 1 .17M87.24 9.7zm.09.1l-.07-.08.07.09z" fill="#91d9ff" data-color="4"></path>
            </g>
        </g>
    </g>
</svg>