<svg preserveAspectRatio="xMidYMid meet" data-bbox="1.501 1.5 95.927 164.03" viewBox="0 0 98.91 167.07" xmlns="http://www.w3.org/2000/svg" data-type="ugc" role="img" aria-label="oil absorption Rate">
    <g>
        <g>
            <path d="M47.22 124.25c-16.31 2.41-32.48-.63-35.31 13.2s12.71 27 39.55 25.16S91 156.51 91 143.52s-18.27-23.05-43.79-19.27" fill="#ddd8d5"></path>
            <path d="M44 98.06c-2.46.84-4.9-.21-5.33 4.59s1.92 9.4 6 8.74 6-2.12 6-6.63-2.76-8-6.62-6.7" fill="#ddd8d5"></path>
            <path d="M42.62 54.64c-7.85 1.51-15.64-.4-17 8.27s6.12 17 19 15.76 19-3.82 19-12-8.72-14.39-21-12.03" fill="#ddd8d5"></path>
        </g>
        <path d="M96.81 147.09c-.63-3-1.59-6.36-2.21-8.29a158.72 158.72 0 0 0-8.19-21.37 69.4 69.4 0 0 0-6-10.23 25.58 25.58 0 0 0-1.82-2.33c-.65-.77-1.27-1.5-1.88-2.1a77.67 77.67 0 0 0-3.57-3.53C66.49 93 58 88 49.87 83.42a141.47 141.47 0 0 0 12.45-13.9 203.24 203.24 0 0 0 12.39-17.88 77.87 77.87 0 0 0 9.06-18.89 40.48 40.48 0 0 0 1.52-18.86l-.76.1a3.55 3.55 0 0 0 0-1.62 5 5 0 0 1-.4-1.7.89.89 0 0 0-1.47-.76c-.1.06-.23.14-.43.24a1 1 0 0 0-.93-.67c-.78 0-1 1-1.2 1.57l-.12.47-3.06 2.38 2.81-1-.09.48c-.22.77-.43 1.54-.59 2.3l-.53 2.19c-.12.43-.21.86-.3 1.29s-.14.64-.22.95l-.56 2.12c-.6 2.29-1.23 4.66-2 7.06A79.81 79.81 0 0 1 66.91 48l-1.06 1.7c-2.55 4-5.18 8.08-8.09 12.17a136.1 136.1 0 0 1-11 13.53c-1.28 1.37-2.65 2.67-4.06 3.95-1.86-1.07-3.71-2.17-5.52-3.28a73.9 73.9 0 0 1-11.43-8.33 46 46 0 0 1-9.56-13.94 69.36 69.36 0 0 1-4.69-14.59 118.58 118.58 0 0 1-2.11-14c-.45-4.78-.72-9.17-.79-13v-.41a31.69 31.69 0 0 1 5.76-.19c4.33.15 8.74.41 13 .65 8.81.51 17.92 1 27.73.78h1.6c6.7-.1 14-.4 16.27-2.93A2.62 2.62 0 0 0 73.65 8c-.12-1.2-5.84-3.74-5.9-3.75a14.78 14.78 0 0 0-5.62.34 10.48 10.48 0 0 1-1.65.26c-1.85 0-4.13-.06-6.53-.17a85.52 85.52 0 0 0-9.47-.1 86.59 86.59 0 0 0-12.29 2.07A45.48 45.48 0 0 1 24.41 8a125.19 125.19 0 0 1-13.56-.41c-1.12-.08-2.1-.12-3-.13A2.67 2.67 0 0 0 7.73 7a3.73 3.73 0 0 0-.16-.35L4.17 1.5 6 7.45c-.41 0-.79.06-1.15.1a9.83 9.83 0 0 0-1.79.38l-.27-.06-.33.2-.19.16L1.55 8l.73 2.39a73.14 73.14 0 0 0-.48 17.25A92.57 92.57 0 0 0 5 45.28a68 68 0 0 0 7.26 16.93c.87 1.39 1.78 2.72 2.66 4S16.9 68.74 18 70l.67.68c.92 1 1.87 1.93 2.95 2.86l.53.42a34.58 34.58 0 0 0 3.5 2.65c2.23 1.5 4.41 3.07 6.52 4.59 1.56 1.12 3.07 2.2 4.58 3.25L35 85.91c-1 .81-2 1.64-3 2.47-5.32 4.41-10.81 9.33-14.92 15.44a41 41 0 0 0-2.43 3.9l-.75 1.3-1.27 2.6a24.35 24.35 0 0 0-1.16 2.68 49.58 49.58 0 0 0-3 10.88 99 99 0 0 0-.9 21.34c.19 3.92.4 7.37.63 10.56a8.31 8.31 0 0 0 2 5.17 8.09 8.09 0 0 0 5.2 2.1 37.15 37.15 0 0 0 3.95.12h7.4c4.11.05 8.06.16 12.07.32 1.34.06 2.87.15 4.54.25 3.7.22 8.1.49 12.7.49 1.53 0 3.09 0 4.65-.1.28 0 .82 0 1.55-.05 19-.51 20.69-1.63 20.86-2.93.14-1.13-1.21-1.75-3.44-2.39-5.9-1.68-16.95-1.76-25.82-1.83-4.26 0-7.94-.05-10.47-.24-5.44-.4-11-.7-17-.92l-8.39-.21a14.57 14.57 0 0 1-1.86-.15q0-.5-.06-1.2l-.26-10.12a110.41 110.41 0 0 1 .68-15.21 50.69 50.69 0 0 1 3.5-13.52 51.79 51.79 0 0 1 7-11.75A80.09 80.09 0 0 1 44 89c1.65.87 3.31 1.64 4.94 2.39a57.39 57.39 0 0 1 7.74 4 83.07 83.07 0 0 1 14.6 12.17c4.27 4.44 7 10.11 9 14.26A139.68 139.68 0 0 1 85.83 136c.57 1.7 1.12 3.38 1.65 5 1.2 3.66 2.23 6.83 3.1 8.75a1.75 1.75 0 0 0 1.7 1.17c.72.85 2.57 2.89 3.9 2.89a1.13 1.13 0 0 0 .62-.19c.37-.3 1.2-.89.01-6.53z" fill="#fd543d" stroke="#fd543d" stroke-linecap="round" stroke-linejoin="round" stroke-width="3"></path>
    </g>
</svg>