<svg preserveAspectRatio="xMidYMid meet" data-bbox="-0.002 0 180.775 168.592" viewBox="-0.002 0 180.775 168.592" xmlns="http://www.w3.org/2000/svg" data-type="color" role="img" aria-label="Oil absorption Capacity">
    <g>
        <path d="M83.31 10.66C55 20.07 26.9 8.21 22 62.2s22.08 105.54 68.68 98.18 68.68-23.82 68.68-74.5-31.72-89.94-76-75.22" fill="#ddd8d5" data-color="1"></path>
        <g>
            <g>
                <path d="M179.58 85.72c0 .36 1.46 1.88 1.15 3.6-4.76 21.88-16.31 42.39-33.83 57.11a95.76 95.76 0 0 1-29.74 17 90.45 90.45 0 0 1-34.63 5.05c-23.66-1.07-47.4-12.2-63.07-31.16A84.53 84.53 0 0 1 2.73 105a79.17 79.17 0 0 1-1.17-36.27l1.55-7.25c.82-2.67 1.51-5.68 2.6-8.76a84.06 84.06 0 0 1 4-9.51c.81-1.59 1.56-3.24 2.47-4.82l2.93-4.65c8-12.48 20.5-21.43 29-23.8 5.92-1.61 7.14-.89 5.93.9S45 15.36 41 19.13c-2.16 1.69-4.09 3.95-6.19 5.95s-3.76 4.38-5.5 6.31c-1.56 2.09-2.88 4-4 5.53a37.83 37.83 0 0 0-2 3.29c-2 3.31-3.54 6.83-5.24 10.17-1.33 3.49-2.88 6.81-3.81 10.18a83 83 0 0 0-2.52 9.56c-.57 3-.84 5.85-1.12 8.34A75.23 75.23 0 0 0 13 101.17a72.29 72.29 0 0 0 3.77 10.28 69.45 69.45 0 0 0 5 9.4 71.67 71.67 0 0 0 13.48 15.55 72.63 72.63 0 0 0 8 6.12c1.35 1 2.87 1.7 4.29 2.55a37.37 37.37 0 0 0 4.38 2.32l4.51 2c1.51.66 3.1 1.1 4.65 1.66a82.77 82.77 0 0 0 9.53 2.58c1.62.32 3.27.49 4.9.75a34.33 34.33 0 0 0 5 .51l5 .26 5-.19 2.54-.11 2.52-.34c1.69-.24 3.39-.4 5.09-.7a86.32 86.32 0 0 0 10.12-2.6 81.15 81.15 0 0 0 19.78-9.21l4.35-2.83L139 136l2.06-1.58 1.91-1.74 3.84-3.5c2.25-2.59 4.84-5 6.79-7.82 1-1.38 2.11-2.74 3.08-4.16s1.78-3 2.67-4.41c7-11.83 9.78-25.85 7.71-38.36a60.93 60.93 0 0 0-14.68-30 80.84 80.84 0 0 0-23.55-18c-5.46-3-11.58-4.64-17.43-5.78A85.54 85.54 0 0 0 93.89 20a157.54 157.54 0 0 0-16.45 2.43c-1.36.17-2.65.66-4 .89a37.33 37.33 0 0 0-4 .89c-1.34.35-2.71.64-4.13.88-1.35.42-2.74.78-4.19 1.09-4.1.88-.67-1.29-.61-1.26-4-3.7-3.4-.49.39-4.79.74-1 5.37-1.11 5.65-2.16s-3.26-.62-4-.14A60.42 60.42 0 0 1 94.72 5.91 75.77 75.77 0 0 1 133 13.83c12.69 6.38 24.66 15.54 33.18 28l3.15 4.72c.95 1.63 1.79 3.34 2.68 5a71.43 71.43 0 0 1 4.4 10.72 68.76 68.76 0 0 1 3.17 23.45z" fill="#fd543d" fill-rule="evenodd" data-color="2"></path>
            </g>
            <g>
                <path d="M43.08 29.85c2 .29 2.06-1 2.52-1.81 1.25-2.27 4.51-4 6.1-5.89a30.46 30.46 0 0 0 5.44-9.54L61.68 0 47.43.61c-5 .21-10 1.45-15.24 2.84-1.19.31-3.78-.22-4.36 4.35-.36 2.8.06-1.37.25 1.84a6 6 0 0 0 0 2.2c.68 3.67 3.64 2.18 4.53 2 16.1-8.23 15.5-1.67 13.89 1.1s-4.5 5.7-6.05 8.63c-.37.69-3.51 2.83-.67 4.21 1.57.77.94 1.45 1.84 1.82-.7-.41 1.06.19 1.46.25z" fill="#fd543d" fill-rule="evenodd" data-color="2"></path>
            </g>
            <g>
                <g>
                    <path d="M79.32 27.65c-2.28.94-5 1.18-7.09 2.32L66 33.43c-10.2 5.63-13.14 20-20.63 28.14-1.57 1.71-3.83 2.62-5.32 4.53-1.91 2.43-4.44 5.63-7.88 7.51-1.54.85-1.9 1.84-3.71 2.82a15.18 15.18 0 0 1-2.11 1.45 2.29 2.29 0 0 1-.72.21h-.41a4.46 4.46 0 0 1-.8.2 1.86 1.86 0 0 1-2.17-1 6.74 6.74 0 0 1-.45-3.55 2 2 0 0 1 .45-1.17c1.64-2.17 4.41-2.39 6.45-3.5 9-4.95 16.46-11.52 21.33-20.5 3.27-6 6-12.82 11.07-16.49a36.26 36.26 0 0 1 16.62-6.79 21.33 21.33 0 0 1 3-.06c.18.19-2.19 1-2.23 1.23s.41.73.83 1.19z" fill="#fd543d" fill-rule="evenodd" data-color="2"></path>
                </g>
            </g>
            <g>
                <g>
                    <path d="M104 25c-3.07 1.49-6.56 2.23-9.42 3.91L86 34c-14 8.23-20.7 25.21-31.83 35.84-2.33 2.23-5.35 3.67-7.63 6.12-2.9 3.13-6.76 7.24-11.46 10-2.12 1.25-2.76 2.45-5.22 3.89-1.24.73-4.27 4.17-6.65 1.47s-.65-4.38-.41-4.65c2.49-2.8 6-3.55 8.83-5.2C44 74.18 54.74 65.34 62.75 54.2c5.39-7.49 10.25-15.74 17.4-20.84a67.76 67.76 0 0 1 22.35-10.7 32.28 32.28 0 0 1 3.78-.59c.17.19-3 1.53-3.07 1.8s.39.69.79 1.13z" fill="#fd543d" fill-rule="evenodd" data-color="2"></path>
                </g>
            </g>
            <g>
                <g>
                    <path d="M120.05 29.77c-3.43 1.85-7.29 3-10.5 5l-9.66 6.11c-15.77 10-24 28.45-36.83 40.59-2.7 2.53-6.06 4.31-8.74 7.08-3.38 3.53-7.87 8.18-13.25 11.45-2.42 1.47-3.22 2.78-6.08 4.48a34.12 34.12 0 0 1-3.48 2.34 5.94 5.94 0 0 1-2.37.68 5.56 5.56 0 0 0-1.68 0c-.91 0-1.47-.27-1.67-.68 0-3.49 1.23-5 1.71-5.34 3-3 6.92-4 10.11-6 14.1-8.59 26.33-18.85 35.72-31.27 6.31-8.36 12.1-17.49 20.15-23.49a88.25 88.25 0 0 1 25-13.32c.57-.18 1.59-.44 2.49-.64a15.59 15.59 0 0 1 1.68-.33c.18.17-3.33 1.88-3.45 2.18s.39.73.85 1.16z" fill="#fd543d" fill-rule="evenodd" data-color="2"></path>
                </g>
            </g>
            <g>
                <g>
                    <path d="M134.25 40.1c-3.6 2-7.63 3.35-11 5.58l-10.15 6.69C96.54 63.3 87.7 82.62 74.28 95.7c-2.82 2.74-6.36 4.74-9.12 7.71-3.54 3.8-8.21 8.79-13.76 12.45-2.5 1.65-3.33 3-6.23 5-1.46 1-5.16 5.12-7.68 2.54s-.43-4.64-.14-5c3-3.38 7.13-4.7 10.43-6.88 14.63-9.66 27.46-20.75 37.37-33.93 6.66-8.88 12.82-18.5 21.29-25a98.66 98.66 0 0 1 26.21-14.77A38.83 38.83 0 0 1 137 36.6c.19.17-3.49 2.07-3.62 2.39s.4.68.87 1.11z" fill="#fd543d" fill-rule="evenodd" data-color="2"></path>
                </g>
            </g>
            <g>
                <g>
                    <path d="M146.88 53c-3.52 2.05-7.5 3.38-10.79 5.62s-6.64 4.5-9.91 6.72c-16.18 11-24.54 30.23-37.57 43.32-2.73 2.75-6.21 4.76-8.88 7.72-3.42 3.8-8 8.8-13.38 12.48-2.44 1.65-3.23 3-6.07 5-1.42 1-5 5.12-7.55 2.57s-.53-4.61-.25-4.93c3-3.39 7-4.73 10.19-6.91 14.31-9.7 26.79-20.8 36.33-34 6.42-8.87 12.33-18.47 20.58-25a95.78 95.78 0 0 1 25.68-14.86 39.34 39.34 0 0 1 4.28-1.2c.19.17-3.42 2.09-3.54 2.4s.41.66.88 1.07z" fill="#fd543d" fill-rule="evenodd" data-color="2"></path>
                </g>
            </g>
            <g>
                <g>
                    <path d="M158.33 67c-3.24 1.79-6.93 2.86-10 4.84l-9.08 6c-14.84 9.72-22 27.83-33.75 39.75-2.48 2.51-5.67 4.25-8.08 7-3.08 3.47-7.16 8-12.13 11.3-2.25 1.47-2.93 2.76-5.53 4.47-1.31.86-4.52 4.66-7 2.08s-.67-4.47-.42-4.77c2.64-3.1 6.39-4.18 9.34-6.12 13.11-8.59 24.45-18.63 32.94-30.82 5.71-8.2 10.91-17.14 18.44-23a79.83 79.83 0 0 1 23.64-13 34 34 0 0 1 4-.93c.19.18-3.14 1.83-3.24 2.13s.41.64.87 1.07z" fill="#fd543d" fill-rule="evenodd" data-color="2"></path>
                </g>
            </g>
            <g>
                <g>
                    <path d="M160.38 85.71c-2.64 1.32-5.75 1.92-8.19 3.43l-7.31 4.53c-12 7.4-16.34 23.3-25.39 33-1.9 2-4.52 3.32-6.34 5.57-2.33 2.88-5.42 6.66-9.43 9.14-1.8 1.12-2.27 2.23-4.37 3.53-1 .65-3.46 3.82-5.91 1.19s-1-4.18-.85-4.42c2-2.59 5.14-3.19 7.52-4.66 10.56-6.54 19.43-14.6 25.59-24.92 4.15-6.94 7.77-14.62 13.74-19.23a51.25 51.25 0 0 1 19.3-9.48 25.62 25.62 0 0 1 3.38-.44c.18.18-2.55 1.36-2.61 1.62s.43.7.87 1.14z" fill="#fd543d" fill-rule="evenodd" data-color="2"></path>
                </g>
            </g>
        </g>
    </g>
</svg>