<svg preserveAspectRatio="xMidYMid meet" data-bbox="0.004 0.001 219.332 104.541" viewBox="0.004 0.001 219.332 104.541" xmlns="http://www.w3.org/2000/svg" data-type="color" role="img" aria-label="oil absorption Durabiliy">
    <g>
        <g>
            <path d="M173 31.54c-5.1-9.95-76.58-7.4-93-6.76s-47.75 3.75-47.75 3.75S4.86 27.3 2.61 41.28-7.66 82.61 23.39 82.72s87-3.69 116.5-1.79S178.07 41.49 173 31.54" fill="#ddd8d5" data-color="1"></path>
        </g>
        <g>
            <g>
                <path d="M89 29.19c-3.34-2.75-6.15-5.55-9.07-8.47a98.74 98.74 0 0 0-9.51-8.67 44.08 44.08 0 0 0-12-6.76 29.74 29.74 0 0 0-14-1.58C29.15 5.76 15.66 15.59 8.45 28.6a50.27 50.27 0 0 0-3.13 42A51.8 51.8 0 0 0 33 99.89a55.7 55.7 0 0 0 39.85 1.81c3.78-1.11 9.92-3.9 12.74-7 3-3.26-.68-6.58-5-9.4s-9.2-5.6-10.88-6.07a73.74 73.74 0 0 1-12.28-4 66.41 66.41 0 0 0-7.46-2.82A55.93 55.93 0 0 0 43.3 71a43 43 0 0 1-7.42-1.9 15.88 15.88 0 0 1-8-6.81 18.76 18.76 0 0 1-2.55-10.71A21.19 21.19 0 0 1 28.93 41a22.7 22.7 0 0 1 8.2-7.25 23.52 23.52 0 0 1 19.5-.93c5.87 2.25 10 6.23 13.25 10.75l-1.33-2.63c6.56 15.75 16.26 30.14 33 41.65 1.9 1.3 9.68 6.9 13.59-.12 4-7.19-3.88-15.36-5.27-17.27-7.38-10.07-10.26-22.46-18.58-33l-.9-1.77zm-1.33 8c2.06-1 7.22-1.07 4.62.26-2.06 1.01-7.22 1.02-4.62-.31z" fill="#fd543d" fill-rule="evenodd" data-color="2"></path>
            </g>
            <g>
                <path d="M135.8 79.47c3.67 2.31 6.8 4.73 10.08 7.25a99.07 99.07 0 0 0 10.53 7.4 44.14 44.14 0 0 0 12.75 5.18 29.62 29.62 0 0 0 14.07-.21c14.91-4 27-15.44 32.54-29.26a50.24 50.24 0 0 0-2.22-42 51.76 51.76 0 0 0-31.18-25.59A55.71 55.71 0 0 0 142.6 5.5c-3.6 1.58-9.34 5.13-11.74 8.56-2.51 3.6 1.51 6.44 6.19 8.69s9.84 4.38 11.56 4.63a74.33 74.33 0 0 1 12.7 2.43 71 71 0 0 0 7.75 1.85 54.81 54.81 0 0 0 6.77.53 44.23 44.23 0 0 1 7.6.94 15.86 15.86 0 0 1 8.83 5.74 18.65 18.65 0 0 1 3.89 10.3 21.17 21.17 0 0 1-2.27 11 22.37 22.37 0 0 1-7.22 8.23 23.47 23.47 0 0 1-19.22 3.4c-6.1-1.49-10.69-4.91-14.5-9l1.65 2.44c-8.51-14.79-20-27.83-38-37.13-2-1.05-10.47-5.61-13.46 1.85-3 7.64 5.8 14.74 7.43 16.46 8.59 9.05 13 21 22.61 30.36l1.12 1.65zm.31-8.06c-1.91 1.31-7 2-4.62.33 1.91-1.31 7-2 4.62-.33z" fill="#fd543d" fill-rule="evenodd" data-color="2"></path>
            </g>
        </g>
    </g>
</svg>