
<svg 
    preserveAspectRatio="none" 
    viewBox="0 0 62.575 62.57" 
    xmlns="http://www.w3.org/2000/svg" 
    data-type="shape" 
    role="presentation" 
    aria-hidden="true" 
    width="20"  
    height="20" 
>
    <g>
        <path fill="#9CA3AF" d="M61.31 62.57h-.1c-11.44-.85-20.37-3.37-28.09-8A44.42 44.42 0 0 1 15.34 34.8c-3.95-8.41-5.9-18.47-5.81-29.9a1.26 1.26 0 0 1 1.27-1.25 1.26 1.26 0 0 1 1.26 1.27c-.18 22.33 7.55 38.76 22.34 47.52 7.38 4.36 16 6.78 27 7.59a1.28 1.28 0 0 1 1.17 1.36 1.27 1.27 0 0 1-1.26 1.18z"></path>
        <path fill="#9CA3AF" d="M1.27 11.92a1.29 1.29 0 0 1-1.06-.57 1.27 1.27 0 0 1 .14-1.58A63.36 63.36 0 0 0 7.67.58 1.29 1.29 0 0 1 8.7 0c.6 0 .62 0 3.55 2.65C14 4.26 15 5.22 15.24 5.53a1.26 1.26 0 0 1 0 1.54 1.27 1.27 0 0 1-1.49.4 10.36 10.36 0 0 1-2-1.19 5.85 5.85 0 0 0-2-1.08C9 5 8.53 5.46 7.55 7l-.23.35a12 12 0 0 1-5.59 4.51 1.25 1.25 0 0 1-.46.06z"></path>
    </g>
</svg>
