<!-- 

<svg preserveAspectRatio="none" data-bbox="-0.067 -0.002 70.887 65.402" viewBox="-0.067 -0.002 70.887 65.402" xmlns="http://www.w3.org/2000/svg" data-type="shape" role="presentation" aria-hidden="true">
    <g>
        <path d="M59 62.51a1.28 1.28 0 0 1-1.27-1.22c-.59-15.38-6.35-31.78-16.22-46.17C36.42 7.69 12.42 1.81 1.36 2.61A1.27 1.27 0 1 1 1.18.08c11.89-.86 36.63 5.14 42.43 13.6 10.13 14.78 16 31.66 16.66 47.51a1.27 1.27 0 0 1-1.22 1.32z" fill="none" stroke="#afa1a1" stroke-width="4"></path>
        <path d="M60.21 65.4a2.86 2.86 0 0 1-1.54-.55l-4.1-2.66-.48-.27c-2.09-1.15-3.59-2.07-3.39-3.47a1.4 1.4 0 0 1 .76-1.06c1-.53 3.14.4 4.3 1a12.38 12.38 0 0 1 2.6 1.79 62.57 62.57 0 0 1 10.51-7.75 1.26 1.26 0 0 1 1.61.2 1.29 1.29 0 0 1 .1 1.62 73 73 0 0 1-8.46 10.22 2.8 2.8 0 0 1-1.91.93zm.1-2.53zm-.65-.4l.39.25.14.09.18-.17a42.69 42.69 0 0 0 3.54-3.82 37 37 0 0 0-4.25 3.65z" fill="none" stroke="#afa1a1" stroke-width="4"></path>
    </g>
</svg> -->


<svg preserveAspectRatio="none" data-bbox="-0.067 -0.002 70.887 65.402" viewBox="-0.067 -0.002 70.887 65.402" xmlns="http://www.w3.org/2000/svg" data-type="shape" role="presentation" aria-hidden="true">
    <g>
        <path d="M59 62.51a1.28 1.28 0 0 1-1.27-1.22c-.59-15.38-6.35-31.78-16.22-46.17C36.42 7.69 12.42 1.81 1.36 2.61A1.27 1.27 0 1 1 1.18.08c11.89-.86 36.63 5.14 42.43 13.6 10.13 14.78 16 31.66 16.66 47.51a1.27 1.27 0 0 1-1.22 1.32z" fill="#afa1a1"></path>
        <path d="M60.21 65.4a2.86 2.86 0 0 1-1.54-.55l-4.1-2.66-.48-.27c-2.09-1.15-3.59-2.07-3.39-3.47a1.4 1.4 0 0 1 .76-1.06c1-.53 3.14.4 4.3 1a12.38 12.38 0 0 1 2.6 1.79 62.57 62.57 0 0 1 10.51-7.75 1.26 1.26 0 0 1 1.61.2 1.29 1.29 0 0 1 .1 1.62 73 73 0 0 1-8.46 10.22 2.8 2.8 0 0 1-1.91.93zm.1-2.53zm-.65-.4l.39.25.14.09.18-.17a42.69 42.69 0 0 0 3.54-3.82 37 37 0 0 0-4.25 3.65z" fill="#afa1a1"></path>
    </g>
</svg>
