<svg preserveAspectRatio="xMidYMid meet" data-bbox="-0.032 -0.022 289.133 238.271" viewBox="-0.032 -0.022 289.133 238.271" xmlns="http://www.w3.org/2000/svg" data-type="color" role="img" aria-label="renewable resources">
    <g>
        <g>
            <path d="M102.26 63.05a30 30 0 0 1 5 3.72 19.79 19.79 0 0 1 4 5.07 21.25 21.25 0 0 1 1.42 3.06 9 9 0 0 1 .5 3.37 9.62 9.62 0 0 1-.76 3.34 6.84 6.84 0 0 1-2 2.74.2.2 0 0 1-.27 0 .28.28 0 0 1 0-.13v-3c0-.9-.17-1.85-.3-2.75s-.26-1.77-.37-2.68a12 12 0 0 0-.68-2.79 22.12 22.12 0 0 0-2.8-5.1 35.94 35.94 0 0 0-4-4.58.16.16 0 0 1 0-.24.17.17 0 0 1 .26-.03z" fill="#ddd8d5" data-color="1"></path>
            <path d="M102.56 44.41a87.89 87.89 0 0 1 13 6.58 32.82 32.82 0 0 1 10.6 10.47 27.32 27.32 0 0 1 3 7.06 30.71 30.71 0 0 1 1 7.45 36.81 36.81 0 0 1-2.59 14.56.18.18 0 0 1-.23.09.19.19 0 0 1-.11-.16v-7.23c0-2.37-.2-4.73-.45-7.07s-.48-4.65-.87-6.9a25.19 25.19 0 0 0-.79-3.33 13.22 13.22 0 0 0-.59-1.59 14.4 14.4 0 0 0-.7-1.55 30.61 30.61 0 0 0-9.19-10.4 96.76 96.76 0 0 0-12.19-7.67.18.18 0 0 1-.07-.23.18.18 0 0 1 .18-.08z" fill="#ddd8d5" data-color="1"></path>
            <path d="M51.07 58.19a13.51 13.51 0 0 0-6.14 3.6 18.23 18.23 0 0 0-3.88 5.8 17.69 17.69 0 0 0-1 3.35c-.25 1.14-.5 2.27-.78 3.42l-.84 3.5c-.29 1.19-.58 2.4-1 3.64a.16.16 0 0 1-.2.1.14.14 0 0 1-.1-.1 14.52 14.52 0 0 1-.87-3.78 17.88 17.88 0 0 1 0-3.87 13.85 13.85 0 0 1 .9-3.8 30.44 30.44 0 0 1 1.7-3.55 18.5 18.5 0 0 1 5.1-5.89A13.69 13.69 0 0 1 51 57.88a.16.16 0 0 1 .16.15.15.15 0 0 1-.09.16z" fill="#ddd8d5" data-color="1"></path>
            <path d="M50.29 39.72a31.38 31.38 0 0 0-12.43 8.85 49.9 49.9 0 0 0-8.12 12.92c-1 2.34-2 4.74-2.78 7.18s-1.61 4.82-2.25 7.24c-1.27 4.82-1.87 9.85.08 14.74a.15.15 0 0 1-.08.2.16.16 0 0 1-.18 0 13.23 13.23 0 0 1-2.1-3.45 16 16 0 0 1-1.05-4 25.7 25.7 0 0 1 .32-8.16 37.39 37.39 0 0 1 2.42-7.65c1.05-2.42 2.17-4.82 3.4-7.16a51.93 51.93 0 0 1 9.23-12.93 31.35 31.35 0 0 1 13.45-8.08.15.15 0 0 1 .18.11.14.14 0 0 1-.09.19z" fill="#ddd8d5" data-color="1"></path>
            <path d="M45.3 129.58a18.42 18.42 0 0 0 1.88 2.16 20.27 20.27 0 0 0 2.06 1.77 7.42 7.42 0 0 0 1.17.65 3.12 3.12 0 0 1 1 .78 7.06 7.06 0 0 1 .83 1.12 7.35 7.35 0 0 1 .76 1.54.23.23 0 0 1-.14.31 4 4 0 0 1-1.81.25 5 5 0 0 1-1.61-.42 3.42 3.42 0 0 1-1.26-1c-.33-.44-.62-.9-.93-1.33a12.48 12.48 0 0 1-1.53-2.74 11.72 11.72 0 0 1-.76-3 .18.18 0 0 1 .15-.2.17.17 0 0 1 .19.11z" fill="#ddd8d5" data-color="1"></path>
            <path d="M99.43 132.8a9.86 9.86 0 0 0 2.15-.83 10.57 10.57 0 0 0 1.8-1.15 5.12 5.12 0 0 0 .7-.77 1.74 1.74 0 0 1 .75-.59 5.63 5.63 0 0 1 1.06-.32 8.26 8.26 0 0 1 1.48-.22.26.26 0 0 1 .27.19 3.15 3.15 0 0 1 0 1.64 3.58 3.58 0 0 1-.63 1.32 2.54 2.54 0 0 1-1.12.82c-.46.15-.92.26-1.35.39a8.27 8.27 0 0 1-2.66.37 7.25 7.25 0 0 1-2.52-.5.18.18 0 0 1-.1-.24.19.19 0 0 1 .17-.11z" fill="#ddd8d5" data-color="1"></path>
            <path d="M103.1 144.56a14.67 14.67 0 0 0 3.48-1 16.81 16.81 0 0 0 3-1.62c.23-.18.45-.35.66-.53l.61-.59a5.76 5.76 0 0 1 1.29-1 17.7 17.7 0 0 1 3.43-1.56.21.21 0 0 1 .27.13.13.13 0 0 1 0 .06 5.61 5.61 0 0 1-1.46 4 7.26 7.26 0 0 1-.76.71 8.16 8.16 0 0 1-.9.53l-1 .39c-.33.11-.65.23-1 .35a13.48 13.48 0 0 1-3.91.85 12.6 12.6 0 0 1-3.87-.35.17.17 0 0 1-.13-.21.16.16 0 0 1 .29-.16z" fill="#ddd8d5" data-color="1"></path>
            <path d="M39.85 140.92a14.38 14.38 0 0 0 2.84 2.67 15.63 15.63 0 0 0 3.31 1.78c.29.1.58.2.87.27l.89.18a6.45 6.45 0 0 1 .87.2 5.11 5.11 0 0 1 .83.29 26.63 26.63 0 0 1 3.54 1.78.21.21 0 0 1 .07.29.1.1 0 0 1 0 .05 6 6 0 0 1-4.37 1.23 8.38 8.38 0 0 1-1.11-.22 7.78 7.78 0 0 1-1-.44l-1-.6c-.3-.22-.62-.42-.92-.62a13.51 13.51 0 0 1-3.15-3 12.24 12.24 0 0 1-1.94-3.72.17.17 0 0 1 .12-.22.16.16 0 0 1 .15.08z" fill="#ddd8d5" data-color="1"></path>
        </g>
        <g>
            <g>
                <g>
                    <g>
                        <g>
                            <path d="M229.55 126.1c-5.57-9.39-4.27-12.69-14.49-19.24S185 80.65 168.43 85s-21.07 7.64-23.54 11.16-4.46 6.56 3.16 4.19 18.76-7.62 29-3.9 21.81 7 26 12.74 16 13.47 17.73 23.53 14.3 2.81 8.73-6.57" fill="#ddd8d5" data-color="1"></path>
                        </g>
                        <g>
                            <path d="M226.81 107.79c4.54 4.53 9 .15 18.83-5.16s17.25-8.8 19-11.4-3-5-11.59.8-9.43 7.85-18.47 11.1-12.29.12-7.75 4.65" fill="#ddd8d5" data-color="1"></path>
                        </g>
                        <g>
                            <path d="M283.52 197.93c0-5.45-7.53-6-20.48-9.46s-22.22-6.44-25.91-6.14-1.69 4.72 10.59 7.12 14.72 1.86 25.22 6 10.61 8 10.58 2.51" fill="#ddd8d5" data-color="1"></path>
                        </g>
                        <g>
                            <path d="M196.27 85.11c2.83 0 9.87-6.54 14.6-13.52s13.21-18.5 11.79-21.51-6.17.48-15.81 13.84-13.41 21.18-10.58 21.19" fill="#ddd8d5" data-color="1"></path>
                        </g>
                        <g>
                            <path d="M159.23 74.81c.8-5.45-5.38-15-4.95-25.88s-3.05-16.57-6.14-14.2-3.65 21.07-.53 30.14 10.82 15.38 11.62 9.94" fill="#ddd8d5" data-color="1"></path>
                        </g>
                        <g>
                            <path d="M287.6 141c-5.17-.92-16.89 4.08-27.66 3.25s-17.66 2-16.39 4.77 19.78 4.05 30 1.71S292.76 142 287.6 141" fill="#ddd8d5" data-color="1"></path>
                        </g>
                    </g>
                    <path d="M220.45 128.37s3.24 16.4 2.13 20.19 2.74 22.72-7.06 31.68-14.74 15.39-12 16.78 13.36-.09 14.59-1.92 11.69-14.51 12.69-22.38 4.51-17.29 3.31-23.76-1.52-18.61-3.94-22.34-9.72 1.75-9.72 1.75z" fill="#ddd8d5" data-color="1"></path>
                </g>
                <g>
                    <g>
                        <path d="M94.63 228.64c-.07-.5-.1-.95-.14-1.48l-.23-3.07-1.83-24.58c-1.18-16.38-2.51-32.76-3.63-49.14 0 0-2.37-32.77-2.62-36.87-.13-2-.23-7.52-.32-9.57 0 0 0-2.53-.15-3.14a2 2 0 0 0-.41-.9c-.23-.29-4.55 0-5.47-.14a8.68 8.68 0 0 0-1.58-.32 2 2 0 0 0-1 .19 1.71 1.71 0 0 0-.72.76c-.26.59-.69 9.71-.69 9.71L73.11 147l-3.7 49.14-1.73 24.58-.43 6.14-.11 1.54c0 .51-.07 1.05-.12 1.44-.02-.04 27.68-.71 27.61-1.2z" fill="#ddd8d5" data-color="1"></path>
                        <g>
                            <path d="M83.19 88.21a7.5 7.5 0 0 0-2.2-.78 3.34 3.34 0 0 0-1.22 0 2.35 2.35 0 0 0-1.2.54 2.53 2.53 0 0 0-.81 2.43 3.72 3.72 0 0 0 1.16 2 3.24 3.24 0 0 0 2 .72A3.67 3.67 0 0 0 82 93a4.93 4.93 0 0 0 1.12-.38 2.58 2.58 0 0 0 1-.85 2.28 2.28 0 0 0 .44-1.33 2.21 2.21 0 0 0-.41-1.34 2.91 2.91 0 0 0-.96-.89z" fill="#ddd8d5" data-color="1"></path>
                            <path d="M158.7 134.27a6.24 6.24 0 0 0-1.57-1.93l-1.61-1.34-6.39-5.22-12.83-10.38c-8.56-6.93-17.34-13.63-26.55-19.72a61 61 0 0 0-7.16-4.28 20.46 20.46 0 0 0-8.17-2.16 1.72 1.72 0 0 1-1.48-.47 4.42 4.42 0 0 1-.65-1.7 10.92 10.92 0 0 0-2-3.8 12.66 12.66 0 0 0-1.49-1.53 4.47 4.47 0 0 1-1.32-1.35 3.58 3.58 0 0 1-.27-1.83V76.5c.13-11 .39-22 .67-33 0-11-.26-22-.42-33l-.06-4.12V4.3a6.2 6.2 0 0 0-.46-2.17A3.39 3.39 0 0 0 85.31.39 4.46 4.46 0 0 0 83 0a3.43 3.43 0 0 0-2.18 1 4.84 4.84 0 0 0-1.14 2 16.93 16.93 0 0 0-.45 2.09l-.36 2-.73 4.07-1.46 8.12C74.71 30.16 72.88 41 71.54 52c-.66 5.5-1.19 11-1.38 16.57a25.69 25.69 0 0 0 1.13 8.58 19.2 19.2 0 0 0 .82 2.06l.43.89a1.13 1.13 0 0 1 .1.44.54.54 0 0 1-.1.3 2.41 2.41 0 0 1-.42.48l-.39.36-.42.41a10.77 10.77 0 0 0-.77.88 10.45 10.45 0 0 0-2 4.24 11.24 11.24 0 0 0-.2 1.16 2.38 2.38 0 0 1-.15.64 1.8 1.8 0 0 1-.81.87l-.35.2-.46.24-.91.48-1.83 1-3.65 1.91c-4.88 2.56-9.75 5.14-14.54 7.9q-3.6 2.07-7.13 4.26c-2.34 1.49-4.62 2.9-7 4.25s-4.79 2.65-7.2 4l-1.81 1-.91.5c-.32.18-.64.36-.94.55-1.23.76-2.36 1.61-3.46 2.42s-2.19 1.6-3.3 2.28a18.22 18.22 0 0 1-1.7.88c-.63.28-1.3.59-1.93.92a65.15 65.15 0 0 0-7.08 4.5l-.85.58-.42.29a5.21 5.21 0 0 0-.52.41A4 4 0 0 0 0 130.8a4.4 4.4 0 0 0 .52 2.66 5.1 5.1 0 0 0 1.78 1.91 4.19 4.19 0 0 0 2.7.53 9.25 9.25 0 0 0 2.23-.62c1.3-.5 2.59-1 3.86-1.55 2.55-1.07 5.06-2.17 7.6-3.16 1.27-.49 2.54-.95 3.83-1.36s2.64-.78 4-1.25c5.28-1.88 10.12-4.54 15.22-6.43 1.26-.47 2.59-.88 3.89-1.38s2.58-1 3.85-1.58c2.53-1.11 5-2.39 7.43-3.65s5-2.33 7.44-3.58a34.93 34.93 0 0 0 7-4.45 20.92 20.92 0 0 0 2.94-3c.46-.53.82-1.14 1.23-1.71a1.05 1.05 0 0 1 1.32-.55c.59.13 1.32.36 2 .47a13.69 13.69 0 0 0 2.12.19 10.86 10.86 0 0 0 4.18-.83 2.44 2.44 0 0 1 1.74-.14 7.53 7.53 0 0 1 1.72.93l3.48 2.21 7 4.43c2.32 1.47 4.64 3 7 4.34s4.78 2.72 7.08 4.19c4.57 3.09 9.5 5.66 14.2 8.44s9.58 5.51 14.38 8.15l7.23 4 3.62 2a4.13 4.13 0 0 0 2.64.52 4.44 4.44 0 0 0 2.36-1.24 5 5 0 0 0 1.39-2.2 3.88 3.88 0 0 0-.28-2.82zM85 94.67a4.68 4.68 0 0 1-1.79 1.6 5.78 5.78 0 0 1-2.38.57 5.69 5.69 0 0 1-4.39-2 5.44 5.44 0 0 1-1.14-2.13 5.75 5.75 0 0 1-.08-2.3 7.83 7.83 0 0 1 1.91-3.82 8.18 8.18 0 0 1 1.65-1.45 4.84 4.84 0 0 1 2.22-.79 4.35 4.35 0 0 1 4.07 2.06 8.08 8.08 0 0 1 1 4.12 7.62 7.62 0 0 1-1 4.14z" fill="#ddd8d5" data-color="1"></path>
                        </g>
                    </g>
                </g>
                <g>
                    <path d="M124.78 109.46c3 5.39 8 9.36 12.92 13.18l26.94 21.13c13.11 10.28 27.64 23.87 25.18 40.36-1.32 8.85-7.53 17.93-3.62 26 2.86 5.89 10 8.21 16.44 9.3a101.57 101.57 0 0 0 36.26-.43l-6.71 15c-.64 1.44-1.37 3-2.75 3.73-1.69.94-3.78.42-5.63-.12l-33.14-9.64c-3.38-1-6.85-2-10.34-1.66-3.72.33-7.12 2.1-10.63 3.37-19.58 7.1-42.66-2.38-55.11-19.08s-15.48-39-12.44-59.61c1.87-12.73 5.87-25 10.7-36.92q1.8-4.41 3.73-8.75c.75-1.7 2.09-6.9 3.85-7.58 2.83-1.1 1.78 2.41 1.93 4.11a19.14 19.14 0 0 0 2.42 7.61z" fill="#231e21" data-color="2"></path>
                    <path d="M168.91 206.32c-10.33-7-20.63-14.29-28.67-23.82s-13.7-21.61-13.22-34.06c19.19 14.17 29.2 37.67 46.46 54.15 1 .91 6.25 5.72 4.48 7.15-1 .76-3.76-.46-4.68-.87a28 28 0 0 1-4.37-2.55z" fill="#5f5f5f" data-color="3"></path>
                </g>
            </g>
        </g>
    </g>
</svg>