<svg preserveAspectRatio="xMidYMid meet" data-bbox="-0.004 -0.005 180.349 309.175" viewBox="-0.004 -0.005 180.349 309.175" xmlns="http://www.w3.org/2000/svg" data-type="color" role="img" aria-label="Reduced carbon footprint">
    <g>
        <g>
            <path d="M107 107l-.19-1.17c-.06-.39-.17-.76-.25-1.15l-.13-.56-.13-.5a74.88 74.88 0 0 1-.9-4.06c-.54-2.74-1-5.56-1.58-8.4s-1.18-5.53-1.51-8.23a22.16 22.16 0 0 1 .2-7.83 12.71 12.71 0 0 1 3.64-6.42 17.44 17.44 0 0 1 3.08-2.33l.86-.49.94-.51 1.89-1c2.51-1.37 5-2.8 7.45-4.32a35.28 35.28 0 0 0 7-5.32 22.66 22.66 0 0 0 6.76-16 19.92 19.92 0 0 0-1.87-8.56 17.58 17.58 0 0 0-2.46-3.69 14.39 14.39 0 0 0-3.48-2.78A26.84 26.84 0 0 0 109.39 20a27.24 27.24 0 0 0-8.57 2.48 29.4 29.4 0 0 0-7.37 5.12 30.3 30.3 0 0 0-5.51 7.13c-.34.68-.72 1.33-1 2L86 38.81c-.24.72-.45 1.44-.68 2.17s-.32 1.48-.49 2.22a28.15 28.15 0 0 0-.2 9 50.9 50.9 0 0 1 .52 8.27 67.92 67.92 0 0 1-2.72 16.63c-.71 2.75-1.58 5.45-2.52 8.14a80.48 80.48 0 0 1-3.33 7.84 40.89 40.89 0 0 0-3.1 8 33.42 33.42 0 0 0-1.26 8.55 16.35 16.35 0 0 0 8.47 14.94 16.94 16.94 0 0 0 8.89 2.58 16.36 16.36 0 0 0 4.71-.78 19.18 19.18 0 0 0 4.26-2 18.78 18.78 0 0 0 6.55-6.79 17.21 17.21 0 0 0 2-9.39z" fill="#000000" data-color="1"></path>
            <path d="M131.11 17.93a15 15 0 0 0 .16 3.72 10.38 10.38 0 0 0 1.18 3.72 6.27 6.27 0 0 0 1.44 1.68 5.54 5.54 0 0 0 2.11 1 6 6 0 0 0 2.32.09 7.27 7.27 0 0 0 2.07-.67 9.17 9.17 0 0 0 3.06-2.47 17.77 17.77 0 0 0 2-3.23c.55-1.09 1.05-2.16 1.6-3.21a29.55 29.55 0 0 0 1.56-3.26 12.7 12.7 0 0 0 1-3.78 6.13 6.13 0 0 0-1.43-4.3A6.76 6.76 0 0 0 143.84 5 10.89 10.89 0 0 0 136 7.73a12.87 12.87 0 0 0-4.22 6.49 19.45 19.45 0 0 0-.67 3.71z" fill="#000000" data-color="1"></path>
            <path d="M119.7 10.48a12.61 12.61 0 0 0-1 2.73 5.86 5.86 0 0 0 .12 3.24 5.25 5.25 0 0 0 2.59 2.93 5.45 5.45 0 0 0 3.85.33 8 8 0 0 0 3-1.52 8.62 8.62 0 0 0 2.06-2.28 10.93 10.93 0 0 0 1.12-2.69 24.68 24.68 0 0 0 .74-5.48 10 10 0 0 0-.29-2.94 4.75 4.75 0 0 0-2-2.79 4.69 4.69 0 0 0-3.58-.53 5.36 5.36 0 0 0-2.71 1.7 10.19 10.19 0 0 0-1.6 2.49c-.4.83-.75 1.62-1.16 2.4s-.74 1.58-1.14 2.41z" fill="#000000" data-color="1"></path>
            <path d="M107 11.85a12.05 12.05 0 0 0 .06 1.33 5.8 5.8 0 0 0 .25 1.43 4.12 4.12 0 0 0 2.14 2.6 4.39 4.39 0 0 0 3.43.11 5.58 5.58 0 0 0 2.36-1.71 9.24 9.24 0 0 0 1.36-2.41c.34-.8.63-1.56 1-2.28s.72-1.47 1.08-2.26a13.19 13.19 0 0 0 .91-2.58 5.09 5.09 0 0 0-.2-3.11 4.8 4.8 0 0 0-2.76-2.66 5.39 5.39 0 0 0-3.63 0 7.82 7.82 0 0 0-2.68 1.58 8.48 8.48 0 0 0-2.77 4.79 24.24 24.24 0 0 0-.55 5.17z" fill="#000000" data-color="1"></path>
            <path d="M95.41 18.21a5.2 5.2 0 0 0 1.91 2.59 4.76 4.76 0 0 0 3.46.77 5.9 5.9 0 0 0 2.78-1.33 7 7 0 0 0 2.53-4.43 18.63 18.63 0 0 0 .2-2.36c0-.74.09-1.47.15-2.22a13.49 13.49 0 0 0 .06-2.46 3.75 3.75 0 0 0-1.5-2.71 3.48 3.48 0 0 0-1.63-.66 4 4 0 0 0-1.61.09A4.54 4.54 0 0 0 99.49 7a10.47 10.47 0 0 0-1.28 2.13l-1 2-1 2a9.89 9.89 0 0 0-.91 2.33 5.34 5.34 0 0 0 .11 2.75z" fill="#000000" data-color="1"></path>
            <path d="M93.22 22.59a12.8 12.8 0 0 0 1.1-1.59 3.82 3.82 0 0 0 .48-2 4.32 4.32 0 0 0-.89-2.34 3.53 3.53 0 0 0-1.37-1 3.47 3.47 0 0 0-1.65-.27 4.87 4.87 0 0 0-2.27.79 5 5 0 0 0-2.34 3.21c-.31 1.24-.43 2.34-.61 3.49l-.13.89c-.05.29-.08.59-.11.93a3.28 3.28 0 0 0 .57 2.15 3.21 3.21 0 0 0 2.3 1.25 2.89 2.89 0 0 0 2.34-.87 5.76 5.76 0 0 0 1-1.72 13 13 0 0 1 .7-1.51 7.76 7.76 0 0 1 .88-1.41z" fill="#000000" data-color="1"></path>
            <g>
                <path d="M167.71 136.64a27.58 27.58 0 0 0-8.23-15.34 27 27 0 0 0-3.53-2.79c-.63-.43-1.27-.82-1.93-1.18s-1.37-.7-2.1-1a18.82 18.82 0 0 0-4.55-1.24 16.58 16.58 0 0 0-4.82.16 18 18 0 0 0-8.46 4.19 26.65 26.65 0 0 0-3.25 3.3c-.49.6-.94 1.2-1.4 1.82s-.87 1.32-1.26 2a22.12 22.12 0 0 0-2.6 9 34.62 34.62 0 0 0 .56 9c.53 2.92 1.29 5.71 1.94 8.44.33 1.36.63 2.72.88 4.07a30.63 30.63 0 0 1 .47 3.95 11.77 11.77 0 0 1-2 7 24.67 24.67 0 0 1-5.69 5.48c-1.09.82-2.25 1.58-3.43 2.31l-3.66 2.17-7.36 4.36-3.69 2.16c-1.22.73-2.47 1.4-3.69 2.3a17 17 0 0 0-5.68 6.77 17.55 17.55 0 0 0-1.23 8.75 16.83 16.83 0 0 0 2.83 8.3 16.6 16.6 0 0 0 6.81 5.61 17.19 17.19 0 0 0 8.77 1.81 17.5 17.5 0 0 0 8.53-3.14 27.63 27.63 0 0 0 6.46-6.26 52.25 52.25 0 0 0 4.57-7.51l3.91-7.55c.67-1.24 1.33-2.49 2-3.7s1.37-2.45 2.08-3.67c1.45-2.4 2.93-4.79 4.55-7.08a66.3 66.3 0 0 1 5.24-6.58 53.53 53.53 0 0 1 6.11-5.84c1.1-.9 2.23-1.71 3.38-2.62a19.75 19.75 0 0 0 3-3.09 34.45 34.45 0 0 0 4.38-7.39 39.32 39.32 0 0 0 2.12-8.33 28.76 28.76 0 0 0-.03-8.64z" fill="#ddd8d5" data-color="2"></path>
                <path d="M138.08 104.09a14.21 14.21 0 0 0-.31 1.92 8.61 8.61 0 0 0 .11 2.09 7.81 7.81 0 0 0 2.08 4.06 6.5 6.5 0 0 0 4.5 1.89 8.25 8.25 0 0 0 4.33-1.16 10.62 10.62 0 0 0 3.12-2.66 11.59 11.59 0 0 0 1.82-3.46 24.11 24.11 0 0 0 1.16-7.29 18.31 18.31 0 0 0-.27-3.77 9 9 0 0 0-1.51-3.71 5.62 5.62 0 0 0-4-2.32 5.53 5.53 0 0 0-2.35.3A7.13 7.13 0 0 0 144.9 91a11.66 11.66 0 0 0-2.43 3c-.62 1.09-1.07 2.17-1.6 3.22s-1 2.13-1.53 3.25a20.64 20.64 0 0 0-1.26 3.62z" fill="#ddd8d5" data-color="2"></path>
                <path d="M154.32 111.14a12.35 12.35 0 0 0 .18 2.91 5 5 0 0 0 1.6 3 4.16 4.16 0 0 0 1.79.87 4.44 4.44 0 0 0 1.92 0 5.3 5.3 0 0 0 2.74-1.72 12.53 12.53 0 0 0 1.57-2.44c.43-.81.82-1.58 1.25-2.34l1.21-2.39a12.94 12.94 0 0 0 1.09-2.7 5.55 5.55 0 0 0-4.25-7 5.86 5.86 0 0 0-2 0 7.41 7.41 0 0 0-3.13 1.41 8.69 8.69 0 0 0-3.24 5 27.31 27.31 0 0 0-.73 5.4z" fill="#ddd8d5" data-color="2"></path>
                <path d="M164.1 120.36a10.2 10.2 0 0 0 .35 2.74 4.34 4.34 0 0 0 2 2.6 4.25 4.25 0 0 0 3.22.36c-.08.2-.15.4-.22.6a16.58 16.58 0 0 0-.89 4.62 13.27 13.27 0 0 0 .07 2.44 3.77 3.77 0 0 0 1.67 2.63 4.06 4.06 0 0 0 3.06.51 4.81 4.81 0 0 0 2.36-1.28 8 8 0 0 0 1.43-2.08c.36-.7.66-1.35 1-2s.65-1.29 1-2a11.85 11.85 0 0 0 1-2.27 5 5 0 0 0 0-2.77 4.73 4.73 0 0 0-3.69-3.38 4.84 4.84 0 0 0-1.82.07 5.21 5.21 0 0 0-1.16.43 13.21 13.21 0 0 1 1-2.14c.28-.78.61-1.54 1-2.29a10.16 10.16 0 0 0 .9-2.62 5.69 5.69 0 0 0-.3-3 5 5 0 0 0-2.53-2.71 5.12 5.12 0 0 0-3.77-.09 7.91 7.91 0 0 0-2.67 1.63 8.49 8.49 0 0 0-2.68 4.83 23.53 23.53 0 0 0-.33 5.17z" fill="#ddd8d5" data-color="2"></path>
                <path d="M178.39 144.6a21.85 21.85 0 0 0 .26-3.61 5.35 5.35 0 0 0-.31-2.06 3 3 0 0 0-2-1.74 3.38 3.38 0 0 0-2.4.27 3.77 3.77 0 0 0-1.47 1.36 10.29 10.29 0 0 0-.79 1.76 6.86 6.86 0 0 1-.75 1.48c-.28.42-.66.9-1 1.41a5 5 0 0 0-.92 1.87 3.21 3.21 0 0 0 .63 2.57 4.25 4.25 0 0 0 1 .9 4 4 0 0 0 1.35.57 4.37 4.37 0 0 0 2.6-.26 5.11 5.11 0 0 0 .93-.48 6.9 6.9 0 0 0 .87-.63 5.37 5.37 0 0 0 2-3.41z" fill="#ddd8d5" data-color="2"></path>
            </g>
            <g>
                <path d="M34.74 289l-.2-1.17c0-.39-.16-.76-.25-1.15l-.13-.56-.13-.5c-.33-1.33-.63-2.69-.9-4.06-.53-2.74-1-5.56-1.58-8.4s-1.18-5.53-1.51-8.23a22.4 22.4 0 0 1 .2-7.83 12.71 12.71 0 0 1 3.64-6.42 17.51 17.51 0 0 1 3.12-2.34l.86-.49.94-.51 1.88-1c2.51-1.37 5-2.8 7.45-4.32a35.28 35.28 0 0 0 7-5.32 22.72 22.72 0 0 0 6.77-16 19.79 19.79 0 0 0-1.9-8.55 17.58 17.58 0 0 0-2.46-3.69 14.39 14.39 0 0 0-3.48-2.78A26.91 26.91 0 0 0 37.13 202a27.6 27.6 0 0 0-8.57 2.49 29.58 29.58 0 0 0-7.37 5.12 30 30 0 0 0-5.5 7.13c-.35.67-.73 1.33-1 2l-.88 2.1c-.24.72-.45 1.44-.67 2.17s-.33 1.48-.49 2.22a27.87 27.87 0 0 0-.21 9 52.06 52.06 0 0 1 .53 8.27 67.85 67.85 0 0 1-2.73 16.62c-.7 2.76-1.58 5.46-2.51 8.15a83.09 83.09 0 0 1-3.34 7.84 40.89 40.89 0 0 0-3.1 8A33.86 33.86 0 0 0 0 291.65a17.4 17.4 0 0 0 2.07 8.59 17.48 17.48 0 0 0 6.4 6.35 17 17 0 0 0 8.89 2.58 16.36 16.36 0 0 0 4.71-.78 19.18 19.18 0 0 0 4.26-2 18.81 18.81 0 0 0 6.56-6.79 17.29 17.29 0 0 0 2-9.39z" fill="#ddd8d5" data-color="2"></path>
                <path d="M58.85 199.93a15 15 0 0 0 .16 3.72 10.4 10.4 0 0 0 1.19 3.72 6.23 6.23 0 0 0 1.43 1.68 5.61 5.61 0 0 0 2.11 1 6.25 6.25 0 0 0 2.32.09 7.17 7.17 0 0 0 2.07-.67 9.07 9.07 0 0 0 3.06-2.47 17.56 17.56 0 0 0 2-3.24c.55-1.08 1-2.15 1.59-3.2a27.85 27.85 0 0 0 1.56-3.26 12.12 12.12 0 0 0 1-3.78 6.08 6.08 0 0 0-1.43-4.3 6.76 6.76 0 0 0-4.33-2.22 10.85 10.85 0 0 0-7.87 2.7 12.76 12.76 0 0 0-4.22 6.49 18.71 18.71 0 0 0-.64 3.74z" fill="#ddd8d5" data-color="2"></path>
                <path d="M47.45 192.48a12.64 12.64 0 0 0-1 2.73 6 6 0 0 0 .12 3.24 5.29 5.29 0 0 0 2.59 2.93 5.48 5.48 0 0 0 3.86.33 7.91 7.91 0 0 0 3-1.52 8.62 8.62 0 0 0 1.98-2.28 10.93 10.93 0 0 0 1.12-2.69 24.68 24.68 0 0 0 .74-5.48 10 10 0 0 0-.29-2.94 4.53 4.53 0 0 0-5.57-3.32 5.4 5.4 0 0 0-2.71 1.7 10.5 10.5 0 0 0-1.55 2.49c-.4.83-.75 1.62-1.16 2.4s-.74 1.58-1.13 2.41z" fill="#ddd8d5" data-color="2"></path>
                <path d="M34.76 193.85a12.05 12.05 0 0 0 .06 1.33 6.3 6.3 0 0 0 .25 1.43 4.12 4.12 0 0 0 2.14 2.6 4.39 4.39 0 0 0 3.43.11 5.61 5.61 0 0 0 2.36-1.71 9.5 9.5 0 0 0 1.35-2.41c.34-.8.63-1.56 1-2.28s.71-1.47 1.07-2.26a13.19 13.19 0 0 0 .91-2.58 5.09 5.09 0 0 0-.2-3.11 4.77 4.77 0 0 0-2.75-2.66 5.36 5.36 0 0 0-3.62 0 7.86 7.86 0 0 0-2.69 1.58 8.48 8.48 0 0 0-2.77 4.79 24.17 24.17 0 0 0-.54 5.17z" fill="#ddd8d5" data-color="2"></path>
                <path d="M23.16 200.21a5.18 5.18 0 0 0 1.9 2.59 4.76 4.76 0 0 0 3.46.77 5.9 5.9 0 0 0 2.78-1.33 6.91 6.91 0 0 0 2.53-4.43 17 17 0 0 0 .2-2.36c0-.74.09-1.47.15-2.22a13.49 13.49 0 0 0 .07-2.46 3.73 3.73 0 0 0-1.49-2.71 3.48 3.48 0 0 0-1.63-.66 4 4 0 0 0-1.61.09 4.47 4.47 0 0 0-2.28 1.5 10.08 10.08 0 0 0-1.24 2.13l-1 2-1 2a10.34 10.34 0 0 0-.91 2.33 5.24 5.24 0 0 0 .07 2.76z" fill="#ddd8d5" data-color="2"></path>
                <path d="M21 204.59a11.79 11.79 0 0 0 1.1-1.55 3.73 3.73 0 0 0 .48-2.09 4.31 4.31 0 0 0-.88-2.34 3.56 3.56 0 0 0-1.38-1.05 3.47 3.47 0 0 0-1.65-.27 4.87 4.87 0 0 0-2.27.79 5 5 0 0 0-2.4 3.21c-.31 1.24-.43 2.34-.61 3.49l-.13.89c0 .29-.08.59-.11.93a3.28 3.28 0 0 0 .59 2.25A3.19 3.19 0 0 0 16 210.1a2.89 2.89 0 0 0 2.34-.87 5.76 5.76 0 0 0 1-1.72 14.86 14.86 0 0 1 .68-1.53 8.36 8.36 0 0 1 .98-1.39z" fill="#ddd8d5" data-color="2"></path>
            </g>
        </g>
    </g>
</svg>