<svg preserveAspectRatio="xMidYMid meet" data-bbox="0.002 -0.006 174.683 172.961" viewBox="0.002 -0.006 174.683 172.961" xmlns="http://www.w3.org/2000/svg" data-type="color" role="img" aria-label="Sustainable production">
    <g>
        <path d="M51.55 25.47c.74-.08 3.25-2.67 4.28-3.13 1.71-.78 3.6-.94 5.31-1.61 4.49-1.78 8-3.41 13.06-3.38a68.74 68.74 0 0 1 14.24 2.07c3.32.72 6.64 1.44 9.9 2.42S105 24.1 108.4 24.6a46 46 0 0 0 11.42-.24c5.73-.59 11.62-.88 17.28-2 1.68-.32 2.77-1.31 4.59-.67-.09.86-2.1 3.07-2.71 3.83a19.82 19.82 0 0 1-4.22 4.21c-1.51 1-3.06.9-4.66 1.69-.83.41-1.51 1.35-2.33 1.65-3.12 1.15-8 .86-11.34 1a68.66 68.66 0 0 1-13.59-.88 115.43 115.43 0 0 1-14-3.63c-5.88-1.78-11.73-4.06-17.88-4.62a98.22 98.22 0 0 0-19.41.53z" fill="#ddd8d5" data-color="1"></path>
        <path d="M80.33 48c2.27-2.5 2.82-5.33 6.29-6.7a19.62 19.62 0 0 1 6.73-1.08 15.07 15.07 0 0 1 6.23.83 30 30 0 0 1 5 3.31c4.91 3.38 11.19 4.27 17.11 3.66 7.2-.73 14.6-3.29 21.4-5.68 1-.35 2.07-.92 3.11-1.26-1.35 4.92-6.71 7.58-10.46 10.46-5.11 3.92-10.84 4.73-17.16 5.31a52.42 52.42 0 0 1-12.07.18c-5.21-.74-8.55-3.35-13-5.69-1.23-.61-12.46-4.11-13.18-3.34z" fill="#ddd8d5" data-color="1"></path>
        <path d="M43 31.69c-1.62 9.1-3.07 18.23-4.21 27.41-1 8.45-2.86 17.82-2.79 26.25a14.89 14.89 0 0 0 .08 3c2 .65 4.88.12 7.05.12H50c1.49 0 3.68.44 5.09 0s.94-.19 1.14-1.58c.43-2.85-.77-5.85-.7-8.84q.16-6.73.11-13.47-.07-9.49-.53-19c-.14-2.86-.3-5.74-.71-8.53-.22-1.43 0-4.64-1.24-5.63-1.7-1.41-3.11 0-4.7.25a43.26 43.26 0 0 1-5.46.02z" fill="#ddd8d5" data-color="1"></path>
        <path d="M70.22 53.46v26.45c0 1.85-.77 6 .14 7.62 1.2 2.09 6.07.78 7.77.54 2.11-.3 4.75.13 6.75-.46.66-2.11.11-5.28.11-7.51V63.57c0-2.75 1.14-8.13-2.31-8.57-.89-.11-1.85.18-2.74 0s-1.74-.68-2.72-.85c-1.68-.24-3.74.09-7-.69z" fill="#ddd8d5" data-color="1"></path>
        <path d="M21.35 158.66c0 1.35-.57 3.05 0 4.35.31.75.08.57 1.35.75a18.77 18.77 0 0 0 5-.27 18.66 18.66 0 0 1 6.46.14c2.87.46 6.56.11 9.49.11 3.54 0 7.09.08 10.62 0 1.66 0 2.83-.33 4.36-.48 1.77-.18 3.7-.05 5.5-.05h7.29c3.48 0 6.75.52 10.26.51h44c2.25 0 4.57.11 6.8 0 3.11-.12 6-.53 9.25-.53a28.48 28.48 0 0 0 3.2 0c.74-.09 1.12-.39 1.75-.48a53 53 0 0 1 5.92 0c2.37 0 2.88-.65 3-2 .09-1 .29-2.22-1.69-2.56a24.59 24.59 0 0 0-3 0c-1.44 0-2.77-.38-4.2-.48-2-.15-4.1-.05-6.13-.05H71.8a25.54 25.54 0 0 0-3 0c-1 .12-1.49.44-2.48.54-4.76.51-10.56 0-15.44 0h-7.4c-1.21 0-2.45.06-3.66 0a16.23 16.23 0 0 1-2.45-.41 21 21 0 0 0-2.77-.11c-4.42.03-8.83 0-13.25 1.02z" fill="#ddd8d5" data-color="1"></path>
        <path d="M143.86 116.45v-2.48c.08-5-.63-10.11-.58-15a10.38 10.38 0 0 0 0-2.78c-.5-1.08-1.25-.61-2.39-.89-8.18-2-17.57-.62-25.91-.51s-16.57-.13-24.86-.36L73.16 94l-20.06-.6c-5.88-.17-12.46-1.2-18.28-.31-1.37.21-1.57 1.17-1.93 1.59v45.91c0 3.68-.55 7.92 0 11.53 3.48.79 7.06-.11 10.55-.06 4.5.07 9 .32 13.5.46q13.18.42 26.37.7 16.08.32 32.18.46c5.57 0 11.15.1 16.73.07 2.11 0 3.67-.64 5.63-.82 1.24-.11 3.49 1 4.54 0 1.33-1.35.06-5.42 0-7.1-.13-4.63.61-9.42.85-14q.46-7.72.62-15.38zm-80.61 13.26c-.39 1.92-1.14 1.56-3.16 1.52-1.31 0-2.75.19-4 .05-1.6-.18-2.86-.78-4.5-.82a20.72 20.72 0 0 1-3.52 0c-2.65-.57-1.92-3.26-1.92-5.48 0-1.27.06-2.57 0-3.85-.07-1.85-1-3.62-.8-5.48l-.78-.78H57c.91 0 3.07-.4 3.9-.05 1.9.79 1.5 4.88 1.5 6.66.04 2.77 1.41 5.52.85 8.23zM96.68 132a38.57 38.57 0 0 1-4.3 0H81.7c-2.25 0-2.86.43-2.93-1.9-.06-1.9 0-3.8 0-5.7 0-3.39-.75-6.13-.77-9.51h15.51c1.77 0 3.53-.71 4 1.14.33 1.38-.23 2.89.14 4.31.77 2.94.56 5.84.6 9-.01 1.96.38 2.47-1.57 2.66zm34.08-.09c-1.17.33-2.92.29-4.13.49-1.57.27-3-.36-4.7-.42s-3.17 0-4.75 0c-1.32 0-4.94-.71-5.8.49.26-2.61.06-5.32.06-7.94v-6.63a9.93 9.93 0 0 0 0-2.31 4.68 4.68 0 0 1-.76.06l.56-.55a1.27 1.27 0 0 0-.24-.28l.46.05-.22.23a2.1 2.1 0 0 1 .2.49c1.36-.14 2.49-.66 3.91-.73s3.12 0 4.66 0h5.45c1.25 0 3.85.57 4.72-.49-.4 1.41.57 2.28.74 3.59a31.73 31.73 0 0 1 0 3.9c-.04 3.14.63 7.14-.16 10.08z" fill="#ddd8d5" data-color="1"></path>
        <g>
            <g>
                <g>
                    <path d="M20.18 150.09c-.25-.27-2.37-.3-3.36-1.73C4.71 129.52-1.62 106.85.36 84.05A95.65 95.65 0 0 1 9.35 51a90.57 90.57 0 0 1 20.91-28.08C47.75 7 72.41-2 96.89.37a84.62 84.62 0 0 1 34.72 11 79.29 79.29 0 0 1 26.45 24.81l4 6.23c1.31 2.47 2.94 5.08 4.35 8a84 84 0 0 1 3.96 9.59c.55 1.7 1.18 3.39 1.66 5.15s.81 3.57 1.21 5.36c3.21 14.45.67 29.66-3.69 37.37-3.05 5.32-4.43 5.68-4.83 3.56s.38-6.78.55-12.29c.33-2.72.1-5.68.17-8.58s-.44-5.76-.57-8.35c-.37-2.58-.82-4.89-1.1-6.72-.25-1.26-.56-2.5-.93-3.73-.91-3.76-2.32-7.33-3.48-10.89-1.53-3.42-2.78-6.86-4.5-9.9a84.51 84.51 0 0 0-5-8.54c-1.74-2.54-3.55-4.74-5.1-6.7A75.44 75.44 0 0 0 127 21.37a72.64 72.64 0 0 0-9.93-4.6 68.62 68.62 0 0 0-10.21-3.09 71.74 71.74 0 0 0-20.51-1.49 72.62 72.62 0 0 0-10 1.32c-1.64.26-3.23.82-4.83 1.22a38.72 38.72 0 0 0-4.74 1.45l-4.63 1.76c-1.53.6-3 1.42-4.46 2.12A82.45 82.45 0 0 0 49.21 25c-1.37.91-2.66 2-4 2.93a33.17 33.17 0 0 0-3.85 3.14l-3.72 3.33-3.43 3.69L32.5 40 31 42c-1 1.36-2.12 2.68-3.1 4.09a86.53 86.53 0 0 0-5.33 9 81.48 81.48 0 0 0-7.46 20.57L14 80.73l-.67 5.13-.33 2.58-.14 2.56-.24 5.19c.25 3.42.1 6.94.73 10.32.25 1.71.45 3.43.76 5.13s.83 3.34 1.24 5C18.78 130 26.71 141.86 37 149.24a60.87 60.87 0 0 0 31.57 10.81 81 81 0 0 0 29.4-3.9c6-1.71 11.47-4.91 16.41-8.24A84.89 84.89 0 0 0 127.26 136a157.46 157.46 0 0 0 9.92-13.35c.84-1.08 1.41-2.35 2.2-3.46a38.86 38.86 0 0 0 2.23-3.49c.7-1.2 1.47-2.38 2.3-3.55.66-1.25 1.39-2.49 2.19-3.73 2.28-3.52 1.39.44 1.32.46 5.46-.22 2.75-2.06 3.11 3.66.2 1.23-3 4.58-2.46 5.52s2.74-1.86 2.9-2.69a60.42 60.42 0 0 1-14.36 31.15A75.81 75.81 0 0 1 103.92 168c-13.49 4.46-28.43 6.45-43.24 3.69l-5.56-1.11c-1.83-.48-3.63-1.09-5.46-1.67A71.37 71.37 0 0 1 39 164.46a68.63 68.63 0 0 1-18.82-14.37z" fill-rule="evenodd" fill="#231e21" data-color="2"></path>
                </g>
            </g>
            <path d="M19.09 144.77L12 133.89c.23-.15 23.19-15.2 37.89-27 7.77-6.23 20.55-20.31 32.9-33.93 11-12.1 21.33-23.52 28.59-29.95 14-12.36 19.91-23.94 20-24L143 24.79c-.28.56-7 13.81-23 28-6.73 6-17.33 17.65-27.58 28.95C79.71 95.69 66.58 110.16 58 117c-15.19 12.23-37.95 27.14-38.91 27.77z" fill="#231e21" data-color="2"></path>
        </g>
    </g>
</svg>